<?xml version="1.0" encoding="UTF-8"?>
<!DOCTYPE svg PUBLIC "-//W3C//DTD SVG 1.1//EN" "http://www.w3.org/Graphics/SVG/1.1/DTD/svg11.dtd">
<!-- Creator: CorelDRAW 2020 (64-Bit) -->
<svg xmlns="http://www.w3.org/2000/svg" xml:space="preserve" width="25mm" height="4mm" version="1.1" style="shape-rendering:geometricPrecision; text-rendering:geometricPrecision; image-rendering:optimizeQuality; fill-rule:evenodd; clip-rule:evenodd"
viewBox="0 0 1118.22 178.92"
 xmlns:xlink="http://www.w3.org/1999/xlink"
 xmlns:xodm="http://www.corel.com/coreldraw/odm/2003">
 <defs>
  <style type="text/css">
   <![CDATA[
    .fil0 {fill:#fff}
   ]]>
  </style>
 </defs>
 <g id="Слой_x0020_1">
  <metadata id="CorelCorpID_0Corel-Layer"/>
  <path class="fil0" d="M-0 0l1118.22 0 0 178.92 -1118.22 0 0 -178.92zm1026.86 13.95c1.77,-5.45 9.49,-5.45 11.25,0l15.63 48.1c0.79,2.44 3.06,4.09 5.63,4.09l50.57 0c5.73,0 8.11,7.34 3.48,10.71l-40.91 29.73c-2.08,1.5 -2.94,4.18 -2.15,6.62l15.63 48.1c1.77,5.45 -4.47,9.98 -9.11,6.62l-40.91 -29.73c-2.08,-1.51 -4.88,-1.51 -6.96,0l-40.92 29.73c-4.64,3.37 -10.88,-1.16 -9.1,-6.62l15.62 -48.1c0.8,-2.44 -0.08,-5.11 -2.15,-6.62l-40.92 -29.73c-4.63,-3.37 -2.25,-10.71 3.48,-10.71l50.57 0c2.56,0 4.84,-1.65 5.63,-4.09l15.63 -48.1zm-236.69 0c1.77,-5.45 9.48,-5.45 11.25,0l15.63 48.1c0.79,2.44 3.06,4.09 5.63,4.09l50.57 0c5.73,0 8.11,7.34 3.48,10.71l-40.92 29.73c-2.07,1.5 -2.94,4.18 -2.15,6.62l15.62 48.1c1.78,5.45 -4.46,9.98 -9.1,6.62l-40.92 -29.73c-2.08,-1.51 -4.88,-1.51 -6.96,0l-40.91 29.73c-4.64,3.37 -10.88,-1.16 -9.11,-6.62l15.63 -48.1c0.79,-2.44 -0.08,-5.11 -2.15,-6.62l-40.91 -29.73c-4.64,-3.37 -2.25,-10.71 3.48,-10.71l50.57 0c2.56,0 4.84,-1.65 5.63,-4.09l15.63 -48.1zm-236.69 0c1.77,-5.45 9.48,-5.45 11.25,0l15.63 48.1c0.79,2.44 3.06,4.09 5.63,4.09l50.57 0c5.73,0 8.12,7.34 3.48,10.71l-40.92 29.73c-2.07,1.5 -2.94,4.18 -2.15,6.62l15.63 48.1c1.77,5.45 -4.47,9.98 -9.11,6.62l-40.91 -29.73c-2.08,-1.51 -4.88,-1.51 -6.96,0l-40.91 29.73c-4.64,3.37 -10.88,-1.16 -9.11,-6.62l15.63 -48.1c0.79,-2.44 -0.08,-5.11 -2.15,-6.62l-40.92 -29.73c-4.64,-3.37 -2.25,-10.71 3.48,-10.71l50.57 0c2.56,0 4.84,-1.65 5.63,-4.09l15.63 -48.1zm-236.69 0c1.77,-5.45 9.49,-5.45 11.25,0l15.63 48.1c0.79,2.44 3.06,4.09 5.63,4.09l50.57 0c5.73,0 8.11,7.34 3.48,10.71l-40.91 29.73c-2.08,1.5 -2.94,4.18 -2.15,6.62l15.63 48.1c1.77,5.45 -4.47,9.98 -9.11,6.62l-40.91 -29.73c-2.08,-1.51 -4.88,-1.51 -6.96,0l-40.92 29.73c-4.64,3.37 -10.88,-1.16 -9.1,-6.62l15.62 -48.1c0.8,-2.44 -0.08,-5.11 -2.15,-6.62l-40.92 -29.73c-4.63,-3.37 -2.25,-10.71 3.48,-10.71l50.57 0c2.56,0 4.84,-1.65 5.63,-4.09l15.63 -48.1zm-236.69 0c1.78,-5.45 9.49,-5.45 11.26,0l15.63 48.1c0.79,2.44 3.06,4.09 5.63,4.09l50.57 0c5.73,0 8.11,7.34 3.48,10.71l-40.92 29.73c-2.07,1.5 -2.94,4.18 -2.15,6.62l15.62 48.1c1.78,5.45 -4.46,9.98 -9.1,6.62l-40.92 -29.73c-2.07,-1.51 -4.88,-1.51 -6.96,0l-40.91 29.73c-4.64,3.37 -10.88,-1.16 -9.11,-6.62l15.63 -48.1c0.79,-2.44 -0.08,-5.11 -2.15,-6.62l-40.91 -29.73c-4.64,-3.37 -2.25,-10.71 3.48,-10.71l50.57 0c2.56,0 4.84,-1.65 5.63,-4.09l15.63 -48.1z"/>
 </g>
</svg>
