<svg width="44" height="44" viewBox="0 0 44 44" fill="none" xmlns="http://www.w3.org/2000/svg">
<g clip-path="url(#clip0_1159_3347)">
<path d="M24.7677 0.823165L22.3005 2.46157L21.3368 4.0316L22.3005 6.11593L23.534 5.29668C25.1562 4.21944 27.3248 5.38246 27.3248 7.32975C27.3248 8.67761 26.2321 9.77029 24.8842 9.77029L26.4549 10.734L27.468 9.77029C30.1638 9.77029 32.3492 7.58493 32.3492 4.88911C32.3492 0.994723 28.012 -1.33141 24.7677 0.823165Z" fill="#D4E0FF"/>
<path d="M12.5131 0.823162C9.26877 -1.33142 4.93164 0.99472 4.93164 4.88929C4.93164 7.58502 7.117 9.77047 9.81282 9.77047L10.9191 10.7341L12.3965 9.77047C11.0486 9.77047 9.95594 8.67779 9.95594 7.32993C9.95594 5.38264 12.1245 4.21953 13.7467 5.29686L14.9802 6.11611L15.9439 4.03178L14.9802 2.46176L12.5131 0.823162Z" fill="#D4E0FF"/>
<path d="M2.87952 39.7623C2.87952 40.424 3.41599 40.9605 4.07771 40.9605H33.2031C33.8648 40.9605 34.4013 40.424 34.4013 39.7623V21.2344L19.2344 26.3291L2.87952 33.8258V39.7623Z" fill="#BAC9F3"/>
<path d="M31.5101 22.3888V36.8706C31.5101 37.5323 30.9736 38.0688 30.3119 38.0688H2.87952V39.7618C2.87952 40.4235 3.41599 40.96 4.07771 40.96H33.2031C33.8648 40.96 34.4013 40.4235 34.4013 39.7618V21.2339L32.9557 20.8477L31.5101 22.3888Z" fill="#90A4DC"/>
<path d="M2.87952 33.8261L34.4013 21.2348V17.3054L18.6404 16.3418L2.87952 17.3054V33.8261Z" fill="#BAC9F3"/>
<path d="M31.51 17.3054V22.3896L34.4012 21.2348V17.3054L32.9556 16.3418L31.51 17.3054Z" fill="#90A4DC"/>
<path d="M35.6068 9.76953H1.67409C1.23556 9.76953 0.880005 10.1251 0.880005 10.5636V16.5096C0.880005 16.9481 1.23556 17.3037 1.67409 17.3037H35.6067C36.0452 17.3037 36.4008 16.9481 36.4008 16.5096V10.5636C36.4008 10.125 36.0453 9.76953 35.6068 9.76953Z" fill="#BAC9F3"/>
<path d="M35.5827 9.76953H33.5094V13.5943C33.5094 14.0461 33.1432 14.4124 32.6914 14.4124H0.880005V16.4856C0.880005 16.9374 1.24623 17.3036 1.69804 17.3036H35.5827C36.0345 17.3036 36.4008 16.9374 36.4008 16.4856V10.5875C36.4008 10.1358 36.0345 9.76953 35.5827 9.76953Z" fill="#90A4DC"/>
<path d="M22.3005 40.9599H14.9802V9.77032L18.6404 8.80664L22.3005 9.77032V40.9599Z" fill="#D4E0FF"/>
<path d="M14.9802 38.0684H22.3005V40.9596H14.9802V38.0684Z" fill="#A8C1FF"/>
<path d="M22.3005 2.42686C20.0567 1.04261 17.224 1.04261 14.9802 2.42686V9.77074H22.3005V2.42686Z" fill="#F2F6FF"/>
<path d="M22.3006 2.42666C21.4056 1.87457 20.4169 1.54333 19.4093 1.43164V4.857C19.4093 5.97381 18.5039 6.87922 17.3871 6.87922H14.9803V9.77054H22.3007L22.3006 2.42666Z" fill="#BACFFF"/>
<path d="M39.8277 40.7086C43.7173 36.8191 43.7173 30.5129 39.8277 26.6234C35.9382 22.7339 29.6321 22.7339 25.7425 26.6234C21.853 30.5129 21.853 36.8191 25.7425 40.7086C29.6321 44.5981 35.9382 44.5981 39.8277 40.7086Z" fill="#B0A3E4"/>
<path d="M32.7936 23.7031C32.2192 23.7031 31.6563 23.7524 31.1084 23.8458C35.8072 24.6465 39.3844 28.7374 39.3844 33.6644C39.3844 38.5914 35.8072 42.6822 31.1084 43.483C31.6563 43.5763 32.2191 43.6256 32.7936 43.6256C38.295 43.6256 42.7549 39.1658 42.7549 33.6644C42.7549 28.1629 38.295 23.7031 32.7936 23.7031Z" fill="#7D6BC7"/>
<path d="M29.9312 32.7692C28.6476 32.7692 27.6033 31.7249 27.6033 30.4413C27.6033 29.1576 28.6476 28.1133 29.9312 28.1133C31.2149 28.1133 32.2592 29.1576 32.2592 30.4413C32.2592 31.725 31.2149 32.7692 29.9312 32.7692ZM29.9312 29.6733C29.5078 29.6733 29.1633 30.0179 29.1633 30.4413C29.1633 30.8648 29.5078 31.2092 29.9312 31.2092C30.3547 31.2092 30.6993 30.8648 30.6993 30.4413C30.6992 30.0179 30.3546 29.6733 29.9312 29.6733Z" fill="white"/>
<path d="M36.3813 39.2185C35.0977 39.2185 34.0533 38.1741 34.0533 36.8905C34.0533 35.6069 35.0977 34.5625 36.3813 34.5625C37.6649 34.5625 38.7093 35.6069 38.7093 36.8905C38.7093 38.1742 37.6649 39.2185 36.3813 39.2185ZM36.3813 36.1225C35.9578 36.1225 35.6134 36.4671 35.6134 36.8905C35.6134 37.314 35.9578 37.6584 36.3813 37.6584C36.8048 37.6584 37.1494 37.314 37.1494 36.8905C37.1493 36.4671 36.8047 36.1225 36.3813 36.1225Z" fill="white"/>
<path d="M29.0318 38.5708C28.8323 38.5708 28.6326 38.4947 28.4803 38.3424C28.1757 38.0378 28.1757 37.5439 28.4803 37.2393L36.7294 28.9902C37.0341 28.6855 37.528 28.6856 37.8325 28.9902C38.1372 29.2948 38.1372 29.7886 37.8325 30.0933L29.5835 38.3424C29.4311 38.4947 29.2314 38.5708 29.0318 38.5708Z" fill="white"/>
</g>
<defs>
<clipPath id="clip0_1159_3347">
<rect width="44" height="44" fill="white"/>
</clipPath>
</defs>
</svg>
