<svg width="44" height="44" viewBox="0 0 44 44" fill="none" xmlns="http://www.w3.org/2000/svg">
<path d="M2.81527 43.1206H29.7448C30.2867 43.1206 31.6801 41.9365 31.6801 41.476V4.28524C31.6801 3.82471 30.2867 2.64062 29.7448 2.64062H2.81527C1.83412 2.64062 0.880079 3.4511 0.880054 4.28524V41.476C0.880054 42.3684 1.83412 43.1206 2.81527 43.1206Z" fill="#BAC9F3"/>
<path d="M26.4001 42.2406H29.4416C30.8155 42.2406 31.6801 41.4881 31.6801 40.596V4.28521C31.6801 3.45139 30.8155 2.64062 29.4416 2.64062H26.4001C27.7739 2.64062 28.6385 3.45139 28.6385 4.28521V40.596C28.6385 41.4881 27.8324 42.2406 26.4001 42.2406Z" fill="#8596C6"/>
<path d="M18.0122 8.77366H15.8674V6.62884C15.8674 5.88457 15.2641 5.28125 14.5198 5.28125C13.7755 5.28125 13.1719 5.88457 13.1719 6.62884V8.77366H11.0274C10.2831 8.77366 9.67981 9.37697 9.67981 10.1213C9.67981 10.8655 10.2831 11.4692 11.0274 11.4692H13.1722V13.6137C13.1722 14.3579 13.7755 14.9613 14.5198 14.9613C15.2641 14.9613 15.8677 14.3579 15.8677 13.6137V11.4692H18.0122C18.7565 11.4692 19.3598 10.8655 19.3598 10.1213C19.3598 9.37697 18.7565 8.77366 18.0122 8.77366Z" fill="white"/>
<path d="M24.0471 17.3398H5.50118C5.16014 17.3398 4.88403 17.616 4.88403 17.9567C4.88403 18.2977 5.16014 18.5738 5.50118 18.5738H24.0471C24.3878 18.5738 24.6642 18.2977 24.6642 17.9567C24.6642 17.616 24.3878 17.3398 24.0471 17.3398Z" fill="#E3EBFF"/>
<path d="M5.50118 23.121H19.5514C19.8922 23.121 20.1686 22.8449 20.1686 22.5039C20.1686 22.1631 19.8922 21.8867 19.5514 21.8867H5.50118C5.16014 21.8867 4.88403 22.1631 4.88403 22.5039C4.88403 22.8449 5.16014 23.121 5.50118 23.121Z" fill="#E3EBFF"/>
<path d="M5.50106 27.6637H19.5513C19.8921 27.6637 20.1685 27.3876 20.1685 27.0468C20.1685 26.7058 19.8921 26.4297 19.5513 26.4297H5.50106C5.16002 26.4297 4.88391 26.7058 4.88391 27.0468C4.88391 27.3876 5.16002 27.6637 5.50106 27.6637Z" fill="#E3EBFF"/>
<path d="M19.5805 30.9766H5.50118C5.16014 30.9766 4.88403 31.253 4.88403 31.5937C4.88403 31.9347 5.16014 32.2109 5.50118 32.2109H19.5805C19.9212 32.2109 20.1977 31.9347 20.1977 31.5937C20.1977 31.253 19.9212 30.9766 19.5805 30.9766Z" fill="#E3EBFF"/>
<path d="M13.7594 37.1798H12.0004C11.7163 37.1798 11.7172 37.2045 10.0432 37.8257C10.0432 36.7899 9.13327 36.3316 8.40883 36.605L5.28322 37.7842C4.96444 37.9045 4.80335 38.2607 4.92394 38.5795C5.04421 38.8982 5.40071 39.0593 5.71887 38.9387L8.80893 37.7731C8.80893 38.7922 9.70125 39.2696 10.4371 38.9959L12.0053 38.4137H13.7594C14.1004 38.4137 14.3765 38.1376 14.3765 37.7969C14.3765 37.4559 14.1001 37.1798 13.7594 37.1798Z" fill="#E3EBFF"/>
<path d="M23.6444 22.8789H41.4763C41.6905 22.8789 41.8726 23.0301 41.9062 23.2361C42.4417 26.511 43.6536 39.2179 32.962 43.915C32.7071 44.0269 32.4139 44.0269 32.1587 43.915C21.4671 39.2179 22.679 26.5113 23.2145 23.2361C23.2481 23.0301 23.4302 22.8789 23.6444 22.8789Z" fill="#B0A3E4"/>
<path d="M32.4463 41.3325C32.5174 41.37 32.6021 41.37 32.6731 41.3325C36.0038 39.5679 38.1625 36.5054 39.094 32.2202C39.7059 29.4054 39.6499 26.6472 39.504 24.8763C39.493 24.7426 39.3852 24.6406 39.2561 24.6406H25.8634C25.7342 24.6406 25.6265 24.7426 25.6155 24.8763C25.4696 26.6469 25.4135 29.4054 26.0255 32.2202C26.9572 36.5054 29.1157 39.5679 32.4463 41.3325Z" fill="#B0A3E4"/>
<path d="M42.3457 23.2361C42.3121 23.0301 42.13 22.8789 41.9158 22.8789H34.7598C35.0531 26.5691 35.6398 35.6389 28.1598 40.9541C29.3434 42.1119 30.803 43.1264 32.5982 43.915C32.8534 44.0269 33.1466 44.0269 33.4015 43.915C44.0931 39.2179 42.8811 26.511 42.3457 23.2361Z" fill="#7D6BC7"/>
<path d="M38.4536 27.5653C38.0996 27.1864 37.5249 27.1867 37.1704 27.5653L31.3954 33.7392L28.8286 30.9953C28.4742 30.6164 27.8997 30.6164 27.5452 30.9953C27.1908 31.3742 27.1908 31.9884 27.5452 32.3673L30.7536 35.797C30.9307 35.9863 31.1629 36.0813 31.3951 36.0813C31.6274 36.0813 31.8598 35.9866 32.0369 35.797L38.4536 28.9373C38.808 28.5586 38.808 27.9442 38.4536 27.5653Z" fill="white"/>
</svg>
