<svg width="44" height="44" viewBox="0 0 44 44" fill="none" xmlns="http://www.w3.org/2000/svg">
<path d="M8.04284 41.1813L35.0669 41.4171C37.3107 41.4171 39.1296 39.5982 39.1296 37.3544L39.0628 7.31684C39.0628 5.99035 39.1489 3.75737 38.1655 3.01592C37.4854 2.50319 36.6392 2.19922 35.7219 2.19922H8.28758C6.0438 2.19922 4.22482 4.0182 4.22482 6.26198V25.1253V37.7418C4.22482 39.9856 5.79906 41.1813 8.04284 41.1813Z" fill="#BAC9F3"/>
<path d="M35.7347 40.2102H16.2818H5.06022C5.8024 41.1783 6.98889 41.8051 8.27526 41.8036H35.7347C35.7655 41.8036 35.7956 41.8036 35.8265 41.802C38.022 41.7468 39.7844 39.9494 39.7844 37.7409V6.26096C39.7844 4.93406 39.149 3.75586 38.165 3.01562V37.8189C38.165 39.1393 37.077 40.2102 35.7347 40.2102Z" fill="#8596C6"/>
<path d="M30.1076 27.8203L34.9518 27.8826C35.6249 27.8826 36.1707 27.3369 36.1707 26.6638L36.1551 21.6899C36.1551 21.0168 35.9343 20.0645 35.2611 20.0645H29.6249C28.9518 20.0645 28.4061 20.6102 28.4061 21.2833V26.9195C28.4061 27.5926 29.4345 27.8203 30.1076 27.8203Z" fill="#B0A3E4"/>
<path d="M35.2689 26.5235V20.0645C35.9377 20.0645 36.48 20.6067 36.48 21.2756V26.9273C36.48 27.5962 35.9378 28.1384 35.2689 28.1384H29.6172C28.9483 28.1384 28.4061 27.5962 28.4061 26.9273H34.8652C35.0882 26.9272 35.2689 26.7465 35.2689 26.5235Z" fill="#7D6BC7"/>
<path d="M19.6113 27.8203L24.4555 27.8826C25.1286 27.8826 25.6743 27.3369 25.6743 26.6638L25.6588 21.6899C25.6588 21.0168 25.4379 20.0645 24.7647 20.0645H19.1286C18.4554 20.0645 17.9097 20.6102 17.9097 21.2833V26.9195C17.9098 27.5926 18.9382 27.8203 19.6113 27.8203Z" fill="#B0A3E4"/>
<path d="M24.7725 26.5235V20.0645C25.4413 20.0645 25.9836 20.6067 25.9836 21.2756V26.9273C25.9836 27.5962 25.4414 28.1384 24.7725 28.1384H19.1208C18.4519 28.1384 17.9097 27.5962 17.9097 26.9273H24.3688C24.5918 26.9272 24.7725 26.7465 24.7725 26.5235Z" fill="#7D6BC7"/>
<path d="M30.1076 38.3321L34.9518 38.3943C35.6249 38.3943 36.1707 37.8486 36.1707 37.1755L36.1551 32.2016C36.1551 31.5285 35.9343 30.5762 35.2611 30.5762H29.6249C28.9518 30.5762 28.4061 31.1219 28.4061 31.795V37.4312C28.4061 38.1044 29.4345 38.3321 30.1076 38.3321Z" fill="#B0A3E4"/>
<path d="M35.2689 37.0352V30.5762C35.9377 30.5762 36.48 31.1184 36.48 31.7873V37.439C36.48 38.1079 35.9378 38.6501 35.2689 38.6501H29.6172C28.9483 38.6501 28.4061 38.1079 28.4061 37.439H34.8652C35.0882 37.4389 35.2689 37.2581 35.2689 37.0352Z" fill="#7D6BC7"/>
<path d="M19.6115 38.3321L24.4557 38.3943C25.1289 38.3943 25.6746 37.8486 25.6746 37.1755L25.659 32.2016C25.659 31.5285 25.4382 30.5762 24.765 30.5762H19.1288C18.4557 30.5762 17.91 31.1219 17.91 31.795V37.4312C17.9101 38.1044 18.9384 38.3321 19.6115 38.3321Z" fill="#B0A3E4"/>
<path d="M24.7728 37.0352V30.5762C25.4416 30.5762 25.9839 31.1184 25.9839 31.7873V37.439C25.9839 38.1079 25.4417 38.6501 24.7728 38.6501H19.1211C18.4522 38.6501 17.91 38.1079 17.91 37.439H24.369C24.5921 37.4389 24.7728 37.2581 24.7728 37.0352Z" fill="#7D6BC7"/>
<path d="M35.8265 41.8033C38.0212 41.7562 39.7844 39.9913 39.7844 37.8202V37.7422C39.7844 39.9507 38.022 41.7481 35.8265 41.8033Z" fill="#DCE6EB"/>
<path d="M4.71776 39.7266C5.36943 40.9015 6.60532 41.7189 8.04272 41.7978C6.63051 41.7133 5.41168 40.908 4.75189 39.7444C4.74051 39.7388 4.72913 39.7323 4.71776 39.7266Z" fill="#DCE6EB"/>
<path d="M9.98718 14.8398L34.4226 15.0265C35.3201 15.0265 36.0477 14.2989 36.0477 13.4014L36.103 7.64779C36.103 6.8753 36.0315 5.68849 35.3092 5.52329C35.1922 5.49656 35.0704 5.48242 34.9454 5.48242H8.94817C8.05062 5.48242 7.32306 6.20998 7.32306 7.10753V13.6483C7.32306 13.8045 7.34509 13.9556 7.3862 14.0985C7.58146 14.777 9.24581 14.8398 9.98718 14.8398Z" fill="#E3EBFF"/>
<path d="M7.72957 14.1435H34.5397C34.9884 14.1435 35.3521 13.8063 35.3521 13.3903V5.85878C35.3521 5.74266 35.3366 5.63004 35.3098 5.52148C36.0318 5.67481 36.5708 6.27277 36.5708 6.98855V13.7669C36.5708 14.5988 35.8433 15.2733 34.9459 15.2733H8.94824C8.17615 15.2733 7.53115 14.7735 7.36571 14.1042C7.48288 14.1291 7.60436 14.1435 7.72957 14.1435Z" fill="#A4B6E6"/>
<path d="M8.63277 34.611H14.269C14.9421 34.611 15.4878 34.0653 15.4878 33.3922L14.6102 24.3552C14.6102 23.6821 15.0068 20.8146 14.3336 20.8146V20.0781H8.63286C7.95974 20.0781 7.41403 20.6238 7.41403 21.297V24.5905V33.3922C7.41395 34.0654 7.95957 34.611 8.63277 34.611Z" fill="#E3EBFF"/>
<path d="M23.6425 36.9126C23.7974 36.9126 23.9524 36.8535 24.0707 36.7353C24.3072 36.4988 24.3072 36.1154 24.0707 35.8789L20.6797 32.4879C20.4431 32.2514 20.0598 32.2514 19.8233 32.4879C19.5868 32.7243 19.5868 33.1078 19.8233 33.3442L23.2143 36.7353C23.3326 36.8535 23.4875 36.9126 23.6425 36.9126Z" fill="#F7F9FA"/>
<path d="M30.8282 24.7071H34.0578C34.3923 24.7071 34.6633 24.436 34.6633 24.1016C34.6633 23.7672 34.3923 23.4961 34.0578 23.4961H30.8282C30.4938 23.4961 30.2227 23.7672 30.2227 24.1016C30.2227 24.436 30.4938 24.7071 30.8282 24.7071Z" fill="#F7F9FA"/>
<path d="M32.4431 26.3234C32.7775 26.3234 33.0486 26.0523 33.0486 25.7179V22.4883C33.0486 22.1539 32.7775 21.8828 32.4431 21.8828C32.1086 21.8828 31.8376 22.154 31.8376 22.4883V25.7179C31.8375 26.0523 32.1086 26.3234 32.4431 26.3234Z" fill="#F7F9FA"/>
<path d="M30.8282 35.2188H34.0578C34.3923 35.2188 34.6633 34.9477 34.6633 34.6133C34.6633 34.2789 34.3923 34.0078 34.0578 34.0078H30.8282C30.4938 34.0078 30.2227 34.279 30.2227 34.6133C30.2227 34.9477 30.4938 35.2188 30.8282 35.2188Z" fill="#F7F9FA"/>
<path d="M20.2341 36.9298C19.8997 36.9298 19.6286 36.6587 19.6286 36.3243C19.6286 35.9899 19.8997 35.7188 20.2341 35.7188C20.5685 35.7188 20.8396 35.9899 20.8396 36.3243C20.8396 36.6587 20.5685 36.9298 20.2341 36.9298Z" fill="#F7F9FA"/>
<path d="M23.6591 33.504C23.3247 33.504 23.0536 33.2329 23.0536 32.8985C23.0536 32.5641 23.3247 32.293 23.6591 32.293C23.9935 32.293 24.2646 32.5641 24.2646 32.8985C24.2646 33.2329 23.9935 33.504 23.6591 33.504Z" fill="#F7F9FA"/>
<path d="M21.0872 24.0352L19.8931 22.8411C19.6551 22.603 19.6551 22.2172 19.8931 21.9792C20.1311 21.7413 20.517 21.7413 20.7549 21.9792L21.9491 23.1734L23.1433 21.9792C23.3813 21.7413 23.7672 21.7413 24.0051 21.9792C24.2431 22.2173 24.2431 22.6031 24.0051 22.8411L22.811 24.0352L24.0051 25.2293C24.2431 25.4674 24.2431 25.8532 24.0051 26.0912C23.8861 26.2102 23.7301 26.2697 23.5742 26.2697C23.4183 26.2697 23.2623 26.2102 23.1433 26.0912L21.9491 24.897L20.7549 26.0912C20.6359 26.2102 20.4799 26.2697 20.324 26.2697C20.1681 26.2697 20.0121 26.2102 19.8931 26.0912C19.6551 25.8531 19.6551 25.4673 19.8931 25.2293L21.0872 24.0352Z" fill="#F7F9FA"/>
<path d="M14.2767 32.9988V20.0781C14.9455 20.0781 15.4878 20.6203 15.4878 21.2892V33.4026C15.4878 34.0715 14.9456 34.6137 14.2767 34.6137H8.62497C7.95608 34.6137 7.41386 34.0715 7.41386 33.4026H13.8729C14.096 33.4025 14.2767 33.2218 14.2767 32.9988Z" fill="#A4B6E6"/>
</svg>
