<svg width="44" height="44" viewBox="0 0 44 44" fill="none" xmlns="http://www.w3.org/2000/svg">
<g clip-path="url(#clip0_1159_3321)">
<path d="M30.7999 12.9844H41.0667C42.6867 12.9844 44 14.2976 44 15.9177V33.5179C44 35.1379 42.6867 36.4512 41.0667 36.4512H37.4C36.9949 36.4512 36.6667 36.7794 36.6667 37.1845V40.5474C36.6667 41.2008 35.8768 41.5279 35.4147 41.0659L31.0147 36.6658C30.8772 36.5284 30.6907 36.4511 30.4962 36.4511H16.1332C14.5132 36.4511 13.2 35.1378 13.2 33.5178V25.8193L30.7999 12.9844Z" fill="#B0A3E4"/>
<path d="M27.8667 2.71875H2.9333C1.31327 2.71875 0 4.03202 0 5.65205V23.2522C0 24.8722 1.31327 26.1854 2.93322 26.1854H6.59991C7.00494 26.1854 7.33322 26.5138 7.33322 26.9187V30.2817C7.33322 30.9351 8.12309 31.2623 8.58513 30.8002L12.9851 26.4001C13.1226 26.2626 13.3092 26.1854 13.5037 26.1854H27.8667C29.4866 26.1854 30.7999 24.8721 30.7999 23.2521V5.65205C30.8 4.03202 29.4867 2.71875 27.8667 2.71875Z" fill="#BAC9F3"/>
<path d="M23.441 30.8166C23.5706 30.0171 23.0275 29.2639 22.228 29.1343C21.4285 29.0047 20.6753 29.5478 20.5457 30.3473C20.4161 31.1468 20.9592 31.9 21.7587 32.0296C22.5582 32.1592 23.3114 31.6161 23.441 30.8166Z" fill="#F9F5F3"/>
<path d="M16.4331 22.8221C17.0058 22.2494 17.0058 21.3209 16.4331 20.7482C15.8604 20.1755 14.9319 20.1755 14.3592 20.7482C13.7865 21.3209 13.7865 22.2494 14.3592 22.8221C14.9319 23.3948 15.8604 23.3948 16.4331 22.8221Z" fill="white"/>
<path d="M15.4001 17.3856C14.59 17.3856 13.9334 16.7289 13.9334 15.9189V14.4522C13.9334 13.1088 14.7276 11.9146 15.9566 11.4099C16.5426 11.1693 16.9068 10.5806 16.863 9.94507C16.8139 9.23372 16.2185 8.63817 15.5072 8.58912C15.0947 8.56123 14.7001 8.69925 14.3998 8.97954C14.099 9.26019 13.9334 9.64114 13.9334 10.0522C13.9334 10.8622 13.2768 11.5189 12.4667 11.5189C11.6566 11.5189 11 10.8622 11 10.0522C11 8.8371 11.5097 7.66459 12.3982 6.83514C13.2863 6.00622 14.4923 5.57853 15.7091 5.66281C17.8851 5.81296 19.6392 7.56712 19.7892 9.74321C19.9202 11.6415 18.8278 13.4019 17.0708 14.1234C16.9487 14.1735 16.8665 14.3057 16.8665 14.4522V15.9189C16.8667 16.7289 16.2101 17.3856 15.4001 17.3856Z" fill="white"/>
<path d="M36.6283 30.939C36.8146 30.1508 36.3267 29.3609 35.5385 29.1746C34.7504 28.9882 33.9604 29.4761 33.7741 30.2643C33.5878 31.0525 34.0757 31.8424 34.8639 32.0287C35.652 32.2151 36.442 31.7272 36.6283 30.939Z" fill="#F9F5F3"/>
<path d="M30.0398 30.8166C30.1694 30.0171 29.6264 29.2639 28.8269 29.1343C28.0274 29.0047 27.2742 29.5478 27.1446 30.3473C27.015 31.1468 27.558 31.9 28.3575 32.0296C29.157 32.1592 29.9102 31.6161 30.0398 30.8166Z" fill="#F9F5F3"/>
<path d="M10.8768 26.4004L7.33325 29.944V30.2819C7.33325 30.9352 8.12313 31.2625 8.58517 30.8004L12.9852 26.4003C13.1227 26.2628 13.3092 26.1855 13.5037 26.1855H11.3953C11.2008 26.1855 11.0143 26.2628 10.8768 26.4004Z" fill="#8596C6"/>
<path d="M27.8667 2.71875H25.7583C27.3783 2.71875 28.6916 4.03202 28.6916 5.65205V23.2522C28.6916 24.8723 27.3783 26.1854 25.7584 26.1854H27.8668C29.4868 26.1854 30.8 24.8722 30.8 23.2522V5.65205C30.8 4.03202 29.4867 2.71875 27.8667 2.71875Z" fill="#8596C6"/>
<path d="M34.5586 37.1845V40.2095L35.415 41.0659C35.877 41.5279 36.667 41.2007 36.667 40.5474V37.1845C36.667 36.7794 36.9953 36.4512 37.4003 36.4512H35.2919C34.8869 36.4512 34.5586 36.7794 34.5586 37.1845Z" fill="#7D6BC7"/>
<path d="M41.0669 12.9844H38.9585C40.5785 12.9844 41.8918 14.2976 41.8918 15.9177V33.5179C41.8918 35.1379 40.5785 36.4511 38.9586 36.4511H41.067C42.6869 36.4511 44.0002 35.1378 44.0002 33.5179V15.9177C44.0002 14.2976 42.6869 12.9844 41.0669 12.9844Z" fill="#7D6BC7"/>
</g>
<defs>
<clipPath id="clip0_1159_3321">
<rect width="44" height="44" fill="white"/>
</clipPath>
</defs>
</svg>
