<svg width="50" height="51" viewBox="0 0 50 51" fill="none" xmlns="http://www.w3.org/2000/svg">
<path d="M42.6342 14.7856C42.6342 14.7856 40.3263 22.6602 40.2364 23.0105C40.1339 23.4056 36.375 31.9415 36 33.4415C35.625 34.9415 35.8846 38.8288 35 42.4415C33.3491 49.1841 32.0404 49.4415 31 49.4415C28.5 48.4415 29.75 47.4415 29 41.4415C28.5 37.4415 28 33.4415 26 33.4415C24 33.4415 23.75 36.9415 23 41.4415C22.25 45.9415 23.6993 49.4415 21 49.4415C18.5 49.4415 17.8489 45.6203 17 41.9415C16.1511 38.2628 16.5 36.9415 16 33.9415C15.5 30.9415 11.8643 23.4056 11.7629 23.0093L9.3651 14.7856C9.11699 13.9387 9 13.0918 9 12.2633C9 7.55043 12.791 3.44153 17.7761 3.44153C18.6244 3.44153 19.4448 3.56352 20.22 3.78992C23.9916 4.88937 28.0081 4.88937 31.7797 3.78992C32.1671 3.67654 32.5664 3.58897 32.9735 3.53097C33.3816 3.47184 33.7987 3.44153 34.2233 3.44153C34.9546 3.44153 35.6606 3.53022 36.3321 3.69637C41.0438 4.85906 44.089 9.82867 42.6342 14.7856Z" fill="#DFD9F9"/>
<path d="M32.4885 3.61458C32.6487 3.58213 32.8104 3.55418 32.9733 3.53097C33.3815 3.47184 33.7986 3.44153 34.2231 3.44153C34.9544 3.44153 35.6604 3.53022 36.332 3.69637C41.0437 4.85906 44.0889 9.82867 42.6341 14.7856C42.6341 14.7856 40.3261 22.6602 40.2362 23.0105C40.2021 23.1421 39.7625 24.1765 39.1773 25.5532C38.0054 28.3106 36.2499 32.4411 35.9998 33.4415C35.8517 34.034 35.8026 34.9989 35.7429 36.1723C35.6514 37.9695 35.535 40.2558 34.9998 42.4415C33.3489 49.1841 32.0402 49.4415 30.9998 49.4415C29.3446 48.7794 29.3332 48.1174 29.2969 46.0042C29.2783 44.9256 29.2533 43.4691 28.9998 41.4415C28.6589 38.714 28.3179 35.9865 27.5014 34.5271C36.332 33.4415 40.9998 4.94153 32.4885 3.61458Z" fill="#BDB3E4"/>
<path d="M24.4768 34.56C23.9105 35.6687 23.6203 37.5204 23.2718 39.7437C23.1863 40.2891 23.0973 40.8569 22.9998 41.4415C22.7392 43.0051 22.7442 44.448 22.7483 45.6653C22.7538 47.2702 22.758 48.483 22.1503 49.0631C20.3226 45.6832 20.4469 35.2311 24 34.4415C24.1607 34.4865 24.3196 34.526 24.4768 34.56Z" fill="#BDB3E4"/>
<path d="M24.1583 14.1282L21.0132 13.0798L19.9649 9.93473C19.8586 9.61575 19.56 9.40051 19.2237 9.40051C18.8875 9.40051 18.5889 9.61567 18.4825 9.93473L17.4342 13.0798L14.2891 14.1282C13.9701 14.2345 13.7549 14.5331 13.7549 14.8693C13.7549 15.2056 13.97 15.5041 14.2891 15.6105L17.4342 16.6589L18.4825 19.804C18.5889 20.1229 18.8875 20.3382 19.2237 20.3382C19.56 20.3382 19.8585 20.123 19.9649 19.804L21.0132 16.6589L24.1583 15.6105C24.4773 15.5042 24.6925 15.2056 24.6925 14.8693C24.6925 14.5331 24.4774 14.2346 24.1583 14.1282ZM20.1486 15.3C19.9153 15.3778 19.7321 15.5608 19.6544 15.7942L19.2237 17.0864L18.793 15.7942C18.7153 15.5609 18.5322 15.3778 18.2989 15.3L17.0067 14.8693L18.2989 14.4386C18.5321 14.3609 18.7153 14.1779 18.793 13.9445L19.2237 12.6523L19.6544 13.9445C19.7321 14.1778 19.9152 14.3609 20.1486 14.4386L21.4407 14.8693L20.1486 15.3Z" fill="#7D6BC7"/>
<path d="M10.5604 25.3317L7.97251 24.469L7.10987 21.8811C7.02238 21.6186 6.77668 21.4415 6.5 21.4415C6.22332 21.4415 5.97769 21.6186 5.89013 21.8811L5.02749 24.469L2.43958 25.3317C2.1771 25.4191 2 25.6648 2 25.9415C2 26.2182 2.17704 26.4638 2.43958 26.5514L5.02749 27.414L5.89013 30.0019C5.97762 30.2644 6.22332 30.4415 6.5 30.4415C6.77668 30.4415 7.02231 30.2645 7.10987 30.0019L7.97251 27.414L10.5604 26.5514C10.8229 26.4639 11 26.2182 11 25.9415C11 25.6648 10.823 25.4192 10.5604 25.3317ZM7.261 26.2959C7.06905 26.3599 6.91836 26.5105 6.8544 26.7025L6.5 27.7658L6.1456 26.7025C6.08163 26.5106 5.93101 26.3599 5.739 26.2959L4.67573 25.9415L5.739 25.5871C5.93095 25.5232 6.08163 25.3725 6.1456 25.1805L6.5 24.1173L6.8544 25.1805C6.91836 25.3725 7.06898 25.5232 7.261 25.5871L8.32427 25.9415L7.261 26.2959Z" fill="#8596C6"/>
<path d="M7.261 26.2959C7.06905 26.3599 6.91836 26.5105 6.8544 26.7025L6.5 27.7658L6.1456 26.7025C6.08163 26.5106 5.93101 26.3599 5.739 26.2959L4.67573 25.9415L5.739 25.5871C5.93095 25.5232 6.08163 25.3725 6.1456 25.1805L6.5 24.1173L6.8544 25.1805C6.91836 25.3725 7.06898 25.5232 7.261 25.5871L8.32427 25.9415L7.261 26.2959Z" fill="#8596C6"/>
</svg>
