<svg width="50" height="51" viewBox="0 0 50 51" fill="none" xmlns="http://www.w3.org/2000/svg">
<g clip-path="url(#clip0_1470_1293)">
<path d="M23.7036 1.44153C20.1299 1.44153 16.7026 2.86117 14.1756 5.38814C11.6486 7.91511 10.229 11.3424 10.229 14.9161V23.45H25.5002V3.23814C25.5002 2.76165 25.3109 2.30467 24.974 1.96774C24.637 1.63081 24.1801 1.44153 23.7036 1.44153Z" fill="#BAC9F3"/>
<path d="M27.2966 1.44153C30.8703 1.44153 34.2976 2.86117 36.8246 5.38814C39.3515 7.91511 40.7712 11.3424 40.7712 14.9161V23.45H25.5V3.23814C25.5 2.76165 25.6893 2.30467 26.0262 1.96774C26.3631 1.63081 26.8201 1.44153 27.2966 1.44153Z" fill="#8596C6"/>
<path d="M12.6002 20.7557C12.6002 20.7557 12.6002 18.9591 10.3544 18.9591C8.10867 18.9591 6.76121 26.5947 12.6002 29.7388V20.7557Z" fill="#BDB3E4"/>
<path d="M38.3994 20.7557C38.3994 20.7557 38.3994 18.9591 40.6452 18.9591C42.8909 18.9591 44.2384 26.5947 38.3994 29.7388V20.7557Z" fill="#BDB3E4"/>
<path d="M12.6002 22.5526C12.6002 22.5526 11.7019 20.756 10.8036 20.756C9.90527 20.756 9.90527 23.0017 9.90527 23.0017L12.6002 27.0441V22.5526Z" fill="#7D6BC7"/>
<path d="M38.3994 22.5526C38.3994 22.5526 39.2977 20.756 40.196 20.756C41.0943 20.756 41.0943 23.0017 41.0943 23.0017L38.3994 27.0441V22.5526Z" fill="#7D6BC7"/>
<path d="M17.8644 33.3322V46.8067C17.8553 47.1978 17.7188 47.5753 17.4756 47.8817C17.2323 48.1882 16.8958 48.4068 16.517 48.5045L-1 53.0949V54.4423H52V53.0949L34.4831 48.5045C34.1042 48.4068 33.7677 48.1882 33.5245 47.8817C33.2812 47.5753 33.1447 47.1978 33.1356 46.8067V33.3322H17.8644Z" fill="#BDB3E4"/>
<path d="M39.4236 24.797C39.4236 31.0851 31.3389 43.6614 25.4999 43.6614C19.6609 43.6614 11.5762 31.0851 11.5762 24.797C11.5762 15.1222 15.8252 11.3224 25.4999 11.3224C35.1746 11.3224 39.4236 15.1222 39.4236 24.797Z" fill="#BDB3E4"/>
<path d="M18.763 27.4917C17.9472 27.5678 17.1318 27.3432 16.47 26.8601C15.8083 26.377 15.3459 25.6688 15.1698 24.8687C15.1507 24.7495 15.1798 24.6277 15.2505 24.53C15.3213 24.4323 15.4279 24.3667 15.5471 24.3476C15.6662 24.3286 15.788 24.3576 15.8857 24.4284C15.9834 24.4991 16.049 24.6058 16.0681 24.7249C16.0681 24.7968 16.4094 26.5934 18.763 26.5934C21.1166 26.5934 21.4579 24.7968 21.4579 24.7249C21.477 24.6058 21.5426 24.4991 21.6403 24.4284C21.738 24.3576 21.8598 24.3286 21.9789 24.3476C22.0981 24.3667 22.2047 24.4323 22.2755 24.53C22.3462 24.6277 22.3753 24.7495 22.3562 24.8687C22.1801 25.6688 21.7177 26.377 21.056 26.8601C20.3942 27.3432 19.5788 27.5678 18.763 27.4917V27.4917Z" fill="#7D6BC7"/>
<path d="M32.2371 27.4917C31.4214 27.5678 30.6059 27.3432 29.9441 26.8601C29.2824 26.377 28.82 25.6688 28.6439 24.8687C28.6248 24.7495 28.6539 24.6277 28.7246 24.53C28.7954 24.4323 28.9021 24.3667 29.0212 24.3476C29.1403 24.3286 29.2621 24.3576 29.3598 24.4284C29.4575 24.4991 29.5231 24.6058 29.5422 24.7249C29.5422 24.7968 29.8836 26.5934 32.2371 26.5934C34.5907 26.5934 34.932 24.7968 34.932 24.7249C34.9511 24.6058 35.0167 24.4991 35.1144 24.4284C35.2121 24.3576 35.3339 24.3286 35.4531 24.3476C35.5722 24.3667 35.6788 24.4323 35.7496 24.53C35.8204 24.6277 35.8494 24.7495 35.8303 24.8687C35.6542 25.6688 35.1918 26.377 34.5301 26.8601C33.8683 27.3432 33.0529 27.5678 32.2371 27.4917V27.4917Z" fill="#7D6BC7"/>
<path d="M25.5001 38.2725C22.5177 38.2725 21.9518 36.6825 21.9068 36.6196C21.8675 36.5064 21.8748 36.3823 21.927 36.2744C21.9792 36.1666 22.0722 36.084 22.1853 36.0447C22.2985 36.0054 22.4226 36.0126 22.5305 36.0648C22.6383 36.1171 22.7209 36.21 22.7602 36.3231C22.7602 36.377 23.2094 37.3742 25.4552 37.3742C27.7009 37.3742 28.1501 36.3681 28.1501 36.3231C28.1924 36.2128 28.2764 36.1236 28.3841 36.0749C28.4917 36.0261 28.6142 36.0217 28.725 36.0626C28.7798 36.0809 28.8306 36.1098 28.8743 36.1477C28.918 36.1856 28.9538 36.2317 28.9796 36.2834C29.0055 36.3351 29.0209 36.3914 29.025 36.4491C29.0291 36.5068 29.0218 36.5647 29.0035 36.6196C29.0484 36.6825 28.4824 38.2725 25.5001 38.2725V38.2725Z" fill="#7D6BC7"/>
<path d="M25.5 13.5686C18.3136 13.5686 12.4746 20.0005 12.4746 27.9415C12.4746 35.8825 20.3977 43.6618 25.5 43.6618C30.6024 43.6618 38.5255 35.8825 38.5255 27.9415C38.5255 20.0005 32.6865 13.5686 25.5 13.5686ZM14.2712 25.2466C14.2712 23.5128 16.2834 22.1025 18.7627 22.1025C21.2421 22.1025 23.2543 23.5128 23.2543 25.2466C23.2543 26.9803 21.2421 28.3906 18.7627 28.3906C16.2834 28.3906 14.2712 26.9803 14.2712 25.2466ZM25.5 39.6195C22.5266 39.6195 20.1102 38.5145 20.1102 37.1491C20.1102 35.7837 22.5266 34.6788 25.5 34.6788C28.4734 34.6788 30.8899 35.7837 30.8899 37.1491C30.8899 38.5145 28.4734 39.6195 25.5 39.6195ZM32.2373 28.3906C29.758 28.3906 27.7458 26.9803 27.7458 25.2466C27.7458 23.5128 29.758 22.1025 32.2373 22.1025C34.7166 22.1025 36.7288 23.5128 36.7288 25.2466C36.7288 26.9803 34.7166 28.3906 32.2373 28.3906Z" fill="#E8E1FF"/>
<path d="M23.7033 30.6368L22.805 32.8826H28.1948L27.2965 30.6368L29.5423 34.2301H21.4575L23.7033 30.6368Z" fill="#BDB3E4"/>
</g>
<defs>
<clipPath id="clip0_1470_1293">
<rect width="50" height="50" fill="white" transform="translate(0 0.441528)"/>
</clipPath>
</defs>
</svg>
