<svg width="32" height="32" viewBox="0 0 32 32" fill="none" xmlns="http://www.w3.org/2000/svg">
<path d="M3.40144 14.6087C3.69817 14.8768 3.90042 15.2335 3.97813 15.6258C4.05584 16.0181 4.00485 16.4251 3.83275 16.7861C3.72119 17.018 3.65964 17.2708 3.65207 17.5281C3.64451 17.7853 3.69111 18.0413 3.78884 18.2794C3.88657 18.5175 4.03325 18.7324 4.21938 18.9102C4.40551 19.0879 4.62693 19.2246 4.86926 19.3113C5.26382 19.4499 5.60003 19.7176 5.82349 20.0711C6.04695 20.4246 6.14458 20.8432 6.10056 21.2591C6.10052 21.5224 6.15646 21.7827 6.26469 22.0228C6.37291 22.2628 6.53094 22.4771 6.7283 22.6515C6.92565 22.8258 7.15781 22.9562 7.40939 23.0339C7.66097 23.1117 7.92621 23.1351 8.18751 23.1025C8.56781 23.1058 8.93766 23.2274 9.24561 23.4506C9.55356 23.6738 9.78431 23.9874 9.90577 24.3478C9.99073 24.5931 10.1268 24.8177 10.3049 25.0067C10.483 25.1956 10.6992 25.3446 10.9391 25.4439C11.1791 25.5432 11.4374 25.5904 11.6969 25.5825C11.9565 25.5747 12.2114 25.5118 12.4449 25.3982C12.8025 25.2295 13.2043 25.1783 13.5927 25.2521C14.7266 25.4399 14.6849 26.4347 15.9997 26.4347C17.3144 26.4347 17.2727 25.4399 18.4066 25.2382C18.795 25.1619 19.1976 25.2132 19.5544 25.3843C19.787 25.4982 20.0411 25.5617 20.2999 25.5704C20.5588 25.5792 20.8166 25.5332 21.0564 25.4353C21.2962 25.3374 21.5125 25.1899 21.6913 25.0025C21.87 24.815 22.0071 24.5919 22.0935 24.3478C22.2181 23.9877 22.452 23.6756 22.7625 23.4548C23.073 23.2341 23.4447 23.1158 23.8257 23.1165C24.096 23.1506 24.3704 23.1248 24.6296 23.041C24.8888 22.9572 25.1264 22.8174 25.3256 22.6315C25.5247 22.4457 25.6806 22.2183 25.782 21.9655C25.8835 21.7127 25.9281 21.4406 25.9127 21.1686C25.885 20.7686 25.989 20.3705 26.2088 20.0351C26.4286 19.6997 26.7522 19.4455 27.1301 19.3113C27.3761 19.2272 27.6014 19.0917 27.791 18.9138C27.9806 18.7358 28.1301 18.5195 28.2295 18.2792C28.3289 18.039 28.3759 17.7803 28.3675 17.5204C28.359 17.2605 28.2953 17.0054 28.1805 16.7721C28.0089 16.4144 27.9569 16.011 28.0321 15.6215C28.1072 15.232 28.3056 14.8769 28.5979 14.6087C28.7969 14.4356 28.9566 14.2219 29.0659 13.9819C29.1753 13.7418 29.2319 13.4811 29.2319 13.2174C29.2319 12.9536 29.1753 12.6929 29.0659 12.4529C28.9566 12.2129 28.7969 11.9991 28.5979 11.8261C28.3012 11.5579 28.0989 11.2012 28.0212 10.8089C27.9435 10.4166 27.9945 10.0097 28.1666 9.64869C28.2781 9.41674 28.3397 9.16394 28.3472 8.90668C28.3548 8.64941 28.3082 8.39343 28.2105 8.15533C28.1127 7.91723 27.9661 7.70234 27.7799 7.52458C27.5938 7.34682 27.3724 7.21016 27.1301 7.12348C26.7355 6.98483 26.3993 6.7171 26.1758 6.3636C25.9524 6.0101 25.8547 5.59154 25.8988 5.17566C25.8988 4.91234 25.8429 4.65201 25.7346 4.41196C25.6264 4.1719 25.4684 3.9576 25.271 3.78327C25.0737 3.60894 24.8415 3.47857 24.5899 3.4008C24.3383 3.32303 24.0731 3.29964 23.8118 3.33219C23.4315 3.32897 23.0617 3.20731 22.7537 2.98414C22.4458 2.76097 22.215 2.44738 22.0935 2.08698C21.968 1.72565 21.7331 1.41234 21.4215 1.19047C21.1099 0.968606 20.737 0.84917 20.3544 0.848719C19.6588 0.848719 19.4849 1.21741 18.7475 1.21741C17.3353 1.23133 17.391 2.69008e-05 15.9997 2.69008e-05C15.7371 -0.00138878 15.4772 0.0530869 15.2374 0.159834C14.9975 0.266582 14.7831 0.423156 14.6084 0.619155C14.3409 0.916835 13.9841 1.11977 13.5915 1.19754C13.1989 1.2753 12.7917 1.22369 12.431 1.05046C12.199 0.938905 11.9462 0.877351 11.689 0.869787C11.4317 0.862222 11.1757 0.908817 10.9376 1.00655C10.6995 1.10428 10.4846 1.25097 10.3069 1.4371C10.1291 1.62322 9.99245 1.84464 9.90577 2.08698C9.76712 2.48153 9.49938 2.81774 9.14589 3.0412C8.79239 3.26466 8.37383 3.36229 7.95795 3.31828C7.69462 3.31823 7.4343 3.37417 7.19425 3.4824C6.95419 3.59062 6.73989 3.74865 6.56556 3.94601C6.39123 4.14336 6.26086 4.37553 6.18309 4.6271C6.10532 4.87868 6.08193 5.14392 6.11448 5.40522C6.11126 5.78553 5.9896 6.15537 5.76643 6.46332C5.54326 6.77127 5.22966 7.00202 4.86926 7.12348C4.50794 7.24906 4.19463 7.48394 3.97276 7.79555C3.75089 8.10716 3.63146 8.48008 3.63101 8.8626C3.63101 9.55825 3.9997 9.73216 3.9997 10.4696C4.01362 11.8817 2.78232 11.8261 2.78232 13.2174C2.7809 13.4799 2.83538 13.7398 2.94212 13.9797C3.04887 14.2195 3.20544 14.434 3.40144 14.6087V14.6087Z" fill="#8596C6"/>
<path d="M3.40142 14.6087C3.69814 14.8768 3.9004 15.2335 3.97811 15.6258C4.05581 16.0181 4.00483 16.4251 3.83272 16.7861C3.72117 17.018 3.65962 17.2708 3.65205 17.5281C3.64449 17.7853 3.69108 18.0413 3.78882 18.2794C3.88655 18.5175 4.03323 18.7324 4.21936 18.9102C4.40549 19.0879 4.6269 19.2246 4.86924 19.3113C5.22482 19.4343 5.53384 19.6639 5.75417 19.9689C5.97451 20.2739 6.09546 20.6394 6.10054 21.0156C8.41104 23.1655 11.4524 24.3566 14.6083 24.3478C25.5509 24.3478 31.1578 11.2556 23.7979 3.33219C23.42 3.3261 23.0532 3.20312 22.748 2.98015C22.4428 2.75718 22.2142 2.44516 22.0935 2.08698C21.9688 1.72508 21.7342 1.41119 21.4224 1.18918C21.1106 0.967173 20.7372 0.848139 20.3544 0.84872C19.6588 0.84872 19.4848 1.21741 18.7475 1.21741C17.3353 1.23133 17.3909 2.69008e-05 15.9996 2.69008e-05C15.7371 -0.00138878 15.4772 0.0530869 15.2373 0.159834C14.9975 0.266582 14.783 0.423157 14.6083 0.619155C14.3409 0.916835 13.9841 1.11977 13.5915 1.19754C13.1989 1.2753 12.7917 1.22369 12.431 1.05046C12.199 0.938905 11.9462 0.877351 11.6889 0.869787C11.4317 0.862222 11.1757 0.908817 10.9376 1.00655C10.6995 1.10428 10.4846 1.25097 10.3068 1.4371C10.1291 1.62322 9.99243 1.84464 9.90575 2.08698C9.7671 2.48153 9.49936 2.81774 9.14587 3.0412C8.79237 3.26466 8.37381 3.36229 7.95793 3.31828C7.6946 3.31823 7.43428 3.37417 7.19423 3.4824C6.95417 3.59062 6.73987 3.74865 6.56554 3.94601C6.39121 4.14336 6.26084 4.37553 6.18307 4.6271C6.1053 4.87868 6.08191 5.14392 6.11446 5.40523C6.11123 5.78553 5.98958 6.15537 5.76641 6.46332C5.54323 6.77127 5.22964 7.00202 4.86924 7.12348C4.50792 7.24906 4.19461 7.48394 3.97274 7.79555C3.75087 8.10716 3.63144 8.48008 3.63099 8.8626C3.63099 9.55825 3.99968 9.73217 3.99968 10.4696C4.01359 11.8817 2.78229 11.8261 2.78229 13.2174C2.78088 13.4799 2.83535 13.7398 2.9421 13.9797C3.04885 14.2195 3.20542 14.434 3.40142 14.6087V14.6087Z" fill="#BAC9F3"/>
<path d="M6.9561 13.2175C6.9561 14.4051 7.19002 15.581 7.6445 16.6782C8.09897 17.7754 8.76511 18.7724 9.60487 19.6122C10.4446 20.4519 11.4416 21.118 12.5388 21.5725C13.636 22.027 14.8119 22.2609 15.9995 22.2609C24.5073 22.2609 28.3056 11.4783 21.6552 6.17054C20.326 5.10531 18.7231 4.4371 17.0309 4.24284C15.3387 4.04859 13.626 4.3362 12.0901 5.07255C10.5541 5.8089 9.25736 6.96405 8.34908 8.40501C7.44081 9.84597 6.95795 11.5141 6.9561 13.2175V13.2175Z" fill="#7D6BC7"/>
<path d="M6.95627 13.2175C6.95231 15.2761 7.65733 17.2732 8.95278 18.8731C10.6916 20.2474 12.8745 20.9353 15.0871 20.8062C17.2997 20.677 19.3878 19.7399 20.955 18.1727C22.5222 16.6056 23.4593 14.5174 23.5884 12.3049C23.7175 10.0923 23.0296 7.90937 21.6553 6.17054C20.3262 5.10531 18.7233 4.4371 17.031 4.24284C15.3388 4.04859 13.6262 4.3362 12.0902 5.07255C10.5543 5.8089 9.25752 6.96405 8.34925 8.40501C7.44097 9.84597 6.95812 11.5141 6.95627 13.2175V13.2175Z" fill="#B0A3E4"/>
<path d="M18.4067 25.2382L22.3093 31.9999L23.7006 28.7999L27.1301 29.2173C25.5023 26.386 26.2814 27.7425 23.6101 23.1165C23.2671 23.1582 22.9429 23.2959 22.6746 23.5138C22.4063 23.7316 22.205 24.0206 22.0936 24.3478C22.0147 24.5773 21.8911 24.789 21.7299 24.9705C21.5687 25.152 21.3732 25.2997 21.1545 25.4052C20.9359 25.5106 20.6985 25.5717 20.4561 25.5848C20.2137 25.5979 19.9711 25.5629 19.7423 25.4817C19.3401 25.2447 18.8667 25.1584 18.4067 25.2382Z" fill="#7D6BC7"/>
<path d="M19.7422 25.4678L22.3091 29.913L23.7004 26.713L25.8569 26.9704L23.6309 23.1165C23.2841 23.1545 22.9554 23.2905 22.6831 23.5086C22.4109 23.7266 22.2063 24.0177 22.0935 24.3478C22.0132 24.5761 21.8886 24.7863 21.7268 24.9663C21.565 25.1463 21.3692 25.2926 21.1507 25.3966C20.9322 25.5007 20.6953 25.5606 20.4535 25.5728C20.2118 25.585 19.9701 25.5493 19.7422 25.4678Z" fill="#B0A3E4"/>
<path d="M4.86922 29.2173L8.34746 28.7999L9.73876 31.9999L13.6414 25.2382C12.8205 25.0295 12.4518 25.5721 11.6935 25.5721C11.3044 25.5829 10.9219 25.4703 10.6008 25.2503C10.2796 25.0304 10.0363 24.7144 9.90572 24.3478C9.79223 24.0232 9.58992 23.7371 9.32182 23.5219C9.05372 23.3066 8.73059 23.171 8.3892 23.1304L4.86922 29.2173Z" fill="#7D6BC7"/>
<path d="M12.563 18.2401L15.9995 16.4314L19.436 18.2401L18.7821 14.4071L21.5647 11.6941L17.7178 11.1375L15.9995 7.65234L14.2812 11.1306L10.4343 11.6871L13.2169 14.4001C12.8969 16.2714 13.043 15.4297 12.563 18.2401Z" fill="#E9F0FF"/>
<path d="M13.217 14.4071L12.9596 15.9097C13.6533 16.0485 14.3688 16.0345 15.0564 15.8687C15.7441 15.703 16.3874 15.3893 16.9416 14.9497C17.4957 14.5101 17.9475 13.955 18.2653 13.3231C18.5832 12.6912 18.7596 11.9976 18.7822 11.2906L17.7179 11.1306L15.9996 7.65234L14.2814 11.1306L10.4344 11.6871L13.217 14.4071Z" fill="#E9F0FF"/>
<path d="M12.2571 25.4678L9.69013 29.913L8.29883 26.713L6.14232 26.9704L8.3684 23.1165C8.71513 23.1545 9.04386 23.2905 9.31612 23.5086C9.58838 23.7266 9.79292 24.0177 9.90578 24.3478C9.98606 24.5761 10.1107 24.7863 10.2725 24.9663C10.4343 25.1463 10.6301 25.2926 10.8486 25.3966C11.0671 25.5007 11.304 25.5606 11.5457 25.5728C11.7874 25.585 12.0292 25.5493 12.2571 25.4678Z" fill="#B0A3E4"/>
</svg>
