<svg width="32" height="32" viewBox="0 0 32 32" fill="none" xmlns="http://www.w3.org/2000/svg">
<path d="M31.9588 31.3485L27.3476 20.1856C27.2751 20.0101 27.105 19.8958 26.9163 19.8958H5.08366C4.89497 19.8958 4.72478 20.0101 4.65235 20.1856L0.041032 31.3485C-0.0190305 31.4938 -0.00303051 31.6597 0.0837195 31.7906C0.170407 31.9215 0.31622 32.0001 0.472407 32.0001H31.5275C31.6837 32.0001 31.8295 31.9214 31.9162 31.7906C32.0029 31.6598 32.0188 31.4938 31.9588 31.3485Z" fill="#BAC9F3"/>
<path d="M30.0399 32.0001H31.5274C31.6835 32.0001 31.8294 31.9214 31.9161 31.7906C32.0028 31.6598 32.0188 31.4938 31.9588 31.3485L27.3475 20.1856C27.275 20.0101 27.1049 19.8958 26.9162 19.8958H25.0398L30.0399 32.0001Z" fill="#8596C6"/>
<path d="M7.69784 24.1058L9.28902 19.8853H5.05409C4.8654 19.8853 4.69521 19.9996 4.62277 20.1751L2.99902 24.1058H7.69784Z" fill="#BAC9F3"/>
<path d="M26.8866 19.8853H12.1819L16.4708 23.6252H28.7432L27.318 20.1751C27.2454 19.9997 27.0753 19.8853 26.8866 19.8853Z" fill="#BAC9F3"/>
<path d="M28.8535 23.8918L28.9419 24.1057L28.8535 23.8918Z" fill="#BAC9F3"/>
<path d="M30.1613 27.0581L28.7433 23.6252H16.4709L12.182 19.8853H9.30485H8.93873L7.38623 23.6243H3.19804L2.25729 25.9015L1.77954 27.0581H5.97217L3.9351 31.9896H7.74629L11.0182 23.9787L20.4535 31.9896H26.024L20.385 27.0581H30.1613Z" fill="#E3EBFF"/>
<path d="M7.74634 31.9897H20.4536L11.0182 23.9788L7.74634 31.9897Z" fill="#BAC9F3"/>
<path d="M26.5552 23.6252L27.9732 27.0581H30.1612L28.7432 23.6252H26.5552Z" fill="#CCD3E5"/>
<path d="M26.5551 23.6251H28.7432L27.318 20.1751C27.2455 19.9996 27.0754 19.8853 26.8867 19.8853H25.0103L26.5551 23.6251Z" fill="#8596C6"/>
<path d="M16.0301 1.28003C10.9499 1.28003 6.81689 5.40965 6.81689 10.4857C6.81689 13.6256 8.30764 16.9967 11.2478 20.5053C13.4073 23.0823 15.5374 24.7398 15.6271 24.8091C15.7457 24.9009 15.8879 24.9467 16.0301 24.9467C16.1723 24.9467 16.3146 24.9009 16.4332 24.8091C16.5228 24.7398 18.653 23.0823 20.8125 20.5053C23.7527 16.9967 25.2434 13.6257 25.2434 10.4857C25.2432 5.40965 21.1102 1.28003 16.0301 1.28003ZM19.4421 10.4856C19.4421 12.3683 17.9144 13.8948 16.0301 13.8948C14.1457 13.8948 12.6181 12.3684 12.6181 10.4856C12.6181 8.60271 14.1457 7.07638 16.0301 7.07638C17.9144 7.07638 19.4421 8.60279 19.4421 10.4856Z" fill="#B0A3E4"/>
<path d="M16.0302 1.28003C15.6275 1.28003 15.2309 1.30615 14.8418 1.35646C19.3628 1.94078 22.8667 5.81194 22.8667 10.4857C22.8667 13.6256 21.3759 16.9967 18.4357 20.5053C17.047 22.1625 15.6714 23.4385 14.8419 24.1574C15.3024 24.5563 15.5953 24.7844 15.6272 24.8091C15.7458 24.9009 15.888 24.9467 16.0303 24.9467C16.1724 24.9467 16.3147 24.9009 16.4333 24.8091C16.5229 24.7398 18.6531 23.0823 20.8126 20.5053C23.7528 16.9967 25.2435 13.6257 25.2435 10.4857C25.2433 5.40965 21.1103 1.28003 16.0302 1.28003Z" fill="#7D6BC7"/>
</svg>
