<svg width="32" height="32" viewBox="0 0 32 32" fill="none" xmlns="http://www.w3.org/2000/svg">
<g clip-path="url(#clip0_1646_3462)">
<path d="M17.1351 21.8108C17.1866 21.7895 17.2201 21.7399 17.2201 21.6845V15.7405H23.4424V21.6845C23.4424 21.7399 23.4759 21.7895 23.5274 21.8108L25.2825 23.4087L19.8063 25.9898L16.2513 22.4368L17.1351 21.8108Z" fill="#DFD8F9"/>
<path d="M27.7584 5.6579L27.9695 11.2962L27.4443 12.2699L12.7342 11.8875L12.7709 10.8174L12.7705 8.28864L12.563 7.28435L12.8459 6.00324L12.978 5.6579L13.0417 4.48911C13.113 3.18076 13.9335 2.03123 15.1476 1.53846L15.2828 1.40623C15.9957 0.709422 16.9796 0.362529 17.9719 0.458044L18.609 0.519423L19.0362 0.336444C19.8868 -0.0278382 20.8495 -0.0278382 21.7001 0.336444L22.1273 0.519423L22.7644 0.458044C23.7567 0.362465 24.7406 0.709422 25.4534 1.40623L25.5887 1.53846C26.8028 2.03117 27.6232 3.1807 27.6946 4.48911L27.7584 5.6579Z" fill="#7D6BC7"/>
<path d="M14.3057 13.4117C13.3464 13.4117 12.5687 12.6341 12.5687 11.6747C12.5687 10.7155 13.3463 9.93774 14.3057 9.93774H17.8633V13.3298L14.3057 13.4117Z" fill="#BDB3E4"/>
<path d="M26.4307 13.4117C27.39 13.4117 28.1677 12.6341 28.1677 11.6747C28.1677 10.7155 27.3901 9.93774 26.4307 9.93774H23.4424V13.4116H26.4307V13.4117Z" fill="#BDB3E4"/>
<path d="M23.4424 15.7405V20.419V21.6845C23.4424 21.7399 23.4759 21.7895 23.5274 21.8108L25.2825 23.4087L22.7939 24.5816L22.0625 23.9156C22.0109 23.8943 21.9775 23.8447 21.9775 23.7893V21.8619C21.9775 21.4664 21.6238 21.1685 21.233 21.2289C20.9569 21.2716 20.6772 21.2932 20.3956 21.2932C19.7659 21.2932 19.1454 21.1865 18.5534 20.9767L18.5034 20.9591C18.051 20.7986 17.622 20.5958 17.2201 20.356V17.8453V15.7405H23.4424Z" fill="#BDB3E4"/>
<path d="M13.2184 23.4085L17.135 21.8105L19.339 23.7041C19.9225 24.2058 20.7868 24.2026 21.3665 23.6964L22.0332 23.1145L23.1115 22.7826L23.5273 21.8105L27.4439 23.4085C30.1992 24.5324 32 27.2123 32 30.1885V30.8739C32 31.4541 31.5298 31.9243 30.9497 31.9243H9.71275C9.13264 31.9243 8.6624 31.454 8.6624 30.8739V30.1885C8.66234 27.2123 10.4631 24.5324 13.2184 23.4085Z" fill="#BAC9F3"/>
<path d="M29.4234 31.7364V31.051C29.4234 28.0748 27.6226 25.3948 24.8672 24.2709L22.0332 23.1147L23.5273 21.8108L27.4439 23.4087C30.1992 24.5325 32 27.2125 32 30.1887V30.8741C32 31.4542 31.5298 31.9245 30.9497 31.9245H29.4056C29.4167 31.8633 29.4234 31.8007 29.4234 31.7364V31.7364Z" fill="#8596C6"/>
<path d="M17.1349 21.8105L19.3389 23.7041C19.9224 24.2058 20.7867 24.2026 21.3664 23.6964L22.0331 23.1145L23.1114 22.7826L23.5272 21.8105L24.2595 22.1094L20.3365 31.9243H20.3262L16.4026 22.1094L17.1349 21.8105Z" fill="#E3EBFF"/>
<path d="M24.7387 30.8573H28.7176C28.9033 30.8573 29.054 30.7067 29.054 30.5209V29.0371C29.054 28.8513 28.9034 28.7007 28.7176 28.7007H24.7387C24.553 28.7007 24.4023 28.8513 24.4023 29.0371V30.5209C24.4023 30.7067 24.5529 30.8573 24.7387 30.8573Z" fill="#E3EBFF"/>
<path d="M16.2511 9.82692L16.0695 6.72485H26.0847V7.67775L24.7038 7.60349L25.4606 13.7833L24.0873 17.3848L22.5598 19.2065L19.3368 20.0777L18.1433 19.7604C16.022 18.7135 14.6475 16.5421 14.6475 14.1342L14.6514 10.0936L16.2511 9.82692Z" fill="#DFD8F9"/>
<path d="M14.6567 6.72534H23.582H23.9833H26.0869V14.154C26.0869 15.4775 25.6715 16.7296 24.945 17.7633C24.2178 18.797 23.1796 19.6111 21.934 20.0588C20.9454 20.4143 19.8646 20.4162 18.874 20.0652L18.8264 20.0484C18.5914 19.9651 18.363 19.8688 18.1433 19.7603C18.5789 19.736 19.0126 19.6496 19.4291 19.4998C20.6747 19.0522 21.7129 18.2381 22.4401 17.2044C23.1666 16.1707 23.582 14.9186 23.582 13.5951V9.62814C23.582 9.31982 23.3321 9.06993 23.0238 9.06993H22.0524C21.8858 9.06993 21.7347 9.16177 21.652 9.30636C20.9002 10.6217 19.4838 11.5105 17.8633 11.5105C16.5943 11.5105 15.4484 10.9618 14.6509 10.0937L14.6567 6.72534Z" fill="#BDB3E4"/>
<path d="M12.5694 8.10388C12.1985 8.10388 11.8979 7.80323 11.8979 7.43238V6.86657C11.8979 6.49572 12.1985 6.19507 12.5694 6.19507H27.9257C28.2965 6.19507 28.5972 6.49572 28.5972 6.86657V7.43238C28.5972 7.80323 28.2965 8.10388 27.9257 8.10388H12.5694Z" fill="#EDF2FF"/>
<path d="M17.8632 10.5445C15.9882 10.5445 14.4682 9.02449 14.4682 7.14945C14.4682 5.27441 15.9882 3.75439 17.8632 3.75439C19.7383 3.75439 21.2583 5.27441 21.2583 7.14945C21.2583 9.02449 19.7383 10.5445 17.8632 10.5445Z" fill="#EDF2FF"/>
<path d="M17.8634 8.61236C18.6699 8.61236 19.3262 7.95613 19.3262 7.14957C19.3262 6.343 18.67 5.68677 17.8634 5.68677C17.0567 5.68677 16.4005 6.343 16.4005 7.14957C16.4005 7.95613 17.0567 8.61236 17.8634 8.61236Z" fill="#A9B9E6"/>
<path d="M7.75021 31.9366C3.46985 31.9366 -7.15256e-05 28.4667 -7.15256e-05 24.1863C-7.15256e-05 19.906 3.46985 16.436 7.75021 16.436C12.0306 16.436 15.5005 19.906 15.5005 24.1863C15.5005 28.4667 12.0306 31.9366 7.75021 31.9366Z" fill="#B0A3E4"/>
<path d="M12.3177 24.1863C12.3177 20.4514 9.67461 17.3335 6.1577 16.5994C6.6714 16.4922 7.20469 16.436 7.75021 16.436C12.0305 16.436 15.5005 19.9059 15.5005 24.1863C15.5005 28.4667 12.0306 31.9366 7.75021 31.9366C7.20469 31.9366 6.67056 31.8799 6.15692 31.7727C9.67383 31.0385 12.3177 27.9211 12.3177 24.1863V24.1863Z" fill="#7D6BC7"/>
<path d="M8.59847 26.7138L8.99186 28.8113C9.06438 29.1979 9.40194 29.478 9.79527 29.478C10.2135 29.478 10.5643 29.1623 10.6082 28.7464L10.8439 26.5138L12.3576 24.4328C13.2665 23.1833 13.0285 21.4393 11.8179 20.4791C10.8045 19.6752 9.37952 19.645 8.33292 20.4052C7.95775 20.6777 7.44984 20.6777 7.07468 20.4052C6.02807 19.645 4.60321 19.6752 3.58971 20.4791C2.37913 21.4393 2.14108 23.1833 3.04998 24.4328L4.56373 26.5138L4.79939 28.7464C4.84331 29.1624 5.19407 29.478 5.61233 29.478C6.00566 29.478 6.34321 29.1978 6.41573 28.8113L6.80913 26.7138C6.88989 26.2833 7.26577 25.9713 7.7038 25.9713C8.14182 25.9713 8.5177 26.2833 8.59847 26.7138V26.7138Z" fill="#FFFEFE"/>
<path d="M12.3111 24.4968C12.3152 24.3938 12.3175 24.2904 12.3175 24.1864C12.3175 22.6778 11.8858 21.2692 11.1399 20.0784C11.3787 20.1784 11.6075 20.3122 11.8179 20.4791C13.0285 21.4393 13.2665 23.1833 12.3576 24.4328L12.3111 24.4968Z" fill="#F9F3F1"/>
<path d="M7.70493 23.3213C8.21883 23.3213 8.73266 23.188 9.17133 22.9213C9.17301 22.9203 9.17597 22.9185 9.17764 22.9174C9.4039 22.776 9.47269 22.478 9.33132 22.2518C9.18994 22.0255 8.89168 21.9568 8.66568 22.0981L8.66439 22.0989C8.09207 22.4467 7.31643 22.4466 6.73935 22.0952C6.5116 21.9565 6.21437 22.0287 6.07551 22.2565C5.93678 22.4844 6.00904 22.7816 6.23691 22.9203C6.67584 23.1876 7.19038 23.3213 7.70493 23.3213V23.3213Z" fill="#DFD8F9"/>
<path d="M22.0331 23.1148L23.5272 21.8108L24.2595 22.1096L23.6019 23.7548L22.0331 23.1148Z" fill="#CCD3E5"/>
</g>
<defs>
<clipPath id="clip0_1646_3462">
<rect width="32" height="32" fill="white" transform="matrix(-1 0 0 1 32 0)"/>
</clipPath>
</defs>
</svg>
