<svg width="32" height="32" viewBox="0 0 32 32" fill="none" xmlns="http://www.w3.org/2000/svg">
<g clip-path="url(#clip0_1646_3505)">
<path d="M21.7642 4.55108L16.8535 0.341826C16.3623 -0.0791113 15.6376 -0.0791113 15.1465 0.341826L10.2358 4.55108C9.94508 4.8002 9.77783 5.16395 9.77783 5.54683V20.9369C9.77783 21.6612 10.365 22.2483 11.0893 22.2483H20.9108C21.6351 22.2483 22.2223 21.6611 22.2223 20.9369V5.54676C22.2222 5.16395 22.0549 4.8002 21.7642 4.55108ZM16 2.67858C15.7411 2.67858 15.5312 2.4687 15.5312 2.20983C15.5312 1.95095 15.7411 1.74108 16 1.74108C16.2588 1.74108 16.4687 1.95095 16.4687 2.20983C16.4687 2.4687 16.2588 2.67858 16 2.67858Z" fill="#B0A3E4"/>
<path d="M21.7643 4.5511L16.8536 0.341848C16.476 0.01816 15.9601 -0.0566525 15.5187 0.117473L19.1888 3.26329C19.4795 3.51241 19.6468 3.87616 19.6468 4.25904V17.5394C19.6468 19.4288 18.1151 20.9606 16.2256 20.9606H9.77808C9.7907 21.674 10.3729 22.2483 11.0893 22.2483H20.9108C21.6351 22.2483 22.2223 21.6612 22.2223 20.9369V5.54679C22.2223 5.16397 22.055 4.80022 21.7643 4.5511V4.5511Z" fill="#7D6BC7"/>
<path d="M31.2627 24.915H0.737312C0.32 24.915 0 24.64 0 24.1777V22.9856C0 22.72 0.32 22.2483 0.737312 22.2483H31.2627C31.68 22.2483 32 22.72 32 22.9856V24.1777C32 24.64 31.68 24.915 31.2627 24.915Z" fill="#BAC9F3"/>
<path d="M32 22.9856C32 22.72 31.68 22.2483 31.2627 22.2483H16C16 22.2483 15.5453 22.9923 14.72 23.68C13.8948 24.3677 12.8 24.915 12.8 24.915H31.2627C31.68 24.915 32 24.64 32 24.1777V22.9856Z" fill="#8596C6"/>
<path d="M15.9222 24.9553L11.0655 31.8237C11.0209 31.8868 11.066 31.974 11.1433 31.974H20.8567C20.9339 31.974 20.9791 31.8868 20.9344 31.8237L16.0778 24.9553C16.0398 24.9016 15.9601 24.9016 15.9222 24.9553Z" fill="#8596C6"/>
<path d="M18.6666 5.82812H13.3333C13.0743 5.82812 12.8645 5.61831 12.8645 5.35938C12.8645 5.10044 13.0743 4.89062 13.3333 4.89062H18.6666C18.9255 4.89062 19.1353 5.10044 19.1353 5.35938C19.1353 5.61831 18.9255 5.82812 18.6666 5.82812Z" fill="#7D6BC7"/>
<path d="M15.6179 14.4052C16.7794 14.4002 17.6668 14.1063 18.2801 13.5234C18.8934 12.9406 19.2 12.1111 19.2 11.0351C19.2 10.0039 18.8934 9.18689 18.2801 8.58411C17.6668 7.98132 16.7817 7.67993 15.6248 7.67993H12.5096V18.5599H14.3356V9.21927H15.4576C16.1359 9.21927 16.6168 9.39114 16.9002 9.73488C17.1836 10.0786 17.3253 10.517 17.3253 11.05C17.3253 11.6279 17.179 12.0788 16.8863 12.4026C16.5982 12.7264 16.122 12.8883 15.4576 12.8883H11.5409V14.4052H15.6179ZM16.9281 15.4663H11.52V16.7964H16.9281V15.4663Z" fill="#E9F0FF"/>
</g>
<defs>
<clipPath id="clip0_1646_3505">
<rect width="32" height="32" fill="white"/>
</clipPath>
</defs>
</svg>
