<svg width="50" height="50" viewBox="0 0 50 50" fill="none" xmlns="http://www.w3.org/2000/svg">
<path d="M42.6342 14.344C42.6342 14.344 40.3263 22.2187 40.2364 22.5689C40.1339 22.9641 36.375 31.5 36 33C35.625 34.5 35.8846 38.3873 35 42C33.3491 48.7426 32.0404 49 31 49C28.5 48 29.75 47 29 41C28.5 37 28 33 26 33C24 33 23.75 36.5 23 41C22.25 45.5 23.6993 49 21 49C18.5 49 17.8489 45.1788 17 41.5C16.1511 37.8212 16.5 36.5 16 33.5C15.5 30.5 11.8643 22.9641 11.7629 22.5678L9.3651 14.344C9.11699 13.4972 9 12.6503 9 11.8218C9 7.10891 12.791 3 17.7761 3C18.6244 3 19.4448 3.12199 20.22 3.3484C23.9916 4.44785 28.0081 4.44785 31.7797 3.3484C32.1671 3.23501 32.5664 3.14744 32.9735 3.08944C33.3816 3.03031 33.7987 3 34.2233 3C34.9546 3 35.6606 3.08869 36.3321 3.25484C41.0438 4.41754 44.089 9.38714 42.6342 14.344Z" fill="#DFD9F9"/>
<path d="M32.4885 3.17305C32.6487 3.1406 32.8104 3.11265 32.9733 3.08944C33.3815 3.03031 33.7986 3 34.2231 3C34.9544 3 35.6604 3.08869 36.332 3.25484C41.0437 4.41754 44.0889 9.38714 42.6341 14.344C42.6341 14.344 40.3261 22.2187 40.2362 22.5689C40.2021 22.7005 39.7625 23.735 39.1773 25.1117C38.0054 27.869 36.2499 31.9995 35.9998 33C35.8517 33.5925 35.8026 34.5574 35.7429 35.7308C35.6514 37.528 35.535 39.8142 34.9998 42C33.3489 48.7426 32.0402 49 30.9998 49C29.3446 48.3379 29.3332 47.6758 29.2969 45.5627C29.2783 44.4841 29.2533 43.0275 28.9998 41C28.6589 38.2725 28.3179 35.5449 27.5014 34.0856C36.332 33 40.9998 4.5 32.4885 3.17305Z" fill="#BDB3E4"/>
<path d="M24.4768 34.1185C23.9105 35.2272 23.6203 37.0789 23.2718 39.3022C23.1863 39.8476 23.0973 40.4153 22.9998 41C22.7392 42.5636 22.7442 44.0065 22.7483 45.2237C22.7538 46.8287 22.758 48.0415 22.1503 48.6216C20.3226 45.2417 20.4469 34.7896 24 34C24.1607 34.045 24.3196 34.0844 24.4768 34.1185Z" fill="#BDB3E4"/>
<path d="M25.9998 8.86319C23.9864 8.86319 21.9733 8.57766 20.016 8.00623C19.626 7.89247 19.4017 7.48195 19.5146 7.0894C19.6275 6.69684 20.0353 6.47082 20.4245 6.5842C24.0714 7.64885 27.9274 7.64885 31.5746 6.5842C31.9643 6.47082 32.3721 6.69684 32.4846 7.0894C32.5975 7.48195 32.3732 7.89247 31.9832 8.00623C30.0262 8.57766 28.0128 8.86319 25.9998 8.86319Z" fill="#A59AD1"/>
<path d="M32.8 24.7996H19.1999C18.8871 24.7996 18.6333 24.5456 18.6333 24.2329V15.1662C18.6333 14.8534 18.8872 14.5996 19.1999 14.5996H32.8C33.1128 14.5996 33.3666 14.8535 33.3666 15.1662V24.2329C33.3666 24.5457 33.1127 24.7996 32.8 24.7996ZM19.7666 23.6663H32.2333V15.7329H19.7666V23.6663Z" fill="#897BC3"/>
<path d="M19.7666 23.6663H32.2333V15.7329H19.7666V23.6663Z" fill="#897BC3"/>
<path d="M24.3001 22.5329H22.0334C21.7206 22.5329 21.4668 22.279 21.4668 21.9662V17.4328C21.4668 17.12 21.7207 16.8662 22.0334 16.8662H24.3001C24.6129 16.8662 24.8667 17.1201 24.8667 17.4328V21.9661C24.8667 22.2791 24.6129 22.5329 24.3001 22.5329ZM22.6001 21.3995H23.7334V17.9996H22.6001V21.3995Z" fill="#CEDBFF"/>
<path d="M22.6001 21.3995H23.7334V17.9996H22.6001V21.3995Z" fill="#CEDBFF"/>
<path d="M29.9666 22.5329H27.6999C27.3871 22.5329 27.1333 22.279 27.1333 21.9662V17.4328C27.1333 17.12 27.3872 16.8662 27.6999 16.8662H29.9666C30.2794 16.8662 30.5332 17.1201 30.5332 17.4328V21.9661C30.5332 22.2791 30.2794 22.5329 29.9666 22.5329ZM28.2666 21.3995H29.3999V17.9996H28.2666V21.3995Z" fill="#CEDBFF"/>
<path d="M28.2666 21.3995H29.3999V17.9996H28.2666V21.3995Z" fill="#CEDBFF"/>
<path d="M19.1999 21.3995H9.56663C9.2538 21.3995 9 21.1456 9 20.8329V18.5663C9 18.2534 9.25392 17.9996 9.56663 17.9996H19.1999C19.5128 17.9996 19.7666 18.2536 19.7666 18.5663V20.8329C19.7666 21.1457 19.5128 21.3995 19.1999 21.3995ZM10.1333 20.2663H18.6333V19.1329H10.1333V20.2663Z" fill="#897BC3"/>
<path d="M10.1333 20.2663H18.6333V19.1329H10.1333V20.2663Z" fill="#897BC3"/>
<path d="M42.4333 21.3995H32.8C32.4872 21.3995 32.2334 21.1456 32.2334 20.8329V18.5663C32.2334 18.2534 32.4873 17.9996 32.8 17.9996H42.4333C42.7462 17.9996 43 18.2536 43 18.5663V20.8329C43 21.1457 42.7462 21.3995 42.4333 21.3995ZM33.3667 20.2663H41.8667V19.1329H33.3667V20.2663Z" fill="#897BC3"/>
<path d="M33.3667 20.2663H41.8667V19.1329H33.3667V20.2663Z" fill="#897BC3"/>
<path d="M42.4333 17.9998C42.7462 17.9998 43 18.2537 43 18.5664V20.833C43 21.1459 42.7462 21.3997 42.4333 21.3997H36L36.6108 17.9998H42.4333Z" fill="#7D6BC7"/>
<path d="M22.0333 20.2664H19.1999C18.8871 20.2664 18.6333 20.0125 18.6333 19.6998C18.6333 19.387 18.8872 19.1332 19.1999 19.1332H22.0333C22.3461 19.1332 22.6 19.3871 22.6 19.6998C22.6 20.0125 22.346 20.2664 22.0333 20.2664Z" fill="#CEDBFF"/>
<path d="M27.7 20.2664H24.3C23.9872 20.2664 23.7334 20.0125 23.7334 19.6998C23.7334 19.387 23.9873 19.1332 24.3 19.1332H27.7C28.0129 19.1332 28.2667 19.3871 28.2667 19.6998C28.2667 20.0125 28.0128 20.2664 27.7 20.2664Z" fill="#CEDBFF"/>
<path d="M32.7999 20.2664H29.9665C29.6537 20.2664 29.3999 20.0125 29.3999 19.6998C29.3999 19.387 29.6538 19.1332 29.9665 19.1332H32.7999C33.1128 19.1332 33.3666 19.3871 33.3666 19.6998C33.3666 20.0125 33.1126 20.2664 32.7999 20.2664Z" fill="#CEDBFF"/>
</svg>
