<svg width="50" height="50" viewBox="0 0 50 50" fill="none" xmlns="http://www.w3.org/2000/svg">
<path d="M25 6.71948C34.9804 6.71948 43.0716 14.728 43.0716 24.6067V31.1111C43.0716 40.9897 34.9805 48.9984 25 48.9984C15.0196 48.9984 6.92847 40.9898 6.92847 31.1111V24.6067C6.92856 14.7281 15.0196 6.71948 25 6.71948Z" fill="#DFD8F9"/>
<path d="M1.99976 27.0454C1.99976 29.2903 3.83896 31.1107 6.10694 31.1107H6.92841V22.9802H6.10684C3.83886 22.9802 1.99976 24.8007 1.99976 27.0454Z" fill="#BDB3E4"/>
<path d="M43.8929 22.9801H43.0714V31.1106H43.8929C46.1609 31.1106 48.0001 29.2901 48.0001 27.0453C48.0001 24.8004 46.1616 22.9801 43.8929 22.9801Z" fill="#BDB3E4"/>
<path d="M14.3215 27.0419C15.6825 27.0419 16.7858 25.9499 16.7858 24.6028C16.7858 23.2556 15.6825 22.1636 14.3215 22.1636C12.9605 22.1636 11.8572 23.2556 11.8572 24.6028C11.8572 25.9499 12.9605 27.0419 14.3215 27.0419Z" fill="#7D6BC7"/>
<path d="M35.6789 27.0419C37.0399 27.0419 38.1433 25.9499 38.1433 24.6028C38.1433 23.2556 37.0399 22.1636 35.6789 22.1636C34.3179 22.1636 33.2146 23.2556 33.2146 24.6028C33.2146 25.9499 34.3179 27.0419 35.6789 27.0419Z" fill="#7D6BC7"/>
<path d="M16.7854 30.2979H33.2141C33.2141 34.7883 29.5365 38.4284 24.9998 38.4284C20.4638 38.4284 16.7854 34.7883 16.7854 30.2979Z" fill="#7D6BC7"/>
<path d="M34.8071 14.9309C34.8473 9.99157 30.8347 5.95561 25.8444 5.91576C25.8428 5.91576 25.8419 5.91576 25.8403 5.91576L25.0189 5.90929L23.6175 5.8987C22.1209 5.88895 20.915 4.67994 20.9248 3.19775C20.9281 2.70987 21.0661 2.23184 21.3232 1.81558H20.9486C17.3195 1.79121 14.3566 4.68238 14.332 8.27528C14.3262 9.05256 14.4617 9.82497 14.732 10.5551C15.6742 13.1008 18.1131 14.8009 20.8517 14.822L34.8071 14.9309Z" fill="#8596C6"/>
<path d="M28.1451 14.8495H29.8068C29.4011 12.0681 27.0049 9.99563 24.1661 9.97125L21.209 9.94932C19.4454 9.9331 17.9101 8.75335 17.4558 7.06707C16.9515 5.17997 18.0884 3.24572 19.9949 2.7465C20.3013 2.66597 20.6176 2.62697 20.9346 2.62941L21.7141 2.63832L21.7264 1.01222L20.9494 1.00003C18.0703 0.978096 15.7185 3.27169 15.6963 6.12141C15.693 6.57994 15.7513 7.03688 15.8696 7.48003C16.5145 9.8745 18.6945 11.5493 21.1983 11.5721L24.1554 11.5941C26.0948 11.6127 27.7574 12.9689 28.1451 14.8495Z" fill="#BAC9F3"/>
<path d="M24.9998 30.2946H21.7141V33.5467H24.9998V30.2946Z" fill="#F8F3FD"/>
<path d="M28.2855 30.2944H24.9998V33.5466H28.2855V30.2944Z" fill="#F8F3FD"/>
<path d="M25.8213 30.2944H24.1785V33.5466H25.8213V30.2944Z" fill="#C7CFE4"/>
<path d="M39.7331 14.2511C39.7643 14.8495 39.7857 15.4577 39.7857 16.0691C39.7857 31.561 29.6722 44.1195 17.1963 44.1195C15.3637 44.1179 13.5417 43.8438 11.7913 43.3064C18.5903 50.532 30.0197 50.9336 37.3198 44.2039C40.9908 40.8192 43.0748 36.0759 43.0715 31.1105V24.6061C43.0763 20.8945 41.909 17.274 39.7331 14.2511Z" fill="#BDB3E4"/>
</svg>
