<svg width="50" height="50" viewBox="0 0 50 50" fill="none" xmlns="http://www.w3.org/2000/svg">
<g clip-path="url(#clip0_1430_454)">
<path d="M15.0001 20.0001C15 23 15.3895 22.8691 27 27.5001C33 29.5001 42.2408 30.3694 41.8865 28.8283C42.9268 26.4704 38.4457 21.089 31.1166 17.8553C23.7875 14.6216 16.0404 17.6422 15.0001 20.0001Z" fill="#536596"/>
<path d="M46.7159 21.4993C46.7159 21.4993 42.4554 28.4501 42.2782 28.7625C42.0772 29.1147 41.6648 29.2901 41.273 29.1858C41.273 29.1858 36 25 30 23.5C24 22 15.4766 22.32 15.4766 22.32C15.0847 22.2157 14.8148 21.8588 14.8194 21.4532L14.6321 12.9602C14.6116 12.0853 14.7176 11.244 14.9317 10.4504C16.1495 5.93592 20.8672 2.97303 25.6747 4.25254C26.4928 4.47027 27.2525 4.79772 27.9415 5.21354C31.2947 7.23478 35.1681 8.26567 39.0895 8.18058C39.4923 8.17139 39.9 8.18999 40.3076 8.23891C40.7165 8.28704 41.1266 8.36506 41.536 8.47402C42.2412 8.66173 42.8992 8.9279 43.5038 9.25942C47.7473 11.5825 49.3998 17.1245 46.7159 21.4993Z" fill="#C9D3EF"/>
<path d="M46.7159 21.4993C46.7159 21.4993 42.4553 28.45 42.2781 28.7625C42.0771 29.1147 41.6648 29.29 41.2729 29.1857C38.5 27.0001 35.5 25.5001 33 24.5001C44.1656 22.3896 43.0526 13.8093 43.5038 9.25938C47.7472 11.5825 49.3997 17.1245 46.7159 21.4993Z" fill="#9CABD2"/>
<path d="M32.0905 11.9798C30.1489 11.463 28.2813 10.6728 26.5414 9.62307C26.1947 9.414 26.0844 8.96319 26.2947 8.61614C26.5051 8.26909 26.9567 8.15725 27.3028 8.36577C30.5447 10.3216 34.2633 11.3114 38.0557 11.2277C38.4607 11.2191 38.7956 11.5402 38.8027 11.9451C38.8101 12.3502 38.4877 12.6858 38.0822 12.6947C36.0473 12.7398 34.0319 12.4965 32.0905 11.9798Z" fill="#8596C6"/>
<path d="M35.0058 35.4765C35.5 39 35 41 23 44.5C15.3954 47.0184 7.5001 47.0002 8.00006 45.5C7.18988 43.0535 12.1648 38.1251 19.7695 35.6067C27.3741 33.0883 34.1956 33.0301 35.0058 35.4765Z" fill="#9081CF"/>
<path d="M35.3673 29.8439C35.3673 29.8439 35.1764 37.9795 35.1802 38.3381C35.1835 38.7429 34.9146 39.0995 34.5228 39.2038C34.5228 39.2038 28.5 38 21.5 40C14.5 42 8.72637 46.0696 8.72637 46.0696C8.33452 46.1738 7.92107 45.9988 7.72088 45.6452L3.28342 38.3831C2.82533 37.6356 2.49367 36.8544 2.27958 36.0608C1.06175 31.5463 3.65593 26.6373 8.46341 25.3578C9.28149 25.1401 10.1042 25.0464 10.9103 25.0643C14.8317 25.1494 18.705 24.1185 22.0582 22.0972C22.4025 21.8892 22.7649 21.7028 23.1425 21.5428C23.5209 21.3814 23.9153 21.2453 24.3247 21.1363C25.0299 20.9486 25.7337 20.8524 26.4242 20.8392C31.2685 20.7436 35.4894 24.7223 35.3673 29.8439Z" fill="#DFD9F9"/>
<path d="M35.3674 29.8439C35.3674 29.8439 35.1765 37.9794 35.1804 38.338C35.1836 38.7428 34.9147 39.0995 34.5229 39.2038C28.8832 38.338 24 39.5 24 39.5C32.6073 32.127 28.324 25.0035 26.4244 20.8391C31.2687 20.7435 35.4895 24.7223 35.3674 29.8439Z" fill="#BDB3E4"/>
<path d="M17.9091 28.8635C15.9674 29.3803 13.9523 29.6235 11.917 29.5785C11.5115 29.5696 11.1891 29.2339 11.1966 28.8289C11.204 28.4239 11.5389 28.1027 11.9435 28.1114C15.7356 28.1952 19.4542 27.2055 22.6964 25.2496C23.0429 25.0409 23.4946 25.1528 23.7045 25.4999C23.9148 25.847 23.8046 26.2978 23.4579 26.5069C21.7183 27.5565 19.8504 28.3468 17.9091 28.8635Z" fill="#A59AD1"/>
</g>
<defs>
<clipPath id="clip0_1430_454">
<rect width="50" height="50" fill="white"/>
</clipPath>
</defs>
</svg>
