<svg width="50" height="50" viewBox="0 0 50 50" fill="none" xmlns="http://www.w3.org/2000/svg">
<path d="M42.6345 14.344C42.6345 14.344 40.3265 22.2187 40.2366 22.5689C40.1341 22.9641 36.3752 31.5 36.0002 33C35.6252 34.5 35.8848 38.3873 35.0002 42C33.3493 48.7426 32.0407 49 31.0002 49C28.5002 48 29.7502 47 29.0002 41C28.5002 37 28.0002 33 26.0002 33C24.0002 33 23.7502 36.5 23.0002 41C22.2502 45.5 23.6996 49 21.0002 49C18.5002 49 17.8492 45.1788 17.0002 41.5C16.1513 37.8212 16.5002 36.5 16.0002 33.5C15.5002 30.5 11.8646 22.9641 11.7632 22.5678L9.36534 14.344C9.11724 13.4972 9.00024 12.6503 9.00024 11.8218C9.00024 7.10891 12.7912 3 17.7763 3C18.6246 3 19.4451 3.12199 20.2202 3.3484C23.9919 4.44785 28.0083 4.44785 31.78 3.3484C32.1674 3.23501 32.5666 3.14744 32.9737 3.08944C33.3819 3.03031 33.799 3 34.2235 3C34.9548 3 35.6609 3.08869 36.3324 3.25484C41.0441 4.41754 44.0893 9.38714 42.6345 14.344Z" fill="#DFD9F9"/>
<path d="M32.4888 3.17305C32.6489 3.1406 32.8106 3.11265 32.9735 3.08944C33.3817 3.03031 33.7988 3 34.2233 3C34.9546 3 35.6607 3.08869 36.3322 3.25484C41.0439 4.41754 44.0891 9.38714 42.6343 14.344C42.6343 14.344 40.3264 22.2187 40.2365 22.5689C40.2023 22.7005 39.7627 23.735 39.1776 25.1117C38.0057 27.869 36.2502 31.9995 36.0001 33C35.8519 33.5925 35.8028 34.5574 35.7431 35.7308C35.6516 37.528 35.5353 39.8142 35.0001 42C33.3491 48.7426 32.0405 49 31.0001 49C29.3449 48.3379 29.3335 47.6758 29.2971 45.5627C29.2786 44.4841 29.2535 43.0275 29.0001 41C28.6591 38.2725 28.3182 35.5449 27.5017 34.0856C36.3322 33 41 4.5 32.4888 3.17305Z" fill="#BDB3E4"/>
<path d="M24.477 34.1185C23.9108 35.2272 23.6205 37.0789 23.272 39.3022C23.1865 39.8476 23.0975 40.4153 23.0001 41C22.7395 42.5636 22.7444 44.0065 22.7486 45.2237C22.7541 46.8287 22.7582 48.0415 22.1506 48.6216C20.3228 45.2417 20.4472 34.7896 24.0003 34C24.1609 34.045 24.3198 34.0844 24.477 34.1185Z" fill="#BDB3E4"/>
<path d="M24.1587 13.6871L21.0136 12.6388L19.9652 9.49369C19.8589 9.17471 19.5603 8.95947 19.2241 8.95947C18.8878 8.95947 18.5893 9.17463 18.4829 9.49369L17.4345 12.6388L14.2895 13.6871C13.9705 13.7935 13.7552 14.0921 13.7552 14.4283C13.7552 14.7646 13.9704 15.0631 14.2895 15.1695L17.4345 16.2178L18.4829 19.3629C18.5892 19.6819 18.8878 19.8971 19.2241 19.8971C19.5603 19.8971 19.8588 19.682 19.9652 19.3629L21.0136 16.2178L24.1587 15.1695C24.4777 15.0631 24.6929 14.7646 24.6929 14.4283C24.6929 14.0921 24.4777 13.7935 24.1587 13.6871ZM20.1489 14.859C19.9156 14.9367 19.7325 15.1198 19.6548 15.3531L19.2241 16.6453L18.7934 15.3531C18.7156 15.1199 18.5326 14.9367 18.2992 14.859L17.007 14.4283L18.2992 13.9976C18.5325 13.9199 18.7156 13.7368 18.7934 13.5035L19.2241 12.2113L19.6548 13.5035C19.7325 13.7367 19.9156 13.9199 20.1489 13.9976L21.4411 14.4283L20.1489 14.859Z" fill="#7D6BC7"/>
<path d="M10.5607 24.8901L7.97275 24.0275L7.11011 21.4396C7.02262 21.1771 6.77693 21 6.50024 21C6.22356 21 5.97793 21.177 5.89037 21.4396L5.02774 24.0275L2.43982 24.8901C2.17735 24.9776 2.00024 25.2233 2.00024 25.5C2.00024 25.7767 2.17728 26.0223 2.43982 26.1099L5.02774 26.9725L5.89037 29.5604C5.97787 29.8229 6.22356 30 6.50024 30C6.77693 30 7.02256 29.823 7.11011 29.5604L7.97275 26.9725L10.5607 26.1099C10.8231 26.0224 11.0002 25.7767 11.0002 25.5C11.0002 25.2233 10.8232 24.9777 10.5607 24.8901ZM7.26125 25.8544C7.06929 25.9184 6.91861 26.069 6.85465 26.261L6.50024 27.3243L6.14584 26.261C6.08188 26.069 5.93126 25.9184 5.73924 25.8544L4.67597 25.5L5.73924 25.1456C5.93119 25.0816 6.08188 24.931 6.14584 24.739L6.50024 23.6757L6.85465 24.739C6.91861 24.931 7.06923 25.0816 7.26125 25.1456L8.32452 25.5L7.26125 25.8544Z" fill="#8596C6"/>
<path d="M7.26125 25.8544C7.06929 25.9184 6.91861 26.069 6.85465 26.261L6.50024 27.3243L6.14584 26.261C6.08188 26.069 5.93126 25.9184 5.73924 25.8544L4.67597 25.5L5.73924 25.1456C5.93119 25.0816 6.08188 24.931 6.14584 24.739L6.50024 23.6757L6.85465 24.739C6.91861 24.931 7.06923 25.0816 7.26125 25.1456L8.32452 25.5L7.26125 25.8544Z" fill="#8596C6"/>
</svg>
