<svg width="50" height="50" viewBox="0 0 50 50" fill="none" xmlns="http://www.w3.org/2000/svg">
<path d="M42.6342 14.344C42.6342 14.344 40.3263 22.2187 40.2364 22.5689C40.1339 22.9641 36.375 31.5 36 33C35.625 34.5 35.8846 38.3873 35 42C33.3491 48.7426 32.0404 49 31 49C28.5 48 29.75 47 29 41C28.5 37 28 33 26 33C24 33 23.75 36.5 23 41C22.25 45.5 23.6993 49 21 49C18.5 49 17.8489 45.1788 17 41.5C16.1511 37.8212 16.5 36.5 16 33.5C15.5 30.5 11.8643 22.9641 11.7629 22.5678L9.3651 14.344C9.11699 13.4972 9 12.6503 9 11.8218C9 7.10891 12.791 3 17.7761 3C18.6244 3 19.4448 3.12199 20.22 3.3484C23.9916 4.44785 28.0081 4.44785 31.7797 3.3484C32.1671 3.23501 32.5664 3.14744 32.9735 3.08944C33.3816 3.03031 33.7987 3 34.2233 3C34.9546 3 35.6606 3.08869 36.3321 3.25484C41.0438 4.41754 44.089 9.38714 42.6342 14.344Z" fill="#DFD9F9"/>
<path d="M32.4885 3.17305C32.6487 3.1406 32.8104 3.11265 32.9733 3.08944C33.3815 3.03031 33.7986 3 34.2231 3C34.9544 3 35.6604 3.08869 36.332 3.25484C41.0437 4.41754 44.0889 9.38714 42.6341 14.344C42.6341 14.344 40.3261 22.2187 40.2362 22.5689C40.2021 22.7005 39.7625 23.735 39.1773 25.1117C38.0054 27.869 36.2499 31.9995 35.9998 33C35.8517 33.5925 35.8026 34.5574 35.7429 35.7308C35.6514 37.528 35.535 39.8142 34.9998 42C33.3489 48.7426 32.0402 49 30.9998 49C29.3446 48.3379 29.3332 47.6758 29.2969 45.5627C29.2783 44.4841 29.2533 43.0275 28.9998 41C28.6589 38.2725 28.3179 35.5449 27.5014 34.0856C36.332 33 40.9998 4.5 32.4885 3.17305Z" fill="#BDB3E4"/>
<path d="M24.4768 34.1185C23.9105 35.2272 23.6203 37.0789 23.2718 39.3022C23.1863 39.8476 23.0973 40.4153 22.9998 41C22.7392 42.5636 22.7442 44.0065 22.7483 45.2237C22.7538 46.8287 22.758 48.0415 22.1503 48.6216C20.3226 45.2417 20.4469 34.7896 24 34C24.1607 34.045 24.3196 34.0844 24.4768 34.1185Z" fill="#BDB3E4"/>
<path d="M10.066 7.60085C10.2579 7.11423 10.8091 6.87452 11.2975 7.06589L16.513 9.1078L18.1072 8.10615C18.5509 7.82744 19.1374 7.95973 19.4175 8.40204C19.6973 8.84435 19.5643 9.42893 19.1205 9.70777L17.7264 10.5837L18.9122 14.6158L22.6077 17.2868C23.0325 17.5938 23.127 18.1858 22.8189 18.6091C22.6331 18.8644 22.3432 19 22.0492 19C21.8559 19 21.6608 18.9414 21.4923 18.8196L18.3396 16.5409L17.216 18.2449C17.0336 18.5216 16.7304 18.6718 16.4213 18.6718C16.2423 18.6718 16.0612 18.6214 15.9005 18.5162C15.4621 18.229 15.3401 17.642 15.6284 17.205L17.0569 15.0384L15.8327 10.8755L10.6032 8.82807C10.1145 8.63708 9.87424 8.08747 10.066 7.60085Z" fill="#7D6BC7"/>
</svg>
