<svg width="50" height="50" viewBox="0 0 50 50" fill="none" xmlns="http://www.w3.org/2000/svg">
<g clip-path="url(#clip0_1430_420)">
<path d="M41.8419 39.3777C41.8419 39.3777 39.3216 47.9768 39.2234 48.3593C39.1115 48.7908 35.0068 58.112 34.5973 59.75C34.1878 61.388 34.4712 65.6329 33.5053 69.578C31.7025 76.9409 30.2734 77.222 29.1373 77.222C26.4073 76.13 27.7723 75.038 26.9533 68.486C26.4073 64.118 25.8613 59.75 23.6773 59.75C21.4933 59.75 21.2203 63.572 20.4013 68.486C19.5823 73.4 21.165 77.222 18.2173 77.222C15.4873 77.222 14.7763 73.0492 13.8493 69.032C12.9222 65.0148 13.3033 63.572 12.7573 60.296C12.2113 57.02 8.24112 48.7908 8.1304 48.358L5.51197 39.3777C5.24104 38.4529 5.11328 37.5281 5.11328 36.6234C5.11328 31.4769 9.25304 26.99 14.6967 26.99C15.6231 26.99 16.519 27.1232 17.3655 27.3704C21.4841 28.571 25.8701 28.571 29.9888 27.3704C30.4118 27.2466 30.8478 27.151 31.2923 27.0877C31.738 27.0231 32.1935 26.99 32.6571 26.99C33.4557 26.99 34.2267 27.0868 34.96 27.2683C40.1052 28.5379 43.4305 33.9647 41.8419 39.3777Z" fill="#DFD9F9"/>
<path d="M30.763 27.179C30.9379 27.1435 31.1144 27.113 31.2923 27.0877C31.7381 27.0231 32.1935 26.99 32.6571 26.99C33.4557 26.99 34.2267 27.0868 34.96 27.2683C40.1052 28.5379 43.4305 33.9647 41.8419 39.3777C41.8419 39.3777 39.3216 47.9768 39.2235 48.3593C39.1862 48.503 38.7061 49.6326 38.0672 51.1359C36.7874 54.147 34.8704 58.6575 34.5973 59.75C34.4356 60.397 34.3819 61.4507 34.3167 62.732C34.2168 64.6946 34.0897 67.1911 33.5053 69.578C31.7025 76.9409 30.2734 77.222 29.1373 77.222C27.3298 76.499 27.3174 75.776 27.2777 73.4684C27.2574 72.2906 27.2301 70.7 26.9533 68.486C26.581 65.5075 26.2087 62.529 25.3171 60.9355C34.96 59.75 40.0572 28.628 30.763 27.179Z" fill="#A59AD1"/>
<path d="M22.0142 60.9714C21.3958 62.1821 21.0789 64.2041 20.6983 66.6319C20.6049 67.2275 20.5077 67.8475 20.4013 68.486C20.1167 70.1934 20.1221 71.7691 20.1267 73.0983C20.1327 74.8509 20.1372 76.1753 19.4737 76.8088C17.4778 73.1179 17.6136 61.7042 21.4935 60.842C21.669 60.8911 21.8425 60.9342 22.0142 60.9714Z" fill="#A59AD1"/>
<path d="M23.677 33.3926C21.4783 33.3926 19.2801 33.0808 17.1427 32.4568C16.7168 32.3325 16.4718 31.8843 16.5951 31.4556C16.7184 31.0269 17.1638 30.7801 17.5888 30.9039C21.5712 32.0665 25.7819 32.0665 29.7647 30.9039C30.1902 30.7801 30.6355 31.0269 30.7584 31.4556C30.8817 31.8843 30.6367 32.3325 30.2109 32.4568C28.0739 33.0808 25.8752 33.3926 23.677 33.3926Z" fill="#A59AD1"/>
<path d="M45.6008 27.483C45.9422 26.8917 46.0328 26.203 45.8561 25.5435C45.6794 24.8841 45.2566 24.3329 44.6653 23.9916L34.0761 17.8778C33.6697 17.6432 33.1501 17.7825 32.9155 18.1888L31.2091 21.1442C31.0965 21.3393 31.0659 21.5712 31.1242 21.7888C31.1825 22.0065 31.3249 22.192 31.5201 22.3047L42.1094 28.4185C42.7196 28.7708 43.4163 28.8421 44.0485 28.6727C44.6807 28.5033 45.2485 28.0932 45.6008 27.483Z" fill="#7F6FC4"/>
<circle cx="24.9996" cy="14.9999" r="9" fill="#C9D3EF"/>
<path d="M31.4325 21.2732C31.3198 21.4684 31.2893 21.7003 31.3476 21.9179C31.4059 22.1356 31.5483 22.3211 31.7434 22.4338L42.1094 28.4185C42.7196 28.7708 43.4163 28.842 44.0485 28.6726C44.6807 28.5032 45.2485 28.0932 45.6008 27.4829L32.2857 19.7955L31.4325 21.2732Z" fill="#9B8DD1"/>
<path fill-rule="evenodd" clip-rule="evenodd" d="M13.8696 18.2158C15.4545 24.1306 21.5341 27.6407 27.4489 26.0558C33.3636 24.471 36.8737 18.3913 35.2888 12.4766C33.704 6.56182 27.6244 3.05174 21.7096 4.63659C15.7949 6.22145 12.2848 12.3011 13.8696 18.2158ZM26.5656 22.7595C22.4714 23.8565 18.263 21.4268 17.1659 17.3326C16.0689 13.2383 18.4986 9.02996 22.5929 7.93291C26.6871 6.83586 30.8955 9.26557 31.9925 13.3598C33.0896 17.4541 30.6599 21.6624 26.5656 22.7595Z" fill="#7F6FC4"/>
<path d="M13.8697 18.2159C15.4545 24.1306 21.5342 27.6407 27.4489 26.0558C30.326 25.2849 32.6341 23.4506 34.0636 21.089L30.9794 19.5821C29.9817 21.0907 28.45 22.2546 26.5657 22.7595C22.4714 23.8566 18.263 21.4269 17.166 17.3326C16.492 14.8174 17.1491 12.2592 18.7053 10.4057L15.8781 8.47344C13.7855 11.127 12.9277 14.7006 13.8697 18.2159Z" fill="#9B8DD1"/>
<path fill-rule="evenodd" clip-rule="evenodd" d="M28.9321 13.1127C28.5936 13.3514 28.1256 13.2705 27.8869 12.932C27.2116 11.9745 26.4455 11.3917 25.5764 11.1163C24.7001 10.8386 23.639 10.8482 22.3354 11.221C21.9372 11.335 21.522 11.1045 21.4081 10.7062C21.2942 10.308 21.5246 9.89281 21.9229 9.77889C23.4224 9.34993 24.7964 9.29561 26.0295 9.68639C27.2698 10.0795 28.2875 10.8974 29.1127 12.0675C29.3514 12.406 29.2706 12.8739 28.9321 13.1127Z" fill="#7788BA"/>
<path d="M30.4998 15.9999C30.4998 16.5522 30.052 16.9999 29.4998 16.9999C28.9475 16.9999 28.4998 16.5522 28.4998 15.9999C28.4998 15.4476 28.9475 14.9999 29.4998 14.9999C30.052 14.9999 30.4998 15.4476 30.4998 15.9999Z" fill="#7788BA"/>
</g>
<defs>
<clipPath id="clip0_1430_420">
<rect width="50" height="50" fill="white"/>
</clipPath>
</defs>
</svg>
