<svg width="50" height="50" viewBox="0 0 50 50" fill="none" xmlns="http://www.w3.org/2000/svg">
<path d="M1 32.7471C1 32.7471 1 30.3546 3.18094 29.5122C6.79313 29.5122 12.9952 29.5122 12.9952 29.5122C12.9952 29.5122 41.4345 29.5122 46.7998 29.5122C49.3556 30.3546 48.9807 32.7471 48.9807 32.7471V50H1V32.7471Z" fill="#C9D3EF"/>
<path d="M25.9246 47.3075C32.5 47.3075 34.1549 35.4677 35.1359 29.5383H30.2593L30.7673 26.6472H12.9882L12.9205 29.5383H8.58582C8.89301 33.893 12 47.3075 17.2552 47.3075C20 47.3075 20.5 47 22.301 43.4741C23.5 47.3075 25.9246 47.3075 25.9246 47.3075Z" fill="#8596C6"/>
<path d="M41.7309 27.3866C40.5336 28.5764 37.5402 29.1713 37.5402 29.1713C37.5402 29.1713 38.1388 26.1967 39.3362 25.0067C39.4934 24.8504 39.6801 24.7264 39.8856 24.6419C40.091 24.5573 40.3112 24.5138 40.5336 24.5138C40.756 24.5138 40.9762 24.5573 41.1816 24.6419C41.3871 24.7265 41.5738 24.8504 41.731 25.0067C41.8882 25.163 42.013 25.3485 42.0981 25.5527C42.1832 25.7569 42.227 25.9757 42.227 26.1967C42.227 26.4177 42.1831 26.6365 42.098 26.8407C42.0129 27.0448 41.8882 27.2304 41.7309 27.3866Z" fill="#8596C6"/>
<path d="M48.504 21.4972C47.3067 22.687 44.3132 23.2819 44.3132 23.2819C44.3132 23.2819 44.9119 20.3073 46.1092 19.1173C46.4268 18.8017 46.8575 18.6244 47.3067 18.6244C47.7558 18.6244 48.1865 18.8017 48.5041 19.1173C48.8216 19.4329 49 19.861 49 20.3073C49 20.7536 48.8216 21.1816 48.504 21.4972Z" fill="#8596C6"/>
<path d="M42.62 15.7099C42.62 17.3926 40.9268 19.9166 40.9268 19.9166C40.9268 19.9166 39.2335 17.3926 39.2335 15.7099C39.2335 15.2636 39.4119 14.8356 39.7295 14.5201C40.047 14.2045 40.4777 14.0272 40.9268 14.0272C41.3758 14.0272 41.8065 14.2045 42.1241 14.5201C42.4416 14.8356 42.62 15.2636 42.62 15.7099Z" fill="#8596C6"/>
<path d="M36.027 16.5608C36.027 16.5608 34.0696 23.1977 33.9934 23.4929C33.9064 23.8259 30.7185 31.0201 30.4005 32.2843C30.0825 33.5485 30.3026 36.8247 29.5524 39.8696C28.1523 45.5523 27.0424 45.7692 26.16 45.7692C24.0398 44.9264 25.0999 44.0836 24.4639 39.0268C24.0398 35.6555 23.6158 32.2843 21.9196 32.2843C20.2234 32.2843 20.0114 35.2341 19.3753 39.0268C18.7392 42.8194 19.9684 45.7692 17.6791 45.7692C15.5589 45.7692 15.0067 42.5487 14.2867 39.4482C13.5667 36.3477 13.8627 35.2341 13.4386 32.7057C13.0146 30.1773 9.93117 23.8259 9.84518 23.4919L7.81159 16.5608C7.60118 15.8471 7.50195 15.1334 7.50195 14.4351C7.50195 10.463 10.7171 7 14.9449 7C15.6643 7 16.3601 7.10282 17.0175 7.29363C20.2163 8.22026 23.6226 8.22026 26.8213 7.29363C27.1499 7.19807 27.4885 7.12427 27.8337 7.07538C28.1799 7.02555 28.5336 7 28.8937 7C29.5139 7 30.1127 7.07475 30.6822 7.21478C34.6782 8.19471 37.2608 12.3831 36.027 16.5608Z" fill="#DFD9F9"/>
<path d="M27.4225 7.14585C27.5583 7.1185 27.6954 7.09495 27.8336 7.07538C28.1798 7.02555 28.5335 7 28.8936 7C29.5138 7 30.1126 7.07475 30.6821 7.21478C34.6781 8.19471 37.2607 12.3831 36.0269 16.5608C36.0269 16.5608 34.0695 23.1977 33.9933 23.4929C33.9643 23.6038 33.5915 24.4756 33.0952 25.6359C32.1014 27.9599 30.6125 31.4411 30.4004 32.2843C30.2748 32.7836 30.2331 33.5969 30.1825 34.5858C30.1049 36.1005 30.0062 38.0274 29.5523 39.8696C28.1522 45.5523 27.0423 45.7692 26.1599 45.7692C24.7562 45.2112 24.7465 44.6532 24.7157 42.8722C24.6999 41.9632 24.6787 40.7356 24.4637 39.0268C24.1746 36.728 23.8854 34.4292 23.1929 33.1992C30.6821 32.2843 34.6408 8.26421 27.4225 7.14585Z" fill="#BDB3E4"/>
<path d="M20.6278 33.2269C20.1475 34.1614 19.9014 35.722 19.6058 37.5958C19.5333 38.0555 19.4578 38.534 19.3752 39.0268C19.1542 40.3446 19.1583 41.5606 19.1619 42.5866C19.1665 43.9393 19.17 44.9614 18.6547 45.4503C17.1046 42.6017 17.2101 33.7925 20.2234 33.1271C20.3597 33.165 20.4945 33.1983 20.6278 33.2269Z" fill="#BDB3E4"/>
<path d="M22.147 13.3143C19.9652 13.3143 17.7837 13.0068 15.6625 12.3914C15.2399 12.2689 14.9968 11.8268 15.1192 11.4041C15.2415 10.9813 15.6835 10.7379 16.1053 10.86C20.0573 12.0066 24.236 12.0066 28.1884 10.86C28.6106 10.7379 29.0526 10.9813 29.1745 11.4041C29.2969 11.8268 29.0538 12.2689 28.6312 12.3914C26.5104 13.0068 24.3285 13.3143 22.147 13.3143Z" fill="#A59AD1"/>
</svg>
