<svg width="50" height="50" viewBox="0 0 50 50" fill="none" xmlns="http://www.w3.org/2000/svg">
<path d="M31.7814 25.5437L28.9528 47.1292C28.8952 47.6261 28.4785 48 27.9823 48H22.0171C21.5212 48 21.1041 47.6261 21.0466 47.1292L18.2183 25.5437H31.7814Z" fill="#C9D3EF"/>
<path d="M31.7815 25.5437L28.9528 47.1292C28.8953 47.6261 28.4785 48 27.9823 48H23.9874C28.8886 41.7839 29.0787 29.8259 29.0282 25.5437H31.7815Z" fill="#8596C6"/>
<path d="M35.5835 26.113H14.4164C13.9859 26.113 13.6175 25.8032 13.5402 25.3765L12.8721 21.6755H37.1282L36.4596 25.3765C36.3828 25.8032 36.0139 26.113 35.5835 26.113V26.113Z" fill="#7D6BC7"/>
<path d="M37.1279 21.676L36.4601 25.3767C36.3829 25.8036 36.014 26.1135 35.5832 26.1135H33.4502C33.8807 26.1135 34.2498 25.8036 34.3271 25.3767L34.9949 21.676H37.1279Z" fill="#5A499D"/>
<path d="M41.6342 13.344C41.6342 13.344 39.3263 21.2187 39.2364 21.5689C39.1339 21.9641 38.7807 22.2418 38.3744 22.2418H11.625C11.2186 22.2418 10.8643 21.9641 10.7629 21.5678L8.3651 13.344C8.11699 12.4972 8 11.6503 8 10.8218C8 6.10891 11.791 2 16.7761 2C17.6244 2 18.4448 2.12199 19.22 2.3484C22.9916 3.44785 27.0081 3.44785 30.7797 2.3484C31.1671 2.23501 31.5664 2.14744 31.9735 2.08944C32.3816 2.03031 32.7987 2 33.2233 2C33.9546 2 34.6606 2.08869 35.3321 2.25484C40.0438 3.41754 43.089 8.38714 41.6342 13.344Z" fill="#DFD9F9"/>
<path d="M41.634 13.3441C41.634 13.3441 39.326 21.2187 39.2361 21.569C39.1336 21.9642 38.7804 22.2418 38.3741 22.2418H26.2939C36.5456 17.2917 36.0829 6.80349 35.3319 2.25488C40.0436 3.41758 43.0888 8.38718 41.634 13.3441V13.3441Z" fill="#BDB3E4"/>
<path d="M32.1907 31.0367L18.5027 34.732C17.7874 34.9251 17.052 34.4974 16.8607 33.7767C16.6687 33.0559 17.0932 32.315 17.8086 32.1219L31.4966 28.4265C32.2119 28.2334 32.9473 28.6611 33.1389 29.3819C33.3306 30.1026 32.9061 30.8436 32.1907 31.0367V31.0367Z" fill="#8A7BC4"/>
<path d="M31.6248 37.8786L19.0685 41.2682C18.3532 41.4617 17.6182 41.034 17.4265 40.3132C17.2349 39.5925 17.6594 38.8515 18.3747 38.6584L30.931 35.2688C31.6463 35.0757 32.3814 35.5034 32.573 36.2241C32.7647 36.9445 32.3401 37.6855 31.6248 37.8786V37.8786Z" fill="#8A7BC4"/>
<path d="M24.9999 7.86319C22.9865 7.86319 20.9734 7.57766 19.0161 7.00623C18.6261 6.89247 18.4018 6.48195 18.5147 6.0894C18.6276 5.69684 19.0354 5.47082 19.4246 5.5842C23.0715 6.64885 26.9275 6.64885 30.5748 5.5842C30.9644 5.47082 31.3722 5.69684 31.4847 6.0894C31.5976 6.48195 31.3733 6.89247 30.9833 7.00623C29.0264 7.57766 27.0129 7.86319 24.9999 7.86319Z" fill="#A59AD1"/>
</svg>
