<svg width="50" height="50" viewBox="0 0 50 50" fill="none" xmlns="http://www.w3.org/2000/svg">
<path d="M12 24L14.6934 30.9704C15.0336 31.8511 15.2093 32.8046 15.2093 33.7684C15.2093 38.2704 16.1208 42.7115 17.8707 46.7381C18.2069 47.5117 18.8937 48 19.6446 48C19.6608 48 19.6769 47.9998 19.6929 47.9993C19.7091 47.9998 19.7253 48 19.7415 48C20.8506 48 21.75 46.9782 21.75 45.7182C21.75 42.3268 22.0766 38.9455 22.7242 35.6345L23.0224 34.1105C23.2279 33.0572 24.0502 32.3077 25 32.3077C25.9498 32.3077 26.7712 33.0572 26.9776 34.1095L27.2758 35.6335C27.9234 38.9446 28.25 42.3258 28.25 45.7172C28.25 46.9772 29.1494 47.9991 30.2585 47.9991C31.019 47.9991 31.7145 47.5108 32.0549 46.7372C33.827 42.7108 34.75 38.2698 34.75 33.768C34.75 32.8043 34.9279 31.8508 35.2724 30.9702L38 24H12Z" fill="#DFD8F9"/>
<path d="M29.0001 24C26.5002 29.5 27.0001 30 27.276 35.6335C27.9235 38.9446 28.2501 42.3258 28.2501 45.7172C28.2501 46.9772 29.1496 47.9991 30.2586 47.9991C31.0191 47.9991 31.7146 47.5108 32.0551 46.7372C33.8271 42.7108 34.7501 38.2698 34.7501 33.768C34.7501 32.8043 34.9281 31.8508 35.2726 30.9702L38.0001 24H29.0001Z" fill="#BDB3E4"/>
<path d="M37.2169 25H12.7827C12.2858 25 12.5 25 12.5 25L11 22H39L37.5 25C37.5 25 37.7138 25 37.2169 25Z" fill="#7D6BC7"/>
<path d="M39 22L37.5 25C37.5 25 37.6942 25 37.1892 25H32C32.5046 25 32.5269 23.7222 33.0359 23.25L33.8288 22H39Z" fill="#5A499D"/>
<path d="M41.6342 13.344C41.6342 13.344 39.3263 21.2187 39.2364 21.5689C39.1339 21.9641 38.7807 22.2418 38.3744 22.2418H11.625C11.2186 22.2418 10.8643 21.9641 10.7629 21.5678L8.3651 13.344C8.11699 12.4972 8 11.6503 8 10.8218C8 6.10891 11.791 2 16.7761 2C17.6244 2 18.4448 2.12199 19.22 2.3484C22.9916 3.44785 27.0081 3.44785 30.7797 2.3484C31.1671 2.23501 31.5664 2.14744 31.9735 2.08944C32.3816 2.03031 32.7987 2 33.2233 2C33.9546 2 34.6606 2.08869 35.3321 2.25484C40.0438 3.41754 43.089 8.38714 41.6342 13.344Z" fill="#DFD9F9"/>
<path d="M41.634 13.3441C41.634 13.3441 39.326 21.2187 39.2361 21.569C39.1336 21.9642 38.7804 22.2418 38.3741 22.2418H26.2939C36.5456 17.2917 36.0829 6.80349 35.3319 2.25488C40.0436 3.41758 43.0888 8.38718 41.634 13.3441Z" fill="#BDB3E4"/>
<path d="M24.9998 7.86319C22.9864 7.86319 20.9733 7.57766 19.016 7.00623C18.626 6.89247 18.4017 6.48195 18.5146 6.0894C18.6275 5.69684 19.0353 5.47082 19.4245 5.5842C23.0714 6.64885 26.9274 6.64885 30.5746 5.5842C30.9643 5.47082 31.3721 5.69684 31.4846 6.0894C31.5975 6.48195 31.3732 6.89247 30.9832 7.00623C29.0262 7.57766 27.0128 7.86319 24.9998 7.86319Z" fill="#A59AD1"/>
</svg>
