<svg width="50" height="50" viewBox="0 0 50 50" fill="none" xmlns="http://www.w3.org/2000/svg">
<g clip-path="url(#clip0_1430_388)">
<path d="M41.8419 39.3777C41.8419 39.3777 39.3216 47.9768 39.2234 48.3593C39.1115 48.7908 35.0068 58.112 34.5973 59.75C34.1878 61.388 34.4712 65.6329 33.5053 69.578C31.7025 76.9409 30.2734 77.222 29.1373 77.222C26.4073 76.13 27.7723 75.038 26.9533 68.486C26.4073 64.118 25.8613 59.75 23.6773 59.75C21.4933 59.75 21.2203 63.572 20.4013 68.486C19.5823 73.4 21.165 77.222 18.2173 77.222C15.4873 77.222 14.7763 73.0492 13.8493 69.032C12.9222 65.0148 13.3033 63.572 12.7573 60.296C12.2113 57.02 8.24112 48.7908 8.1304 48.358L5.51197 39.3777C5.24104 38.4529 5.11328 37.5281 5.11328 36.6234C5.11328 31.4769 9.25304 26.99 14.6967 26.99C15.6231 26.99 16.519 27.1232 17.3655 27.3704C21.4841 28.571 25.8701 28.571 29.9888 27.3704C30.4118 27.2466 30.8478 27.151 31.2923 27.0877C31.738 27.0231 32.1935 26.99 32.6571 26.99C33.4557 26.99 34.2267 27.0868 34.96 27.2683C40.1052 28.5379 43.4305 33.9647 41.8419 39.3777Z" fill="#DFD9F9"/>
<path d="M30.7631 27.179C30.938 27.1435 31.1145 27.113 31.2925 27.0877C31.7382 27.0231 32.1937 26.99 32.6572 26.99C33.4558 26.99 34.2268 27.0868 34.9601 27.2683C40.1053 28.5379 43.4307 33.9647 41.842 39.3777C41.842 39.3777 39.3217 47.9768 39.2236 48.3593C39.1863 48.503 38.7062 49.6326 38.0673 51.1359C36.7876 54.147 34.8706 58.6575 34.5974 59.75C34.4357 60.397 34.3821 61.4507 34.3168 62.732C34.2169 64.6946 34.0899 67.1911 33.5054 69.578C31.7026 76.9409 30.2736 77.222 29.1374 77.222C27.33 76.499 27.3175 75.776 27.2778 73.4684C27.2576 72.2906 27.2302 70.7 26.9534 68.486C26.5811 65.5075 26.2088 62.529 25.3172 60.9355C34.9601 59.75 40.0574 28.628 30.7631 27.179Z" fill="#A59AD1"/>
<path d="M22.0143 60.9714C21.3959 62.1821 21.079 64.2041 20.6984 66.6319C20.605 67.2275 20.5078 67.8475 20.4014 68.486C20.1169 70.1934 20.1223 71.7691 20.1268 73.0983C20.1328 74.8509 20.1373 76.1753 19.4738 76.8088C17.4779 73.1179 17.6137 61.7042 21.4937 60.842C21.6691 60.8911 21.8426 60.9342 22.0143 60.9714Z" fill="#A59AD1"/>
<path d="M23.677 33.3926C21.4783 33.3926 19.2801 33.0808 17.1427 32.4568C16.7168 32.3325 16.4718 31.8843 16.5951 31.4556C16.7184 31.0269 17.1638 30.7801 17.5888 30.9039C21.5712 32.0665 25.7819 32.0665 29.7647 30.9039C30.1902 30.7801 30.6355 31.0269 30.7584 31.4556C30.8817 31.8843 30.6367 32.3325 30.2109 32.4568C28.0739 33.0808 25.8752 33.3926 23.677 33.3926Z" fill="#A59AD1"/>
<path d="M50.1725 14.1551C50.0392 14.021 49.8805 13.9149 49.7057 13.8429C49.5308 13.7709 49.3434 13.7345 49.1544 13.7358L32.5004 13.7358C32.3385 13.7341 32.1786 13.6999 32.0302 13.6352C31.8817 13.5706 31.7478 13.4768 31.6363 13.3594L27.2773 8.64968C27.052 8.41029 26.7803 8.21931 26.4788 8.0884C26.1772 7.95749 25.8522 7.88939 25.5235 7.88826L8.62236 7.88398C8.46778 7.88362 8.31464 7.9138 8.17176 7.97279C8.02887 8.03177 7.89904 8.11841 7.78974 8.22772C7.68043 8.33703 7.59379 8.46685 7.5348 8.60974C7.47581 8.75262 7.44563 8.90576 7.446 9.06034L7.446 11.7895C7.45548 12.0973 7.58201 12.39 7.7998 12.6078C8.01758 12.8256 8.31023 12.9521 8.61808 12.9616L23.6413 12.9616C23.8087 12.9609 23.9744 12.996 24.1271 13.0647C24.2798 13.1333 24.4161 13.2338 24.5268 13.3594L28.8772 18.3001C29.0995 18.5502 29.3723 18.7504 29.6775 18.8875C29.9827 19.0246 30.3135 19.0956 30.6481 19.0958L49.1501 19.1129C49.3385 19.1136 49.5251 19.077 49.6993 19.0052C49.8735 18.9335 50.0318 18.8279 50.165 18.6947C50.2982 18.5615 50.4037 18.4033 50.4755 18.2291C50.5472 18.0549 50.5838 17.8682 50.5831 17.6799L50.5874 15.1774C50.5892 14.988 50.5534 14.8002 50.4822 14.6247C50.411 14.4492 50.3057 14.2896 50.1725 14.1551ZM30.7978 14.2577C31.2482 14.7021 31.8548 14.9524 32.4875 14.955L49.1415 14.955C49.1726 14.949 49.2047 14.9507 49.2349 14.96C49.2652 14.9693 49.2927 14.9858 49.3151 15.0082C49.3374 15.0306 49.354 15.0581 49.3633 15.0883C49.3725 15.1186 49.3742 15.1506 49.3683 15.1817L49.3683 17.6884C49.3686 17.7183 49.363 17.748 49.3518 17.7756C49.3405 17.8033 49.3239 17.8285 49.3027 17.8496C49.2816 17.8707 49.2564 17.8874 49.2288 17.8987C49.2011 17.9099 49.1714 17.9155 49.1415 17.9151L30.6695 17.9023C30.5019 17.9042 30.3359 17.8696 30.183 17.8009C30.0301 17.7322 29.8939 17.631 29.784 17.5045L25.4294 12.5595C25.2074 12.3081 24.934 12.1074 24.6277 11.9709C24.3215 11.8343 23.9894 11.7652 23.6541 11.7681L8.61808 11.7467L8.66514 9.06462L25.5235 9.09456C25.6854 9.0963 25.8452 9.13052 25.9937 9.19518C26.1421 9.25984 26.276 9.35363 26.3876 9.471L30.7465 14.1807L30.7978 14.2577Z" fill="#9B8DD1"/>
<path d="M30.7978 14.2577C31.2482 14.7021 31.8548 14.9524 32.4875 14.955L49.1415 14.955C49.1726 14.949 49.2047 14.9507 49.2349 14.96C49.2652 14.9693 49.2927 14.9858 49.3151 15.0082C49.3374 15.0306 49.354 15.0581 49.3633 15.0883C49.3725 15.1186 49.3742 15.1506 49.3683 15.1817L49.3683 17.6884C49.3686 17.7183 49.363 17.748 49.3518 17.7756C49.3405 17.8033 49.3239 17.8285 49.3027 17.8496C49.2816 17.8707 49.2564 17.8874 49.2288 17.8987C49.2011 17.9099 49.1714 17.9155 49.1415 17.9151L30.6695 17.9023C30.5019 17.9042 30.3359 17.8696 30.183 17.8009C30.0301 17.7322 29.8939 17.631 29.784 17.5045L25.4294 12.5595C25.2074 12.3081 24.934 12.1074 24.6277 11.9709C24.3215 11.8343 23.9894 11.7652 23.6541 11.7681L8.61808 11.7467L8.66514 9.06462L25.5235 9.09456C25.6854 9.0963 25.8452 9.13052 25.9937 9.19518C26.1421 9.25984 26.276 9.35363 26.3876 9.471L30.7465 14.1807L30.7978 14.2577Z" fill="#9B8DD1"/>
<path d="M24.0988 11.9782C24.0428 11.9215 23.9762 11.8765 23.9028 11.8457C23.8294 11.8149 23.7507 11.7988 23.6711 11.7985C23.613 11.798 23.5553 11.8066 23.4999 11.8242C23.4084 11.7691 23.3031 11.7409 23.1962 11.7429L9.43066 11.7686C9.27084 11.769 9.11771 11.8327 9.0047 11.9457C8.89169 12.0588 8.82799 12.2119 8.82751 12.3717L8.82751 20.3025C8.83699 20.649 8.97884 20.9786 9.2239 21.2237C9.46896 21.4687 9.7986 21.6106 10.145 21.6201L22.9781 21.62C23.3274 21.6197 23.6623 21.4808 23.9093 21.2338C24.1563 20.9868 24.2953 20.6518 24.2956 20.3025L24.2956 12.4316C24.2966 12.3464 24.2795 12.262 24.2456 12.1839C24.2117 12.1057 24.1617 12.0356 24.0988 11.9782ZM10.0167 12.9535L23.0636 12.9535L23.0593 20.2811C23.0602 20.2948 23.0581 20.3086 23.0533 20.3214C23.0484 20.3343 23.0409 20.3459 23.0312 20.3556C23.0215 20.3654 23.0098 20.3729 22.997 20.3777C22.9841 20.3826 22.9704 20.3847 22.9567 20.3838L10.1236 20.3838C10.0963 20.3808 10.0708 20.3685 10.0514 20.3491C10.032 20.3297 10.0197 20.3042 10.0167 20.2769L10.0167 12.9535Z" fill="#C9D3EF"/>
<path d="M10.0167 12.9535L23.0636 12.9535L23.0593 20.2811C23.0602 20.2948 23.0581 20.3086 23.0533 20.3214C23.0484 20.3343 23.0409 20.3459 23.0312 20.3556C23.0215 20.3654 23.0098 20.3729 22.997 20.3777C22.9841 20.3826 22.9704 20.3847 22.9567 20.3838L10.1236 20.3838C10.0963 20.3808 10.0708 20.3685 10.0514 20.3491C10.032 20.3297 10.0197 20.3042 10.0167 20.2769L10.0167 12.9535Z" fill="#C9D3EF"/>
<path d="M20.6079 11.9092C20.523 11.8249 20.415 11.7678 20.2975 11.7449C20.1801 11.7221 20.0585 11.7345 19.9482 11.7808C19.8378 11.827 19.7436 11.905 19.6776 12.0047C19.6115 12.1045 19.5765 12.2216 19.577 12.3412L19.577 17.7327C19.5775 17.8925 19.6412 18.0456 19.7542 18.1586C19.8672 18.2716 20.0204 18.3353 20.1802 18.3358C20.26 18.3361 20.3392 18.3207 20.413 18.2902C20.4869 18.2598 20.554 18.2151 20.6104 18.1586C20.6669 18.1022 20.7116 18.0351 20.742 17.9612C20.7724 17.8874 20.7879 17.8082 20.7876 17.7284L20.7876 12.3369C20.7873 12.2573 20.7712 12.1785 20.7404 12.1051C20.7096 12.0317 20.6646 11.9651 20.6079 11.9092Z" fill="#7788BA"/>
<path d="M16.7921 11.9266C16.7361 11.8699 16.6695 11.8249 16.5961 11.7941C16.5227 11.7633 16.4439 11.7472 16.3643 11.7469C16.2045 11.7474 16.0514 11.8111 15.9383 11.9241C15.8253 12.0371 15.7616 12.1902 15.7612 12.3501L15.7654 17.7458C15.7659 17.9056 15.8296 18.0587 15.9426 18.1717C16.0556 18.2848 16.2088 18.3485 16.3686 18.3489C16.5284 18.3485 16.6815 18.2848 16.7946 18.1717C16.9076 18.0587 16.9713 17.9056 16.9717 17.7458L16.9717 12.3543C16.9714 12.2747 16.9554 12.1959 16.9246 12.1225C16.8937 12.0491 16.8487 11.9825 16.7921 11.9266Z" fill="#7788BA"/>
<path d="M12.9894 11.9223C12.9049 11.8368 12.7969 11.7785 12.6791 11.7546C12.5613 11.7308 12.4391 11.7426 12.3281 11.7885C12.217 11.8344 12.1222 11.9123 12.0556 12.0123C11.989 12.1123 11.9537 12.2299 11.9542 12.3501L11.9542 17.7415C11.9538 17.8214 11.9693 17.9005 11.9997 17.9743C12.0302 18.0482 12.0749 18.1153 12.1314 18.1718C12.1878 18.2282 12.2549 18.273 12.3288 18.3034C12.4026 18.3338 12.4817 18.3493 12.5616 18.3489C12.7214 18.3485 12.8746 18.2848 12.9876 18.1718C13.1006 18.0587 13.1643 17.9056 13.1648 17.7458L13.1648 12.3543C13.1656 12.2743 13.1505 12.1949 13.1204 12.1207C13.0903 12.0466 13.0457 11.9791 12.9894 11.9223Z" fill="#7788BA"/>
</g>
<defs>
<clipPath id="clip0_1430_388">
<rect width="50" height="50" fill="white"/>
</clipPath>
</defs>
</svg>
