<svg width="50" height="50" viewBox="0 0 50 50" fill="none" xmlns="http://www.w3.org/2000/svg">
<g clip-path="url(#clip0_1430_376)">
<path d="M16 37H12.5V43L18.5 52H33L37 37H31.5C31.8333 40 29.7 51.5 24.5 44C19.3 51.5 17.1667 40.6667 16 37Z" fill="#8596C6"/>
<path d="M35.3434 37.6485C34.5096 42.7283 33.0261 51.7659 27.7706 51.7659C27.7706 51.7659 25.7501 51.7659 24.751 48.5851C23.2501 51.5107 22.8334 51.7659 20.5461 51.7659C16.1668 51.7659 13.5776 40.635 13.3216 37.0216L2.81745 37C1 37.699 1 39.6842 1 39.6842V54H48.9839V39.6842C48.9839 39.6842 49.2963 37.699 47.1665 37L35.4467 37.0216C35.4133 37.2227 35.3789 37.432 35.3434 37.6485Z" fill="#C9D3EF"/>
<path d="M36.7203 14.1381C36.7203 14.1381 34.9554 19.7873 34.8867 20.0386C34.8083 20.3221 31.9338 26.4457 31.6471 27.5217C31.3603 28.5978 31.5588 31.3865 30.8824 33.9783C29.6199 38.8153 28.6192 39 27.8235 39C25.9118 38.2826 26.8677 37.5652 26.2941 33.2609C25.9118 30.3913 25.5294 27.5217 24 27.5217C22.4706 27.5217 22.2794 30.0326 21.7059 33.2609C21.1324 36.4891 22.2407 39 20.1765 39C18.2647 39 17.7668 36.2587 17.1177 33.6196C16.4685 30.9804 16.7353 30.0326 16.3529 27.8804C15.9706 25.7283 13.1904 20.3221 13.1128 20.0378L11.2792 14.1381C11.0895 13.5306 11 12.9231 11 12.3287C11 8.94769 13.899 6 17.7111 6C18.3598 6 18.9872 6.08752 19.58 6.24994C22.4642 7.03867 25.5356 7.03867 28.4198 6.24994C28.7161 6.16859 29.0214 6.10577 29.3327 6.06416C29.6448 6.02175 29.9638 6 30.2884 6C30.8476 6 31.3876 6.06363 31.9011 6.18282C35.5041 7.01693 37.8328 10.5821 36.7203 14.1381Z" fill="#DFD9F9"/>
<path d="M28.9615 6.12415C29.084 6.10087 29.2077 6.08082 29.3322 6.06416C29.6444 6.02175 29.9633 6 30.288 6C30.8472 6 31.3871 6.06363 31.9006 6.18282C35.5037 7.01693 37.8324 10.5821 36.7199 14.1381C36.7199 14.1381 34.955 19.7873 34.8863 20.0386C34.8602 20.133 34.524 20.8751 34.0765 21.8627C33.1804 23.8408 31.8379 26.804 31.6467 27.5217C31.5334 27.9468 31.4958 28.639 31.4502 29.4808C31.3802 30.7701 31.2912 32.4102 30.882 33.9783C29.6195 38.8153 28.6187 39 27.8231 39C26.5574 38.525 26.5487 38.0501 26.5209 36.5341C26.5067 35.7603 26.4875 34.7154 26.2937 33.2609C26.033 31.3042 25.7723 29.3475 25.1479 28.3005C31.9006 27.5217 35.4701 7.07609 28.9615 6.12415Z" fill="#BDB3E4"/>
<path d="M22.8349 28.3241C22.4019 29.1195 22.1799 30.4479 21.9134 32.0429C21.8481 32.4341 21.78 32.8414 21.7055 33.2609C21.5062 34.3826 21.51 35.4177 21.5131 36.2909C21.5173 37.4423 21.5205 38.3124 21.0559 38.7285C19.6582 36.3038 19.7533 28.8055 22.4703 28.2391C22.5932 28.2714 22.7147 28.2997 22.8349 28.3241Z" fill="#BDB3E4"/>
<path d="M24.2052 11.3749C22.2379 11.3749 20.2709 11.1132 18.3583 10.5894C17.9773 10.4851 17.7581 10.1088 17.8684 9.74896C17.9787 9.38912 18.3772 9.18193 18.7575 9.28587C22.321 10.2618 26.0888 10.2618 29.6526 9.28587C30.0333 9.18193 30.4318 9.38912 30.5417 9.74896C30.6521 10.1088 30.4329 10.4851 30.0518 10.5894C28.1396 11.1132 26.1722 11.3749 24.2052 11.3749Z" fill="#A59AD1"/>
<path d="M8.12648 2.00038C8.22762 2.00031 8.32486 2.03852 8.39779 2.10701C8.47071 2.17549 8.51366 2.26892 8.5176 2.36768L9.13674 17.839C9.2723 19.7049 9.87844 21.5089 10.9011 23.0901C11.7463 24.4312 12.9753 25.5006 14.436 26.1661C14.603 26.2424 14.7446 26.3632 14.8444 26.5147C14.9442 26.6662 14.9981 26.8421 15 27.0223C15.0014 27.1804 14.9632 27.3364 14.8887 27.4768C14.8142 27.6172 14.7058 27.7376 14.5727 27.8276C14.4397 27.9176 14.2862 27.9745 14.1255 27.9932C13.9649 28.0119 13.8019 27.9919 13.651 27.935L13.2877 27.7978C11.3735 27.0754 9.69134 25.3134 8.3811 23.4513C7.45265 22.0973 6.80634 20.5777 6.4791 18.9795C5.98864 16.7245 5.16065 4.76488 5.00068 2.40476C4.99753 2.3527 5.00532 2.30057 5.02356 2.25156C5.0418 2.20255 5.07011 2.15771 5.10675 2.1198C5.14338 2.08188 5.18757 2.0517 5.23659 2.03109C5.28562 2.01049 5.33843 1.99991 5.3918 2L8.12648 2.00038Z" fill="#897BC3"/>
<path d="M39.8731 2.00229C39.772 2.00222 39.6747 2.04043 39.6018 2.10892C39.5289 2.1774 39.486 2.27083 39.482 2.36959L38.8633 17.839C38.7277 19.7049 38.1216 21.5089 37.0989 23.0901C36.2537 24.4312 35.0247 25.5006 33.564 26.1661C33.397 26.2424 33.2554 26.3632 33.1556 26.5147C33.0558 26.6662 33.0019 26.8421 33 27.0223C32.9986 27.1804 33.0368 27.3364 33.1113 27.4768C33.1857 27.6172 33.2942 27.7376 33.4273 27.8276C33.5603 27.9176 33.7138 27.9745 33.8745 27.9932C34.0351 28.0119 34.198 27.9919 34.349 27.935L34.7123 27.7978C36.6265 27.0754 38.3087 25.3134 39.6189 23.4513C40.5473 22.0973 41.1937 20.5777 41.5209 18.9795C42.0114 16.7245 42.8394 4.76488 42.9993 2.40476C43.0025 2.3527 42.9947 2.30057 42.9764 2.25156C42.9582 2.20255 42.9299 2.15771 42.8933 2.1198C42.8566 2.08188 42.8124 2.0517 42.7634 2.03109C42.7144 2.01049 42.6616 1.99991 42.6082 2L39.8731 2.00229Z" fill="#897BC3"/>
</g>
<defs>
<clipPath id="clip0_1430_376">
<rect width="50" height="50" fill="white"/>
</clipPath>
</defs>
</svg>
