<svg width="50" height="50" viewBox="0 0 50 50" fill="none" xmlns="http://www.w3.org/2000/svg">
<path d="M42.664 17.1731C42.664 17.1731 40.5444 24.4049 40.4619 24.7266C40.3677 25.0895 36.9157 32.9286 36.5713 34.3061C36.2269 35.6837 36.4653 39.2536 35.6529 42.5715C34.1368 48.7636 32.935 49 31.9795 49C29.6836 48.0817 30.8315 47.1633 30.1427 41.6531C29.6836 37.9796 29.2244 34.3061 27.3876 34.3061C25.5509 34.3061 25.3213 37.5204 24.6325 41.6531C23.9438 45.7857 25.2748 49 22.7958 49C20.4999 49 19.902 45.4907 19.1223 42.1123C18.3427 38.7338 18.6631 37.5204 18.204 34.7653C17.7448 32.0102 14.4059 25.0895 14.3128 24.7256L12.1107 17.1731C11.8828 16.3954 11.7754 15.6177 11.7754 14.8568C11.7754 10.5286 15.2569 6.75513 19.835 6.75513C20.6141 6.75513 21.3676 6.86716 22.0794 7.07508C25.5432 8.08478 29.2318 8.08478 32.6956 7.07508C33.0513 6.97095 33.418 6.89053 33.7918 6.83726C34.1667 6.78296 34.5497 6.75513 34.9396 6.75513C35.6112 6.75513 36.2596 6.83658 36.8763 6.98917C41.2034 8.05694 44 12.6209 42.664 17.1731Z" fill="#ACB7D8"/>
<mask id="mask0_1430_486" style="mask-type:alpha" maskUnits="userSpaceOnUse" x="11" y="6" width="32" height="43">
<path d="M42.664 17.1731C42.664 17.1731 40.5444 24.4049 40.4619 24.7266C40.3677 25.0895 36.9157 32.9286 36.5713 34.3061C36.2269 35.6837 36.4653 39.2536 35.6529 42.5715C34.1368 48.7636 32.935 49 31.9795 49C29.6836 48.0817 30.8315 47.1633 30.1427 41.6531C29.6836 37.9796 29.2244 34.3061 27.3876 34.3061C25.5509 34.3061 25.3213 37.5204 24.6325 41.6531C23.9438 45.7857 25.2748 49 22.7958 49C20.4999 49 19.902 45.4907 19.1223 42.1123C18.3427 38.7338 18.6631 37.5204 18.204 34.7653C17.7448 32.0102 14.4059 25.0895 14.3128 24.7256L12.1107 17.1731C11.8828 16.3954 11.7754 15.6177 11.7754 14.8568C11.7754 10.5286 15.2569 6.75513 19.835 6.75513C20.6141 6.75513 21.3676 6.86716 22.0794 7.07508C25.5432 8.08478 29.2318 8.08478 32.6956 7.07508C33.0513 6.97095 33.418 6.89053 33.7918 6.83726C34.1667 6.78296 34.5497 6.75513 34.9396 6.75513C35.6112 6.75513 36.2596 6.83658 36.8763 6.98917C41.2034 8.05694 44 12.6209 42.664 17.1731Z" fill="#C9D3EF"/>
</mask>
<g mask="url(#mask0_1430_486)">
<path d="M27 28C21.4 24.8 15.6667 26.6667 13.5 28L8 10.5L30.5 0.5L44.5 10.5L37 36C36 34.6667 32.6 31.2 27 28Z" fill="#8596C6"/>
</g>
<path d="M33.6865 19.9715C33.769 19.6498 35.8886 12.418 35.8886 12.418C37.2246 7.86574 34.428 3.30182 30.1009 2.23404C29.4842 2.08145 28.8358 2 28.1642 2C27.7744 2 27.3913 2.02784 27.0164 2.08214C26.6426 2.13541 26.2759 2.21582 25.9202 2.31996C22.4564 3.32966 18.7678 3.32966 15.304 2.31996C14.5922 2.11204 13.8387 2 13.0597 2C8.48152 2 5 5.77348 5 10.1017C5 10.8625 5.10744 11.6403 5.33529 12.418L7.53738 19.9704C7.59998 20.2151 9.12954 23.4232 10.2649 26.3367C11.8773 25.1122 16.2041 22.7551 20.6122 23.1224C25.0204 23.4898 29.3865 25.4184 31.0186 26.3367C32.1421 23.6096 33.6252 20.2076 33.6865 19.9715Z" fill="#DFD8F9"/>
<path d="M27.0272 2.08214C26.8776 2.10346 26.7291 2.12913 26.582 2.15893C32.1999 3.03478 31.5657 16.8013 27.7536 24.8466L31.0484 26.2906C31.5925 24.9708 32.2181 23.499 32.7248 22.3067L32.7248 22.3066C33.2622 21.0423 33.6659 20.0923 33.6973 19.9715C33.7798 19.6498 35.8994 12.418 35.8994 12.418C37.2354 7.86574 34.4388 3.30182 30.1117 2.23404C29.495 2.08145 28.8466 2 28.175 2C27.7851 2 27.4021 2.02784 27.0272 2.08214Z" fill="#BDB3E4"/>
<path d="M19.5013 7.31673C17.492 7.30851 15.4833 7.017 13.5304 6.44206C13.1413 6.3276 12.9178 5.91939 13.0307 5.53038C13.1437 5.14138 13.5508 4.91879 13.9392 5.03288C17.5778 6.10406 21.4258 6.11982 25.0663 5.07843C25.4552 4.96753 25.862 5.19345 25.974 5.58338C26.0864 5.97331 25.8622 6.37968 25.473 6.49096C23.5196 7.0499 21.5102 7.32496 19.5013 7.31673Z" fill="#A59AD1"/>
</svg>
