<svg width="221" height="281" viewBox="0 0 221 281" fill="none" xmlns="http://www.w3.org/2000/svg">
<g opacity="0.17" clip-path="url(#clip0_1430_196)">
<path d="M41.7598 255.489C41.7598 255.489 -14.9264 214.632 4.32739 142.776C25.718 62.9452 88.1372 48.9333 88.1372 48.9333C88.1372 48.9333 65.1604 73.5138 78.7978 85.7215C78.7978 85.7215 128.506 5.78757 205.917 0.862389C205.917 0.862389 174.052 20.6129 176.993 72.7421C179.933 124.871 230.496 149.946 217.318 202.992L215.659 209.183C211.476 227.278 202.045 243.729 188.577 256.427C171.278 272.343 152.777 285.236 120.639 276.624L41.7598 255.489Z" fill="#D5D4EF"/>
<path d="M48.8433 257.387C36.0049 247.379 26.4008 233.744 21.2364 218.193C16.072 202.643 15.5774 185.869 19.8147 169.979C36.4042 108.065 73.6251 91.4955 73.6251 91.4955C73.6251 91.4955 66.9893 116.261 77.5643 125.73C77.5643 125.73 113.024 42.33 173.054 38.5075C173.054 38.5075 151.385 45.973 153.665 86.3989C155.945 126.825 207.68 153.959 191.091 215.872L189.646 221.264C185.976 235.829 178.267 249.054 167.429 259.38C159.937 266.679 150.679 271.856 140.594 274.385C130.51 276.914 119.959 276.704 110.013 273.777L48.8433 257.387Z" fill="#B0AEE9"/>
<path d="M57.1381 226.43C55.9285 226.106 54.8434 225.426 54.02 224.476C53.1966 223.526 52.6719 222.349 52.5121 221.094C52.3523 219.839 52.5647 218.562 53.1223 217.424C53.68 216.286 54.558 215.339 55.6452 214.703L148.957 160.076C150.413 159.257 152.125 159.047 153.725 159.491C155.325 159.935 156.685 160.997 157.511 162.449C158.338 163.9 158.565 165.626 158.144 167.253C157.723 168.88 156.688 170.279 155.26 171.148L61.9489 225.775C60.4908 226.629 58.7604 226.864 57.1381 226.43V226.43Z" fill="#6F6CC7"/>
<path d="M110.532 247.373C106.903 246.4 103.647 244.36 101.176 241.511C98.7047 238.661 97.1299 235.13 96.6504 231.364C96.1708 227.598 96.8081 223.766 98.4816 220.353C100.155 216.939 102.79 214.098 106.052 212.188C109.315 210.278 113.058 209.385 116.81 209.623C120.562 209.86 124.153 211.216 127.13 213.52C130.106 215.825 132.334 218.973 133.532 222.568C134.73 226.163 134.844 230.042 133.86 233.716C132.54 238.642 129.341 242.848 124.966 245.41C120.591 247.971 115.399 248.677 110.532 247.373V247.373ZM117.168 222.608C115.958 222.283 114.678 222.33 113.49 222.74C112.302 223.151 111.259 223.908 110.493 224.915C109.726 225.923 109.272 227.135 109.186 228.399C109.1 229.663 109.387 230.923 110.011 232.018C110.634 233.113 111.566 233.995 112.689 234.551C113.811 235.108 115.074 235.315 116.317 235.146C117.561 234.977 118.729 234.439 119.674 233.601C120.618 232.763 121.298 231.662 121.626 230.438C122.066 228.796 121.844 227.048 121.007 225.58C120.171 224.111 118.79 223.042 117.168 222.608Z" fill="#6F6CC7"/>
<path d="M90.4196 175.625C86.7902 174.653 83.5341 172.613 81.0631 169.763C78.5922 166.914 77.0174 163.383 76.5378 159.617C76.0583 155.85 76.6955 152.018 78.369 148.605C80.0425 145.192 82.6771 142.351 85.9395 140.441C89.202 138.531 92.9458 137.638 96.6976 137.875C100.449 138.112 104.041 139.469 107.017 141.773C109.994 144.077 112.222 147.226 113.42 150.821C114.618 154.416 114.732 158.295 113.748 161.969C112.428 166.895 109.228 171.101 104.853 173.662C100.479 176.223 95.2866 176.93 90.4196 175.625ZM97.0555 150.86C95.8456 150.536 94.5657 150.582 93.3775 150.993C92.1892 151.404 91.1461 152.161 90.38 153.168C89.6139 154.175 89.1592 155.388 89.0734 156.652C88.9876 157.916 89.2746 159.175 89.8981 160.27C90.5215 161.366 91.4535 162.247 92.5761 162.804C93.6986 163.361 94.9614 163.568 96.2047 163.399C97.448 163.23 98.616 162.692 99.561 161.854C100.506 161.016 101.185 159.915 101.514 158.691C101.954 157.048 101.731 155.301 100.895 153.833C100.059 152.364 98.6778 151.295 97.0555 150.86Z" fill="#6F6CC7"/>
</g>
<defs>
<clipPath id="clip0_1430_196">
<rect width="221" height="281" fill="white"/>
</clipPath>
</defs>
</svg>
