<svg width="50" height="50" viewBox="0 0 50 50" fill="none" xmlns="http://www.w3.org/2000/svg">
<g clip-path="url(#clip0_3191_16707)">
<path d="M7.18525 20.8203C9.60174 24.2785 13.2161 27.3428 17.934 29.9338C18.1033 30.0273 18.2746 30.1198 18.4468 30.2114C19.107 30.5633 19.8435 30.7475 20.5916 30.7479C21.3401 30.748 22.0771 30.5638 22.7374 30.2114C27.7062 27.5624 31.4949 24.4025 33.998 20.8203C36.1674 17.7156 37.2679 14.4071 37.1783 11.2502C37.071 7.41987 35.1428 4.17934 32.1465 2.79233C30.2851 1.93098 28.1905 1.8414 26.0594 2.4852C24.5318 2.94491 22.9855 3.78066 21.4922 4.97769C20.9706 5.39606 20.2126 5.39606 19.691 4.97769C16.115 2.11014 12.2318 1.31377 9.03778 2.79233C6.04148 4.17934 4.11226 7.41997 4.00496 11.2502C3.91637 14.407 5.01584 17.7156 7.18525 20.8203Z" fill="#DFD9F9"/>
<path d="M17.9339 29.9337C18.1033 30.0272 18.2746 30.1198 18.4468 30.2113C19.107 30.5632 19.8435 30.7475 20.5916 30.7478C21.3401 30.748 22.0771 30.5637 22.7374 30.2113C27.7062 27.5623 31.4949 24.4024 33.998 20.8203C36.1674 17.7155 37.2679 14.407 37.1783 11.2501C37.071 7.4198 35.1428 4.17927 32.1465 2.79226C30.2851 1.93091 28.1905 1.84133 26.0594 2.48513C26.3203 2.57274 26.5782 2.67512 26.8311 2.79226C29.8273 4.17927 31.7556 7.4199 31.8629 11.2501C31.9525 14.407 30.8521 17.7155 28.6827 20.8203C26.2662 24.2784 22.6518 27.3428 17.9339 29.9337Z" fill="#B6ABE2"/>
<path d="M14.1145 17.0646C14.1145 16.0727 14.9201 15.2686 15.9137 15.2686H18.7929V12.3939C18.7929 11.4021 19.5984 10.5979 20.5921 10.5979C21.5857 10.5979 22.3912 11.402 22.3912 12.3939V15.2686H25.2704C26.264 15.2686 27.0696 16.0726 27.0696 17.0646C27.0696 18.0565 26.264 18.8606 25.2704 18.8606H22.3912V21.7352C22.3912 22.7271 21.5857 23.5313 20.5921 23.5313C19.5984 23.5313 18.7929 22.7272 18.7929 21.7352V18.8606H15.9137C14.9201 18.8605 14.1145 18.0565 14.1145 17.0646Z" fill="#9889D0"/>
<path d="M5.85264 41.6867C13.7797 48.6596 20.6189 48.5952 23.9057 48.566C31.1565 48.566 36.5616 47.1961 38.7949 46.3814C39.4763 46.1322 40.2601 46.3067 40.7911 46.8249C42.5775 48.5677 44.5978 49.4537 45.9787 49.8903C46.1308 49.9384 46.2846 49.971 46.4392 49.9865C46.5209 49.996 46.6025 50.0003 46.6833 50.0003C47.1662 50.0003 47.6406 49.8464 48.047 49.5491C48.6528 49.1056 49 48.4207 49 47.6696V39.0029C49 37.8986 48.2069 36.9378 47.1147 36.7187C46.386 36.5726 45.2947 36.1077 44.2309 34.7258C42.5656 32.5619 40.1337 31.3725 37.5601 31.4585C36.3287 31.5006 35.1248 31.822 33.9991 32.3926H33.9982C32.4893 33.1566 31.1213 34.3674 30.0197 35.9469C28.9765 36.1377 24.8905 36.7942 21.8589 35.995C20.6464 35.6753 19.543 35.9099 18.8307 36.6395C18.2112 37.2729 17.9817 38.2027 18.2309 39.0664C18.4999 39.9988 19.2586 40.7027 20.3293 41.0258C17.0279 41.9565 14.2756 40.4303 11.8067 39.0595C10.4327 38.2981 9.1352 37.578 7.88317 37.3769C6.76435 37.1981 5.72889 37.7438 5.24687 38.7691C4.7639 39.7927 5.00195 40.9382 5.85264 41.6867Z" fill="#C6D1ED"/>
<path d="M19.8527 40.2488C19.9354 39.9027 20.2835 39.6884 20.6294 39.772C25.4543 40.9265 29.5582 39.9665 29.5984 39.9568C29.7646 39.9166 29.9399 39.9439 30.0858 40.0329C30.2318 40.1219 30.3364 40.2653 30.3766 40.4314C30.4169 40.5975 30.3895 40.7729 30.3005 40.9188C30.2115 41.0647 30.0682 41.1694 29.9021 41.2096C29.7908 41.2365 28.0986 41.6357 25.5955 41.6357C24.0804 41.6357 22.2676 41.4893 20.3295 41.0255C20.2472 41.0059 20.1695 40.9701 20.101 40.9205C20.0325 40.8708 19.9745 40.8081 19.9302 40.7359C19.8859 40.6638 19.8563 40.5837 19.843 40.5001C19.8297 40.4165 19.833 40.3311 19.8527 40.2488Z" fill="#8596C6"/>
<path d="M33.9991 32.3927C36.2668 32.5903 39.6808 33.7883 42.1135 37.9278C42.7304 38.9771 43.4746 39.5435 44.1045 39.8477C44.9328 40.2481 45.4699 41.074 45.4699 41.9935V47.5829C45.4699 47.5829 45.4192 48.7757 46.4392 49.9866C46.5209 49.996 46.6025 50.0003 46.6833 50.0003C47.1662 50.0003 47.6406 49.8465 48.047 49.5492C48.6528 49.1056 49 48.4207 49 47.6696V39.0029C49 37.8986 48.2069 36.9378 47.1147 36.7187C46.386 36.5726 45.2947 36.1077 44.2309 34.7258C42.5656 32.5619 40.1337 31.3725 37.5601 31.4585C36.3287 31.5007 35.1248 31.8221 33.9991 32.3927Z" fill="#8596C6"/>
<path d="M43.7069 20.5934L41.9817 20.0183L41.4066 18.2931C41.3483 18.1181 41.1845 18 41 18C40.8155 18 40.6518 18.118 40.5934 18.2931L40.0183 20.0183L38.2931 20.5934C38.1181 20.6517 38 20.8155 38 21C38 21.1845 38.118 21.3482 38.2931 21.4066L40.0183 21.9817L40.5934 23.7069C40.6517 23.8819 40.8155 24 41 24C41.1845 24 41.3482 23.882 41.4066 23.7069L41.9817 21.9817L43.7069 21.4066C43.8819 21.3483 44 21.1845 44 21C44 20.8155 43.882 20.6518 43.7069 20.5934ZM41.5073 21.2363C41.3794 21.2789 41.2789 21.3793 41.2363 21.5073L41 22.2162L40.7637 21.5073C40.7211 21.3794 40.6207 21.2789 40.4927 21.2363L39.7838 21L40.4927 20.7637C40.6206 20.7211 40.7211 20.6207 40.7637 20.4927L41 19.7838L41.2363 20.4927C41.2789 20.6206 41.3793 20.7211 41.5073 20.7637L42.2162 21L41.5073 21.2363Z" fill="#8596C6"/>
<path d="M41.5073 21.2363C41.3794 21.2789 41.2789 21.3793 41.2363 21.5073L41 22.2162L40.7637 21.5073C40.7211 21.3794 40.6207 21.2789 40.4927 21.2363L39.7838 21L40.4927 20.7637C40.6206 20.7211 40.7211 20.6207 40.7637 20.4927L41 19.7838L41.2363 20.4927C41.2789 20.6206 41.3793 20.7211 41.5073 20.7637L42.2162 21L41.5073 21.2363Z" fill="#8596C6"/>
<path d="M10.6581 30.0257L8.64528 29.3547L7.97434 27.3419C7.90629 27.1377 7.7152 27 7.5 27C7.2848 27 7.09376 27.1377 7.02566 27.3419L6.35472 29.3547L4.3419 30.0257C4.13775 30.0937 4 30.2848 4 30.5C4 30.7152 4.1377 30.9062 4.3419 30.9743L6.35472 31.6453L7.02566 33.6581C7.09371 33.8623 7.2848 34 7.5 34C7.7152 34 7.90624 33.8623 7.97434 33.6581L8.64528 31.6453L10.6581 30.9743C10.8623 30.9063 11 30.7152 11 30.5C11 30.2848 10.8623 30.0938 10.6581 30.0257ZM8.09189 30.7756C7.94259 30.8254 7.8254 30.9425 7.77565 31.0919L7.5 31.9189L7.22435 31.0919C7.1746 30.9426 7.05746 30.8254 6.90811 30.7756L6.08112 30.5L6.90811 30.2244C7.05741 30.1746 7.1746 30.0575 7.22435 29.9081L7.5 29.0811L7.77565 29.9081C7.8254 30.0574 7.94254 30.1746 8.09189 30.2244L8.91888 30.5L8.09189 30.7756Z" fill="#BAC9F3"/>
<path d="M8.09189 30.7756C7.94259 30.8254 7.8254 30.9425 7.77565 31.0919L7.5 31.9189L7.22435 31.0919C7.1746 30.9426 7.05746 30.8254 6.90811 30.7756L6.08112 30.5L6.90811 30.2244C7.05741 30.1746 7.1746 30.0575 7.22435 29.9081L7.5 29.0811L7.77565 29.9081C7.8254 30.0574 7.94254 30.1746 8.09189 30.2244L8.91888 30.5L8.09189 30.7756Z" fill="#BAC9F3"/>
</g>
<defs>
<clipPath id="clip0_3191_16707">
<rect width="50" height="50" fill="white"/>
</clipPath>
</defs>
</svg>
