<svg width="50" height="50" viewBox="0 0 50 50" fill="none" xmlns="http://www.w3.org/2000/svg">
<path d="M4.99979 24.3824V33.6174C4.99979 36.9755 7.72195 39.698 11.0804 39.698L22.0286 40.5346L37.7383 39.698L34.3344 33.3324H29.0202C31.9548 33.3324 34.3344 30.954 34.3344 28.0193V24.3824C34.3344 21.0243 31.6119 18.3018 28.2538 18.3018H11.0804C7.72195 18.3018 4.99979 21.0243 4.99979 24.3824Z" fill="#BDB3E4"/>
<path d="M4.99998 24.3824V31.4743C4.99998 34.8324 7.72215 37.5549 11.0806 37.5549H29.8447V33.3324H24.5305C26.2776 33.3324 27.8275 32.4898 28.7957 31.1897C29.4549 30.3051 29.8447 29.2072 29.8447 28.0193V24.3824C29.8447 21.0243 27.1222 18.3018 23.7641 18.3018H11.0806C7.72215 18.3018 4.99998 21.0243 4.99998 24.3824Z" fill="#DFD8F9"/>
<path d="M14.5012 34.0978H29.0207C29.1336 34.0978 29.2366 34.0951 29.3358 34.0894C29.7577 34.0653 30.0804 33.7037 30.0564 33.2818C30.0319 32.8595 29.6695 32.5372 29.2484 32.5612C29.1786 32.565 29.1042 32.5673 29.0207 32.5673H14.5012C13.1939 32.5673 12.13 31.5034 12.13 30.1957V29.2478C12.13 27.9401 13.1939 26.8762 14.5012 26.8762H27.6993C28.1219 26.8762 28.4645 26.5336 28.4645 26.1109C28.4645 25.6883 28.1219 25.3457 27.6993 25.3457H14.5012C12.3497 25.3457 10.5991 27.0963 10.5991 29.2478V30.1957C10.5991 32.3476 12.3497 34.0978 14.5012 34.0978Z" fill="#BDB3E4"/>
<path d="M19.0341 18.4403C21.3791 18.6547 23.7985 17.8643 25.5938 16.0689C27.39 14.2735 28.1794 11.8539 27.9659 9.50866C27.3876 9.45613 26.804 9.46442 26.2265 9.53323C24.4641 9.74549 22.7576 10.5275 21.4052 11.88C19.6103 13.6754 18.8206 16.0953 19.0341 18.4403Z" fill="#8596C6"/>
<path d="M19.0328 18.4746C21.2863 18.1872 23.4063 16.892 24.7339 14.7361C25.7332 13.1128 26.1237 11.2605 25.9662 9.47461C24.2673 9.68908 22.6223 10.4793 21.3186 11.8459C19.5883 13.66 18.8271 16.1052 19.0328 18.4746Z" fill="#BAC9F3"/>
<path d="M13.1389 16.069C14.7344 17.8644 16.8854 18.6547 18.9696 18.4403C19.1597 16.0954 18.4577 13.6756 16.8621 11.8802C16.3843 11.343 15.8571 10.8951 15.2961 10.5385C13.9844 9.7021 12.491 9.35869 11.0303 9.50889C10.8405 11.8541 11.5422 14.2736 13.1389 16.069Z" fill="#BAC9F3"/>
<path d="M15.1251 12.714C15.5547 15.2444 17.0175 17.2982 18.9675 18.4746C19.171 16.1006 18.4192 13.6507 16.7101 11.833C16.1983 11.2891 15.6336 10.8357 15.0327 10.4746C14.9695 11.2051 14.9967 11.9571 15.1251 12.714Z" fill="#8596C6"/>
<path d="M16 12.4745C16 14.8868 17.1672 17.043 18.9998 18.4746C20.8328 17.043 22 14.8868 22 12.4745C22 10.0624 20.8328 7.90622 18.9998 6.47461C17.1672 7.90622 16 10.0624 16 12.4745Z" fill="#BAC9F3"/>
<path d="M20.715 12.4749C20.715 14.887 20.0477 17.043 19 18.4746C20.8332 17.043 22 14.887 22 12.4749C22 10.0622 20.8332 7.90625 19 6.47461C20.0477 7.90625 20.715 10.0622 20.715 12.4749Z" fill="#8596C6"/>
<path d="M32.0209 12.3673V16.6398L33.081 39.6386C33.213 39.6775 35.136 43.5357 35.136 41.3384L43.4024 39.6977C44.218 39.6977 44.8779 39.0378 44.8779 38.2234V12.3673C44.8779 11.5529 44.218 10.8926 43.4024 10.8926H33.4953C32.6812 10.8926 32.0209 11.5529 32.0209 12.3673Z" fill="#BDB3E4"/>
<path d="M32.0212 12.3672V16.6397L32.0155 40.2156C32.1471 40.2545 33.6317 40.5345 33.7756 40.5345L38.9639 39.698C39.7795 39.698 40.4395 39.0377 40.4395 38.2232V12.3672C40.4395 11.5528 39.7795 10.8928 38.9639 10.8928H33.4956C32.6815 10.8924 32.0212 11.5528 32.0212 12.3672Z" fill="#DFD8F9"/>
<path d="M35.5026 6.46713V10.8926H41.3955V6.46713C41.3955 5.65689 40.7382 5 39.928 5H36.9701C36.1598 5 35.5026 5.65689 35.5026 6.46713Z" fill="#BDB3E4"/>
<path d="M35.5025 6.46713V10.8926H39.2871V6.46713C39.2871 5.65689 38.6302 5 37.82 5H36.9701C36.1598 5 35.5025 5.65689 35.5025 6.46713Z" fill="#ECE7FF"/>
<path d="M0 39.6978C0.856018 42.5847 3.50914 44.5642 6.51932 44.5642H43.4807C44.9856 44.5642 46.402 44.0694 47.5491 43.213C48.6958 42.3581 49.5724 41.1409 50 39.6978H0Z" fill="#7D6BC7"/>
<path d="M-4.57764e-05 39.6978C0.855972 42.5847 3.50909 44.5642 6.51927 44.5642H32.6755C34.1815 44.5642 35.5968 44.0694 36.7427 43.213C37.8898 42.3581 38.7672 41.1409 39.1948 39.6978H-4.57764e-05Z" fill="#ACA0DB"/>
</svg>
