<svg width="50" height="50" viewBox="0 0 50 50" fill="none" xmlns="http://www.w3.org/2000/svg">
<g clip-path="url(#clip0_550_1799)">
<path d="M38.3027 41.5792H11.6973C10.0304 41.5792 8.6792 40.2279 8.6792 38.5611V3.01807C8.6792 1.35127 10.0305 0 11.6973 0H38.3027C39.9696 0 41.3208 1.35127 41.3208 3.01807V38.561C41.3208 40.2279 39.9695 41.5792 38.3027 41.5792Z" fill="#BAC9F3"/>
<path d="M32.6425 13H14.7612C14.3404 13 13.9998 13.3407 13.9998 13.761C13.9998 14.1818 14.3404 14.5224 14.7612 14.5224H32.6425C33.0629 14.5224 33.4039 14.1818 33.4039 13.761C33.4039 13.3407 33.0629 13 32.6425 13Z" fill="#E3EBFF"/>
<path d="M14.7612 19.1312H29.0959C29.5163 19.1312 29.8573 18.7906 29.8573 18.3698C29.8573 17.9494 29.5163 17.6084 29.0959 17.6084H14.7612C14.3404 17.6084 13.9998 17.9494 13.9998 18.3698C13.9998 18.7906 14.3404 19.1312 14.7612 19.1312Z" fill="#E3EBFF"/>
<path d="M38.3027 0H35.2847C36.9516 0 38.3027 1.35127 38.3027 3.01807V38.561C38.3027 40.2279 36.9515 41.5791 35.2847 41.5791H38.3027C39.9696 41.5791 41.3208 40.2278 41.3208 38.561V3.01807C41.3208 1.35127 39.9695 0 38.3027 0V0Z" fill="#8596C6"/>
<path d="M42.8571 50H7.14282C5.47593 50 4.12476 48.6488 4.12476 46.982V22.6359C4.12476 20.969 5.47603 19.6178 7.14282 19.6178H18.8576C19.8667 19.6178 20.809 20.1221 21.3688 20.9617L22.595 22.801C23.1547 23.6406 24.0971 24.1449 25.1062 24.1449H42.8572C44.5241 24.1449 45.8752 25.4962 45.8752 27.163V46.982C45.8752 48.6488 44.524 50 42.8571 50Z" fill="#B0A3E4"/>
<path d="M42.8571 24.1448H39.839C41.5059 24.1448 42.8571 25.496 42.8571 27.1628V46.9818C42.8571 48.6486 41.5058 49.9999 39.839 49.9999H42.8571C44.524 49.9999 45.8751 48.6486 45.8751 46.9818V27.1629C45.8752 25.496 44.524 24.1448 42.8571 24.1448Z" fill="#7D6BC7"/>
<path d="M32.8187 9.82295H15.0058C14.4501 9.82295 13.9998 9.37256 13.9998 8.81689V7.00605C13.9998 6.45039 14.4501 6 15.0058 6H32.8187C33.3744 6 33.8248 6.45039 33.8248 7.00605V8.81689C33.8248 9.37256 33.3743 9.82295 32.8187 9.82295Z" fill="#E3EBFF"/>
<path d="M25.9998 45.7766V50H8.99976V45.7766C8.99976 40.937 12.8126 37 17.4998 37C22.1857 37 25.9998 40.9103 25.9998 45.7766Z" fill="#DFD8F9"/>
<path d="M16.9998 39C19.7612 39 21.9998 36.7614 21.9998 34C21.9998 31.2386 19.7612 29 16.9998 29C14.2383 29 11.9998 31.2386 11.9998 34C11.9998 36.7614 14.2383 39 16.9998 39Z" fill="#E9E3FF"/>
<circle cx="32.4998" cy="28.5" r="7.5" fill="#7D6BC7"/>
<path d="M39.9998 28.5C39.9998 32.6421 36.6419 36 32.4998 36C28.3576 36 24.9998 32.6421 24.9998 28.5C24.9998 24.3579 28.3576 21 32.4998 21C36.6419 21 39.9998 24.3579 39.9998 28.5Z" fill="#7D6BC7"/>
<g clip-path="url(#clip1_550_1799)">
<path d="M36.7906 25.471C36.5122 25.1922 36.06 25.1924 35.7812 25.471L31.2378 30.0145L29.2185 27.9952C28.9397 27.7164 28.4877 27.7164 28.2089 27.9952C27.93 28.2741 27.93 28.726 28.2089 29.0049L30.7329 31.5289C30.8722 31.6682 31.0549 31.7381 31.2376 31.7381C31.4204 31.7381 31.6032 31.6684 31.7426 31.5289L36.7906 26.4807C37.0695 26.202 37.0695 25.7498 36.7906 25.471Z" fill="#DFD8F9"/>
</g>
</g>
<defs>
<clipPath id="clip0_550_1799">
<rect width="50" height="50" fill="white"/>
</clipPath>
<clipPath id="clip1_550_1799">
<rect width="9" height="9" fill="white" transform="translate(27.9998 24)"/>
</clipPath>
</defs>
</svg>
