<svg width="50" height="50" viewBox="0 0 50 50" fill="none" xmlns="http://www.w3.org/2000/svg">
<path d="M5.31491 22.826C5.77854 23.245 6.09456 23.8024 6.21598 24.4154C6.3374 25.0284 6.25773 25.6641 5.98882 26.2282C5.81452 26.5906 5.71834 26.9856 5.70652 27.3876C5.6947 27.7896 5.76751 28.1895 5.92022 28.5616C6.07292 28.9336 6.30212 29.2694 6.59294 29.5471C6.88377 29.8249 7.22972 30.0384 7.60838 30.1738C8.22487 30.3905 8.75021 30.8088 9.09936 31.3612C9.44852 31.9135 9.60106 32.5675 9.53229 33.2173C9.53222 33.6288 9.61963 34.0355 9.78873 34.4106C9.95783 34.7857 10.2048 35.1205 10.5131 35.3929C10.8215 35.6653 11.1842 35.869 11.5773 35.9905C11.9704 36.112 12.3849 36.1486 12.7931 36.0977C13.3874 36.1028 13.9652 36.2929 14.4464 36.6416C14.9276 36.9903 15.2881 37.4803 15.4779 38.0434C15.6107 38.4268 15.8232 38.7777 16.1015 39.0729C16.3799 39.3681 16.7176 39.601 17.0926 39.7561C17.4675 39.9112 17.871 39.985 18.2766 39.9727C18.6821 39.9604 19.0805 39.8622 19.4453 39.6847C20.004 39.421 20.6318 39.3411 21.2388 39.4564C23.0105 39.7499 22.9453 41.3042 24.9996 41.3042C27.054 41.3042 26.9887 39.7499 28.7605 39.4347C29.3673 39.3155 29.9963 39.3956 30.5539 39.6629C30.9174 39.841 31.3144 39.9401 31.7188 39.9538C32.1233 39.9676 32.5261 39.8956 32.9007 39.7426C33.2754 39.5897 33.6135 39.3592 33.8928 39.0664C34.1721 38.7735 34.3863 38.4249 34.5213 38.0434C34.716 37.4808 35.0814 36.9931 35.5666 36.6482C36.0518 36.3033 36.6325 36.1184 37.2278 36.1195C37.6501 36.1728 38.079 36.1325 38.484 36.0016C38.889 35.8706 39.2602 35.6522 39.5714 35.3618C39.8825 35.0714 40.126 34.7161 40.2845 34.321C40.4431 33.926 40.5128 33.501 40.4887 33.076C40.4454 32.4509 40.6079 31.8289 40.9514 31.3048C41.2949 30.7808 41.8004 30.3836 42.3909 30.1738C42.7753 30.0426 43.1274 29.8308 43.4236 29.5528C43.7198 29.2747 43.9534 28.9367 44.1087 28.5613C44.264 28.1859 44.3375 27.7817 44.3243 27.3756C44.3111 26.9696 44.2115 26.571 44.0322 26.2065C43.7641 25.6475 43.6828 25.0173 43.8003 24.4086C43.9177 23.8 44.2276 23.2452 44.6843 22.826C44.9954 22.5557 45.2448 22.2217 45.4157 21.8466C45.5866 21.4716 45.675 21.0643 45.675 20.6521C45.675 20.24 45.5866 19.8327 45.4157 19.4576C45.2448 19.0826 44.9954 18.7486 44.6843 18.4782C44.2207 18.0593 43.9047 17.5019 43.7833 16.8889C43.6618 16.2759 43.7415 15.6401 44.0104 15.0761C44.1847 14.7137 44.2809 14.3187 44.2927 13.9167C44.3045 13.5147 44.2317 13.1147 44.079 12.7427C43.9263 12.3707 43.6971 12.0349 43.4063 11.7571C43.1155 11.4794 42.7695 11.2659 42.3909 11.1304C41.7744 10.9138 41.249 10.4955 40.8999 9.94312C40.5507 9.39079 40.3982 8.73678 40.467 8.08697C40.467 7.67553 40.3796 7.26877 40.2105 6.89368C40.0414 6.5186 39.7945 6.18375 39.4861 5.91136C39.1778 5.63897 38.815 5.43526 38.4219 5.31375C38.0288 5.19223 37.6144 5.15569 37.2061 5.20654C36.6119 5.20151 36.034 5.01142 35.5528 4.66272C35.0716 4.31401 34.7111 3.82402 34.5213 3.2609C34.3251 2.69633 33.9581 2.20678 33.4712 1.86011C32.9843 1.51345 32.4016 1.32683 31.8039 1.32612C30.717 1.32612 30.4453 1.90221 29.2931 1.90221C27.0866 1.92395 27.1735 4.20324e-05 24.9996 4.20324e-05C24.5894 -0.00216996 24.1834 0.0829482 23.8085 0.249741C23.4337 0.416534 23.0987 0.661182 22.8257 0.96743C22.4078 1.43255 21.8503 1.74965 21.2369 1.87115C20.6235 1.99265 19.9872 1.91202 19.4236 1.64134C19.0611 1.46704 18.6661 1.37086 18.2642 1.35904C17.8622 1.34722 17.4622 1.42003 17.0902 1.57273C16.7182 1.72544 16.3824 1.95464 16.1046 2.24546C15.8269 2.53629 15.6134 2.88224 15.4779 3.2609C15.2613 3.87739 14.8429 4.40273 14.2906 4.75188C13.7383 5.10104 13.0843 5.25358 12.4344 5.18481C12.023 5.18473 11.6163 5.27215 11.2412 5.44125C10.8661 5.61035 10.5312 5.85727 10.2588 6.16564C9.98645 6.474 9.78275 6.83676 9.66123 7.22985C9.53972 7.62294 9.50317 8.03738 9.55403 8.44566C9.54899 9.03988 9.3589 9.61777 9.0102 10.0989C8.6615 10.5801 8.1715 10.9407 7.60838 11.1304C7.04381 11.3267 6.55426 11.6937 6.2076 12.1805C5.86093 12.6674 5.67431 13.2501 5.67361 13.8478C5.67361 14.9348 6.24969 15.2065 6.24969 16.3587C6.27143 18.5652 4.34752 18.4782 4.34752 20.6521C4.34531 21.0624 4.43043 21.4684 4.59723 21.8432C4.76402 22.218 5.00866 22.5531 5.31491 22.826Z" fill="#8596C6"/>
<path d="M5.3149 22.826C5.77853 23.245 6.09455 23.8024 6.21597 24.4154C6.33739 25.0284 6.25772 25.6641 5.98882 26.2282C5.81451 26.5906 5.71833 26.9856 5.70652 27.3876C5.69469 27.7896 5.7675 28.1895 5.92021 28.5616C6.07291 28.9336 6.30211 29.2694 6.59294 29.5471C6.88376 29.8249 7.22972 30.0384 7.60838 30.1738C8.16397 30.366 8.6468 30.7248 8.99108 31.2014C9.33536 31.6779 9.52435 32.249 9.53228 32.8369C13.1424 36.196 17.8945 38.0572 22.8257 38.0434C39.9235 38.0434 48.6843 17.5869 37.1844 5.20654C36.5939 5.19703 36.0208 5.00487 35.544 4.65648C35.0671 4.30809 34.7099 3.82056 34.5213 3.2609C34.3265 2.69544 33.9599 2.20499 33.4726 1.8581C32.9854 1.51121 32.402 1.32522 31.8039 1.32612C30.717 1.32612 30.4453 1.90221 29.2931 1.90221C27.0866 1.92395 27.1735 4.20324e-05 24.9996 4.20324e-05C24.5894 -0.00216996 24.1834 0.0829482 23.8085 0.249741C23.4337 0.416534 23.0987 0.661182 22.8257 0.96743C22.4078 1.43255 21.8503 1.74965 21.2369 1.87115C20.6235 1.99265 19.9872 1.91202 19.4236 1.64134C19.0611 1.46704 18.6661 1.37086 18.2642 1.35904C17.8622 1.34722 17.4622 1.42003 17.0902 1.57273C16.7182 1.72544 16.3824 1.95464 16.1046 2.24546C15.8269 2.53629 15.6134 2.88224 15.4779 3.2609C15.2613 3.87739 14.8429 4.40273 14.2906 4.75188C13.7383 5.10104 13.0843 5.25358 12.4344 5.18481C12.023 5.18473 11.6162 5.27215 11.2412 5.44125C10.8661 5.61035 10.5312 5.85727 10.2588 6.16564C9.98645 6.474 9.78274 6.83676 9.66123 7.22985C9.53971 7.62294 9.50317 8.03738 9.55402 8.44566C9.54899 9.03988 9.3589 9.61777 9.01019 10.0989C8.66149 10.5801 8.1715 10.9407 7.60838 11.1304C7.0438 11.3267 6.55426 11.6937 6.20759 12.1805C5.86092 12.6674 5.6743 13.2501 5.6736 13.8478C5.6736 14.9348 6.24968 15.2065 6.24968 16.3587C6.27142 18.5652 4.34752 18.4782 4.34752 20.6521C4.34531 21.0624 4.43042 21.4684 4.59722 21.8432C4.76401 22.218 5.00866 22.5531 5.3149 22.826Z" fill="#BAC9F3"/>
<path d="M10.8692 20.6522C10.8692 22.5078 11.2347 24.3453 11.9448 26.0596C12.6549 27.774 13.6958 29.3317 15.0079 30.6439C16.32 31.956 17.8777 32.9968 19.5921 33.7069C21.3065 34.4171 23.1439 34.7826 24.9996 34.7826C38.293 34.7826 44.2278 17.9348 33.8365 9.64133C31.7597 7.9769 29.2551 6.93282 26.611 6.62931C23.9669 6.32579 21.2909 6.77517 18.891 7.92572C16.4911 9.07627 14.4649 10.8812 13.0457 13.1327C11.6265 15.3842 10.8721 17.9907 10.8692 20.6522Z" fill="#7D6BC7"/>
<path d="M10.8692 20.6522C10.863 23.8687 11.9646 26.9893 13.9887 29.4891C16.7056 31.6364 20.1165 32.7112 23.5736 32.5095C27.0307 32.3077 30.2934 30.8435 32.7422 28.3948C35.1909 25.9461 36.6551 22.6834 36.8568 19.2262C37.0586 15.7691 35.9838 12.3582 33.8365 9.64133C31.7597 7.9769 29.2551 6.93282 26.611 6.62931C23.9669 6.32579 21.2909 6.77517 18.891 7.92572C16.491 9.07627 14.4649 10.8812 13.0457 13.1327C11.6265 15.3842 10.872 17.9907 10.8692 20.6522Z" fill="#B0A3E4"/>
<path d="M28.7605 39.4348L34.8583 50L37.0322 45L42.3909 45.6522C39.8474 41.2283 41.0648 43.3479 36.8909 36.1196C36.3549 36.1849 35.8483 36.4001 35.4291 36.7404C35.0099 37.0807 34.6953 37.5324 34.5213 38.0435C34.3981 38.4022 34.2049 38.733 33.9531 39.0166C33.7012 39.3002 33.3956 39.531 33.054 39.6958C32.7123 39.8605 32.3414 39.9559 31.9627 39.9764C31.5839 39.9969 31.2049 39.9422 30.8474 39.8153C30.2189 39.445 29.4792 39.3102 28.7605 39.4348Z" fill="#7D6BC7"/>
<path d="M30.8473 39.7935L34.8582 46.7392L37.0321 41.7392L40.4016 42.1413L36.9234 36.1196C36.3816 36.1791 35.8679 36.3916 35.4425 36.7323C35.0171 37.073 34.6976 37.5278 34.5212 38.0435C34.3958 38.4003 34.201 38.7288 33.9482 39.01C33.6954 39.2913 33.3895 39.5198 33.0481 39.6824C32.7067 39.845 32.3365 39.9386 31.9588 39.9576C31.5811 39.9767 31.2034 39.9209 30.8473 39.7935Z" fill="#B0A3E4"/>
<path d="M7.60835 45.6521L13.0431 44.9999L15.217 49.9999L21.3148 39.4347C20.0322 39.1086 19.4561 39.9564 18.2714 39.9564C17.6634 39.9733 17.0657 39.7973 16.5639 39.4537C16.0621 39.11 15.6819 38.6164 15.4779 38.0434C15.3006 37.5363 14.9844 37.0892 14.5655 36.7529C14.1466 36.4167 13.6417 36.2047 13.1083 36.1412L7.60835 45.6521Z" fill="#7D6BC7"/>
<path d="M19.63 28.5001L24.9996 25.674L30.3691 28.5001L29.3474 22.511L33.6952 18.2719L27.6843 17.4023L24.9996 11.9567L22.3148 17.3914L16.3039 18.261L20.6518 22.5001C20.1518 25.424 20.38 24.1088 19.63 28.5001Z" fill="#E9F0FF"/>
<path d="M20.6518 22.511L20.2496 24.8588C21.3334 25.0757 22.4514 25.0538 23.5259 24.7948C24.6004 24.5358 25.6055 24.0457 26.4714 23.3588C27.3373 22.6719 28.0431 21.8046 28.5398 20.8172C29.0365 19.8299 29.3121 18.7461 29.3474 17.6414L27.6844 17.3914L24.9996 11.9567L22.3148 17.3914L16.304 18.261L20.6518 22.511Z" fill="#E9F0FF"/>
<path d="M19.1517 39.7935L15.1409 46.7392L12.967 41.7392L9.59742 42.1413L13.0757 36.1196C13.6174 36.1791 14.1311 36.3916 14.5565 36.7323C14.9819 37.073 15.3015 37.5278 15.4778 38.0435C15.6033 38.4003 15.798 38.7288 16.0508 39.01C16.3036 39.2913 16.6095 39.5198 16.9509 39.6824C17.2923 39.845 17.6625 39.9386 18.0402 39.9576C18.4179 39.9767 18.7957 39.9209 19.1517 39.7935Z" fill="#B0A3E4"/>
</svg>
