<svg width="50" height="50" viewBox="0 0 50 50" fill="none" xmlns="http://www.w3.org/2000/svg">
<g clip-path="url(#clip0_550_1844)">
<path d="M3.8147e-06 7.52268V35.1289C3.8147e-06 38.6092 2.82129 41.4305 6.30157 41.4305H15.1681C16.0352 41.4305 16.8667 41.7749 17.4799 42.388L23.0736 47.981C24.1378 49.0451 25.8632 49.045 26.9273 47.9809L32.5201 42.3881C33.1333 41.7749 33.9648 41.4305 34.832 41.4305H43.6985C47.1787 41.4305 50 38.6092 50 35.129V7.52268C50 4.04241 47.1787 1.22121 43.6985 1.22121H6.30147C2.82129 1.22121 3.8147e-06 4.04241 3.8147e-06 7.52268Z" fill="#B0A3E4"/>
<path d="M46.0865 7.52263V35.1293C46.0865 38.6092 43.2656 41.4301 39.7857 41.4301H43.6982C47.1791 41.4301 50 38.6092 50 35.1293V7.52263C50 4.04275 47.1791 1.22078 43.6982 1.22078H39.7857C43.2656 1.22078 46.0865 4.04275 46.0865 7.52263Z" fill="#7D6BC7"/>
<path d="M23.0433 47.9512L23.0734 47.9814C24.1378 49.0448 25.8632 49.0448 26.9275 47.9804L32.5201 42.3878C33.1338 41.7751 33.9647 41.4301 34.832 41.4301H30.9186C30.0523 41.4301 29.2203 41.7751 28.6066 42.3878L23.0433 47.9512Z" fill="#7D6BC7"/>
<mask id="mask0_550_1844" style="mask-type:alpha" maskUnits="userSpaceOnUse" x="10" y="4" width="27" height="32">
<path d="M24.5979 16.8077C25.1605 13.8261 25.3217 10.7826 25.0771 7.7583L25.044 7.35078C24.9307 5.94922 23.8889 4.79932 22.5054 4.54854C20.6525 4.2127 18.9302 5.5916 18.8526 7.47305L18.6054 13.4715C18.5587 14.6034 18.219 15.7039 17.6195 16.6651L16.8294 17.9323C16.1255 19.061 14.8894 19.7471 13.5591 19.7471H12.1152C11.481 19.7471 10.9668 20.2612 10.9668 20.8955V34.2646C10.9668 34.8989 11.481 35.4131 12.1152 35.4131H31.403C32.6622 35.4131 33.683 34.3923 33.683 33.1331C33.683 31.8738 32.6622 30.853 31.403 30.853H32.2635C33.5228 30.853 34.5436 29.8322 34.5436 28.573C34.5436 27.3138 33.5228 26.293 32.2635 26.293H33.124C34.3832 26.293 35.404 25.2722 35.404 24.013V24.0129C35.404 22.7537 34.3832 21.7329 33.124 21.7329H33.9299C35.1662 21.7329 36.2191 20.7716 36.2631 19.536C36.3092 18.2389 35.2714 17.1729 33.9846 17.1729H24.9007C24.7076 17.1729 24.5621 16.9974 24.5979 16.8077Z" fill="#FFDFCF"/>
</mask>
<g mask="url(#mask0_550_1844)">
<path d="M24.5979 16.8077C25.1605 13.8261 25.3217 10.7826 25.0771 7.7583L25.044 7.35078C24.9307 5.94922 23.8889 4.79932 22.5054 4.54854C20.6525 4.2127 18.9302 5.5916 18.8526 7.47305L18.6054 13.4715C18.5587 14.6034 18.219 15.7039 17.6195 16.6651L16.8294 17.9323C16.1255 19.061 14.8894 19.7471 13.5591 19.7471H12.1152C11.481 19.7471 10.9668 20.2612 10.9668 20.8955V34.2646C10.9668 34.8989 11.481 35.4131 12.1152 35.4131H31.403C32.6622 35.4131 33.683 34.3923 33.683 33.1331C33.683 31.8738 32.6622 30.853 31.403 30.853H32.2635C33.5228 30.853 34.5436 29.8322 34.5436 28.573C34.5436 27.3138 33.5228 26.293 32.2635 26.293H33.124C34.3832 26.293 35.404 25.2722 35.404 24.013V24.0129C35.404 22.7537 34.3832 21.7329 33.124 21.7329H33.9299C35.1662 21.7329 36.2191 20.7716 36.2631 19.536C36.3092 18.2389 35.2714 17.1729 33.9846 17.1729H24.9007C24.7076 17.1729 24.5621 16.9974 24.5979 16.8077Z" fill="#E3EBFF"/>
<path d="M33.683 33.1331C33.683 34.3923 32.6622 35.4131 31.403 35.4131H29C29.5 35.3262 32.2635 34.5 32.2635 33.1331C32.2635 32.2279 30.7545 31.2359 30 30.853C31.0413 30.402 33.124 29.7834 33.124 28.573C33.124 27.646 31.7218 26.7527 31.0104 26.2996L31 26.293C31.8943 25.862 33.683 25.2284 33.683 24.013C33.683 23.2234 32.561 22.342 32 22C32.561 21.5 33.683 20.7277 33.683 19.536C33.683 18.3444 32.561 17.6393 32 17.1729H33.9846C35.2714 17.1729 36.3092 18.2389 36.2631 19.536C36.2191 20.7716 35.1662 21.7329 33.9299 21.7329H33.124C34.3832 21.7329 35.404 22.7538 35.404 24.013C35.404 25.2722 34.3832 26.293 33.124 26.293H32.2635C33.5228 26.293 34.5436 27.3138 34.5436 28.573C34.5436 29.8322 33.5228 30.853 32.2635 30.853H31.403C32.6622 30.853 33.683 31.8738 33.683 33.1331Z" fill="#C4D2F6"/>
<path d="M21 19L30 16.5C29.4 10.8953 20.5195 -1.95145 21.9 1.60601C24.6 8.56363 22.5 14.9414 21 19Z" fill="#C4D2F6"/>
</g>
</g>
<defs>
<clipPath id="clip0_550_1844">
<rect width="50" height="50" fill="white" transform="matrix(-1 0 0 1 50 0)"/>
</clipPath>
</defs>
</svg>
