<svg width="50" height="50" viewBox="0 0 50 50" fill="none" xmlns="http://www.w3.org/2000/svg">
<g clip-path="url(#clip0_550_1860)">
<path d="M2.3876 50H35.6124C36.281 50 38 48.5374 38 47.9686V2.03139C38 1.46256 36.281 0 35.6124 0H2.3876C1.17709 0 3.05176e-05 1.00109 0 2.03139V47.9686C0 49.0709 1.17709 50 2.3876 50Z" fill="#BAC9F3"/>
<path d="M32 50H35.4563C37.0175 50 38 49.0705 38 47.9686V2.03136C38 1.00144 37.0175 0 35.4563 0H32C33.5612 0 34.5437 1.00144 34.5437 2.03136V47.9686C34.5437 49.0705 33.6277 50 32 50Z" fill="#8596C6"/>
<path d="M21.3951 8.39424H18.7832V5.78232C18.7832 4.87595 18.0485 4.14124 17.1421 4.14124C16.2358 4.14124 15.5007 4.87595 15.5007 5.78232V8.39424H12.8891C11.9828 8.39424 11.248 9.12895 11.248 10.0353C11.248 10.9417 11.9828 11.6768 12.8891 11.6768H15.5011V14.2883C15.5011 15.1947 16.2358 15.9294 17.1421 15.9294C18.0485 15.9294 18.7836 15.1947 18.7836 14.2883V11.6768H21.3951C22.3015 11.6768 23.0362 10.9417 23.0362 10.0353C23.0362 9.12895 22.3015 8.39424 21.3951 8.39424Z" fill="#E3EBFF"/>
<path d="M28.5824 19.2196H5.70111C5.28035 19.2196 4.9397 19.5603 4.9397 19.9806C4.9397 20.4014 5.28035 20.7421 5.70111 20.7421H28.5824C29.0028 20.7421 29.3438 20.4014 29.3438 19.9806C29.3438 19.5603 29.0028 19.2196 28.5824 19.2196Z" fill="#E3EBFF"/>
<path d="M5.70111 26.3508H23.0359C23.4562 26.3508 23.7973 26.0102 23.7973 25.5894C23.7973 25.169 23.4562 24.828 23.0359 24.828H5.70111C5.28035 24.828 4.9397 25.169 4.9397 25.5894C4.9397 26.0102 5.28035 26.3508 5.70111 26.3508Z" fill="#E3EBFF"/>
<path d="M5.70111 31.9591H23.0359C23.4562 31.9591 23.7973 31.6184 23.7973 31.1981C23.7973 30.7773 23.4562 30.4366 23.0359 30.4366H5.70111C5.28035 30.4366 4.9397 30.7773 4.9397 31.1981C4.9397 31.6184 5.28035 31.9591 5.70111 31.9591Z" fill="#E3EBFF"/>
<path d="M23.0717 36.045H5.70111C5.28035 36.045 4.9397 36.3861 4.9397 36.8065C4.9397 37.2272 5.28035 37.5679 5.70111 37.5679H23.0717C23.4921 37.5679 23.8331 37.2272 23.8331 36.8065C23.8331 36.3861 23.4921 36.045 23.0717 36.045Z" fill="#E3EBFF"/>
<path d="M15.8898 43.6969H13.7197C13.3691 43.6969 13.3702 43.7274 11.305 44.4938C11.305 43.2159 10.1823 42.6505 9.28851 42.9877L5.43223 44.4427C5.03893 44.5911 4.84019 45.0305 4.98896 45.4238C5.13735 45.8171 5.57719 46.0158 5.96972 45.8671L9.78213 44.4289C9.78213 45.6863 10.883 46.2752 11.7909 45.9376L13.7258 45.2193H15.8898C16.3106 45.2193 16.6513 44.8787 16.6513 44.4583C16.6513 44.0375 16.3102 43.6969 15.8898 43.6969Z" fill="#E3EBFF"/>
<path d="M26.8682 26H47.1318C47.3752 26 47.5821 26.1719 47.6203 26.4059C48.2288 30.1274 49.606 44.5671 37.4564 49.9047C37.1668 50.0318 36.8336 50.0318 36.5436 49.9047C24.394 44.5671 25.7712 30.1277 26.3797 26.4059C26.4179 26.1719 26.6248 26 26.8682 26Z" fill="#B0A3E4"/>
<path d="M36.8711 46.9681C36.9519 47.0107 37.0481 47.0107 37.1289 46.9681C40.9137 44.9628 43.3668 41.4827 44.4253 36.6131C45.1207 33.4145 45.057 30.2802 44.8912 28.2679C44.8787 28.1159 44.7562 28 44.6095 28H29.3905C29.2438 28 29.1213 28.1159 29.1088 28.2679C28.943 30.2799 28.8793 33.4145 29.5747 36.6131C30.6335 41.4827 33.0863 44.9628 36.8711 46.9681Z" fill="#B0A3E4"/>
<path d="M48.1203 26.4059C48.0821 26.1719 47.8752 26 47.6318 26H39.5C39.8333 30.1934 40.5 40.5 32 46.54C33.3449 47.8556 35.0036 49.0085 37.0436 49.9047C37.3336 50.0318 37.6668 50.0318 37.9564 49.9047C50.106 44.5671 48.7288 30.1274 48.1203 26.4059Z" fill="#7D6BC7"/>
<path d="M43.6979 31.3228C43.2957 30.8923 42.6426 30.8925 42.2398 31.3228L35.6772 38.3386L32.7604 35.2205C32.3577 34.79 31.7048 34.79 31.3021 35.2205C30.8993 35.6511 30.8993 36.349 31.3021 36.7796L34.9479 40.677C35.1491 40.8922 35.413 41 35.677 41C35.9409 41 36.205 40.8924 36.4063 40.677L43.6979 32.8818C44.1007 32.4516 44.1007 31.7533 43.6979 31.3228Z" fill="#EAE4FF"/>
</g>
<defs>
<clipPath id="clip0_550_1860">
<rect width="50" height="50" fill="white"/>
</clipPath>
</defs>
</svg>
