<svg width="50" height="50" viewBox="0 0 50 50" fill="none" xmlns="http://www.w3.org/2000/svg">
<g clip-path="url(#clip0_550_1875)">
<path d="M34.0067 7.11101L26.3336 0.534058C25.5662 -0.123657 24.4339 -0.123657 23.6665 0.534058L15.9935 7.11101C15.5393 7.50027 15.278 8.06863 15.278 8.66687V32.7138C15.278 33.8456 16.1954 34.763 17.3271 34.763H32.6733C33.805 34.763 34.7224 33.8455 34.7224 32.7138V8.66677C34.7223 8.06863 34.4609 7.50027 34.0067 7.11101ZM25 4.18523C24.5955 4.18523 24.2676 3.8573 24.2676 3.45281C24.2676 3.04832 24.5955 2.72039 25 2.72039C25.4045 2.72039 25.7324 3.04832 25.7324 3.45281C25.7324 3.8573 25.4045 4.18523 25 4.18523Z" fill="#B0A3E4"/>
<path d="M34.0066 7.11104L26.3335 0.534091C25.7435 0.0283292 24.9375 -0.0885653 24.2478 0.183505L29.9824 5.09884C30.4366 5.4881 30.698 6.05645 30.698 6.6547V27.4053C30.698 30.3575 28.3047 32.7509 25.3524 32.7509H15.2781C15.2978 33.8655 16.2075 34.763 17.3268 34.763H32.673C33.8047 34.763 34.7221 33.8455 34.7221 32.7139V8.66681C34.7221 8.06866 34.4608 7.5003 34.0066 7.11104Z" fill="#7D6BC7"/>
<path d="M48.8479 38.9296H1.15205C0.5 38.9296 0 38.5 0 37.7776V35.915C0 35.5 0.5 34.7629 1.15205 34.7629H48.8479C49.5 34.7629 50 35.5 50 35.915V37.7776C50 38.5 49.5 38.9296 48.8479 38.9296Z" fill="#BAC9F3"/>
<path d="M50 35.915C50 35.5 49.5 34.7629 48.8479 34.7629H25C25 34.7629 24.2894 35.9255 23 37C21.7106 38.0745 20 38.9296 20 38.9296H48.8479C49.5 38.9296 50 38.5 50 37.7776V35.915Z" fill="#8596C6"/>
<path d="M24.8785 38.9926L17.2899 49.7245C17.2202 49.8231 17.2907 49.9593 17.4114 49.9593H32.5886C32.7093 49.9593 32.7799 49.8231 32.7101 49.7245L25.1216 38.9926C25.0622 38.9087 24.9378 38.9087 24.8785 38.9926Z" fill="#8596C6"/>
<path d="M29.1666 9.10645H20.8333C20.4287 9.10645 20.1008 8.77861 20.1008 8.37402C20.1008 7.96943 20.4287 7.6416 20.8333 7.6416H29.1666C29.5711 7.6416 29.899 7.96943 29.899 8.37402C29.899 8.77861 29.5711 9.10645 29.1666 9.10645Z" fill="#7D6BC7"/>
<path d="M24.4029 22.5082C26.2178 22.5005 27.6044 22.0412 28.5626 21.1305C29.5209 20.2198 30 18.9238 30 17.2424C30 15.6312 29.5209 14.3546 28.5626 13.4128C27.6044 12.4709 26.2214 12 24.4138 12H19.5463V29H22.3993V14.4052H24.1525C25.2123 14.4052 25.9637 14.6738 26.4065 15.2109C26.8494 15.7479 27.0708 16.4329 27.0708 17.2658C27.0708 18.1687 26.8421 18.8732 26.3848 19.3791C25.9347 19.8851 25.1906 20.1381 24.1525 20.1381H18.0327V22.5082H24.4029ZM26.4501 24.1662H18V26.2445H26.4501V24.1662Z" fill="#E9F0FF"/>
</g>
<defs>
<clipPath id="clip0_550_1875">
<rect width="50" height="50" fill="white"/>
</clipPath>
</defs>
</svg>
