<svg width="50" height="50" viewBox="0 0 50 50" fill="none" xmlns="http://www.w3.org/2000/svg">
<g clip-path="url(#clip0_550_1885)">
<path d="M36.7614 15.6779C35.7329 15.6779 34.849 15.6779 33.8205 15.6779L32.3501 14.2075L33.8205 12.7371H36.7614L38.2318 14.2075L36.7614 15.6779Z" fill="#8596C6"/>
<path d="M23.5275 39.2048L22.0571 40.6752L20.5867 39.2048C20.5867 37.2251 20.5867 33.0058 20.5867 31.8526L22.0571 30.3822L23.5275 31.8526L24.998 35.5287L23.5275 39.2048Z" fill="#BAC9F3"/>
<path d="M33.8206 21.5596L32.3502 23.03L30.8797 21.5596C30.8797 21.075 30.8797 4.86978 30.8797 4.38572C29.8374 4.67921 24.3946 6.21179 23.3497 6.50597L21.9922 5.69057L22.1362 3.79245C23.6249 3.37328 32.3222 0.924234 33.8206 0.502319V21.5596Z" fill="#8596C6"/>
<path d="M18.9652 11.2667C21.4015 11.2667 23.3765 9.29166 23.3765 6.85537C23.3765 4.41909 21.4015 2.44409 18.9652 2.44409C16.529 2.44409 14.554 4.41909 14.554 6.85537C14.554 9.29166 16.529 11.2667 18.9652 11.2667Z" fill="#E3EBFF"/>
<path d="M47.0545 18.6187C44.2824 18.6187 38.3763 18.6187 36.7615 18.6187C36.7615 17.5513 36.7615 10.8706 36.7615 9.79614H47.0545V18.6187Z" fill="#BAC9F3"/>
<path d="M26.4684 39.2048L24.998 40.6752L23.5276 39.2048C23.5276 37.2251 23.5276 33.0058 23.5276 31.8526L24.998 30.3822L26.4684 31.8526V39.2048Z" fill="#8596C6"/>
<path d="M5.31628 5.38805C1.65089 5.26483 -0.950389 8.90953 0.331235 12.3272C0.737857 13.4116 7.24665 30.7683 7.65327 31.8526H30.5276L31.998 28.1765L30.5276 24.5005L14.705 23.03L5.31628 5.38805Z" fill="#B0A3E4"/>
<path d="M32.5276 24.5005L33.9981 23.03L32.5276 21.5596C29.984 21.5596 18.0634 21.5596 15.5198 21.5596C15.2051 20.8328 10.1722 9.20833 9.85757 8.48155C9.05854 6.63596 7.27698 5.45403 5.31641 5.38806C5.77616 6.4503 13.1283 23.438 13.588 24.5004C16.2908 24.5005 30.9501 24.5005 32.5276 24.5005Z" fill="#BAC9F3"/>
<path d="M13.2346 46.5568L18.3811 48.0273L23.5276 46.5568L24.998 42.8808L23.5276 39.2047C21.548 39.2047 17.3287 39.2047 16.1755 39.2047C15.818 40.0983 13.593 45.6609 13.2346 46.5568Z" fill="#B0A3E4"/>
<path d="M33.8206 46.5568C33.4631 45.6631 31.2381 40.1006 30.8797 39.2047C28.9001 39.2047 24.6808 39.2047 23.5276 39.2047V46.5568L28.6741 48.0273L33.8206 46.5568Z" fill="#7D6BC7"/>
<path d="M23.5275 49.4977C22.5347 49.4977 9.81627 49.4977 8.82324 49.4977C8.82324 48.4691 8.82324 47.5854 8.82324 46.5569H23.5275L24.9979 48.0273L23.5275 49.4977Z" fill="#B0A3E4"/>
<path d="M38.2319 49.4977C37.239 49.4977 24.5206 49.4977 23.5276 49.4977C23.5276 48.4691 23.5276 47.5854 23.5276 46.5569H38.2319V49.4977Z" fill="#7D6BC7"/>
<path d="M27.9998 28C25.9998 30.5 23.5276 31.8526 23.5276 31.8526H33.1724C34.0924 32.8592 39.8582 39.168 40.7841 40.1812C43.1872 43.1895 47.9378 42.5941 49.5339 39.0977L38.2319 23.03L30.8797 23.7652C30.8797 23.7652 29.9998 25.5 27.9998 28Z" fill="#7D6BC7"/>
<path d="M49.0305 33.9451C47.8509 32.5491 39.808 23.0306 38.5649 21.5596C37.7294 21.5596 32.3631 21.5596 31.5276 21.5596L30.5276 24.5004H37.1997C37.8844 25.3107 48.8492 38.2874 49.5339 39.0977C50.2869 37.4482 50.1334 35.4876 49.0305 33.9451Z" fill="#8596C6"/>
</g>
<defs>
<clipPath id="clip0_550_1885">
<rect width="50" height="50" fill="white"/>
</clipPath>
</defs>
</svg>
