<svg width="20" height="20" viewBox="0 0 20 20" fill="none" xmlns="http://www.w3.org/2000/svg">
<path d="M1.9394 6.45268C2.10221 5.68135 2.43099 4.95482 2.90286 4.32366C3.37473 3.69251 3.97834 3.17189 4.67167 2.79806C5.02097 2.59579 5.41046 2.47297 5.81249 2.43831C5.97218 2.43104 6.12944 2.47948 6.25742 2.57536C6.651 2.88943 6.70804 3.18066 6.70804 4.02007C6.64439 4.88121 6.84329 5.7414 7.27845 6.48694C7.51017 6.87179 7.85196 7.17814 8.25956 7.36633C8.82997 7.71466 9.44602 8.2914 9.44602 8.61689C9.44602 8.77107 9.26919 8.82246 8.77293 8.82246C8.27667 8.82246 7.79753 8.98806 7.66063 9.27929L7.56936 9.46773L7.50662 9.58765L7.39824 9.5077L7.07311 9.26787C6.65568 9.00724 6.35054 8.59994 6.21749 8.1258C6.15933 7.92615 6.07695 7.73438 5.97221 7.55477C5.94308 7.52159 5.90705 7.4952 5.86665 7.47744C5.82625 7.45968 5.78245 7.45099 5.73834 7.45198C5.63622 7.45026 5.53733 7.48778 5.462 7.55682C5.38667 7.62586 5.34063 7.72117 5.33335 7.82316C5.38728 8.29403 5.55388 8.74493 5.81902 9.1376C6.08415 9.53027 6.43999 9.85311 6.85635 10.0787C7.24993 10.29 7.47239 10.4442 7.51803 10.6498C7.51803 10.7323 7.59391 10.9734 7.67543 11.2323C7.70109 11.3138 7.72731 11.3971 7.7519 11.4778L7.95154 12.1059V12.1744L7.8945 12.2258L7.55796 12.5228C7.02874 12.9858 6.34995 13.2414 5.64708 13.2423C5.32899 13.2461 5.0132 13.1879 4.71731 13.071C3.57648 12.6027 2.37862 11.0838 1.92799 9.53625C1.75725 8.51517 1.76111 7.47246 1.9394 6.45268Z" fill="#F0F6FC"/>
<path d="M10.0507 0.947915H10.1818C10.3855 1.01835 10.5777 1.1184 10.7523 1.24485C11.3792 1.79868 11.8893 2.47238 12.2524 3.22634C12.4905 3.63668 12.5754 4.11827 12.492 4.5854C12.5192 5.04428 12.4074 5.5007 12.1713 5.89497C11.9352 6.28925 11.5858 6.60303 11.1687 6.7953C10.9026 6.95206 10.6589 7.14414 10.4442 7.36633L10.1134 7.73179L10.0335 7.82887L9.9708 7.77176L9.63996 7.4063C9.41418 7.16871 9.15702 6.96314 8.87561 6.7953C8.44119 6.59217 8.08174 6.2572 7.84828 5.83795C7.61482 5.41871 7.51923 4.93649 7.57507 4.45977C7.53966 3.97547 7.66172 3.4927 7.92302 3.08358C8.54477 1.84444 9.44031 0.947915 10.0507 0.947915Z" fill="#F0F6FC"/>
<path d="M13.302 4.20852C13.3476 2.96937 13.4161 2.6553 13.9865 2.46115C14.0873 2.42532 14.1933 2.40603 14.3002 2.40405C14.5897 2.43471 14.8715 2.51588 15.133 2.64388C16.2448 3.15902 17.141 4.04811 17.6657 5.15643C18.0673 5.95793 18.2633 6.84692 18.2361 7.74321C18.3168 8.34613 18.2682 8.95935 18.0935 9.54197C17.914 10.2565 17.5935 10.9278 17.1506 11.5162C16.7078 12.1047 16.1517 12.5984 15.5152 12.9682C15.1359 13.1509 14.7212 13.2484 14.3002 13.2537C13.6082 13.2485 12.9438 12.9813 12.4407 12.5056L12.1384 12.2315L12.0813 12.1801V12.1116L12.2467 11.6034C12.3463 11.3398 12.4245 11.0687 12.4806 10.7925C12.5319 10.4214 12.6061 10.3643 13.051 10.1644C13.4758 9.95497 13.846 9.64929 14.1321 9.27163C14.4183 8.89397 14.6126 8.45472 14.6995 7.98876C14.7124 7.91465 14.7094 7.83867 14.6907 7.76582C14.672 7.69297 14.6381 7.62493 14.5911 7.56619C14.5573 7.5271 14.5151 7.49605 14.4677 7.47531C14.4204 7.45456 14.369 7.44465 14.3173 7.44627C14.1804 7.44627 14.0093 7.50909 13.8781 8.04586C13.7032 8.58079 13.3562 9.04264 12.8913 9.35924L12.8841 9.36394C12.7576 9.44656 12.6902 9.49057 12.6118 9.49057C12.5319 9.49057 12.4464 9.38779 12.395 9.29071C12.2467 8.99377 12.0357 8.8396 11.2999 8.8396H10.4556L10.5526 8.66829L10.7409 8.32567C10.9338 8.03304 11.1914 7.7888 11.4938 7.61187C11.8389 7.36677 12.1632 7.09366 12.4635 6.7953C13.0909 6.19 13.245 5.69891 13.302 4.20852Z" fill="#F0F6FC"/>
<path d="M18.8806 12.2829C18.9938 12.395 19.0836 12.5284 19.1449 12.6754C19.2062 12.8224 19.2377 12.9802 19.2377 13.1395C19.2377 13.2988 19.2062 13.4565 19.1449 13.6036C19.0836 13.7506 18.9938 13.884 18.8806 13.996C18.1505 15.4236 15.7548 16.1374 14.5911 16.3144C14.4363 16.3393 14.2801 16.3546 14.1234 16.3601C13.9164 16.3516 13.7114 16.3171 13.5131 16.2573L13.3533 16.2173C12.513 15.8805 11.7853 15.3123 11.2542 14.5785L10.8036 14.0474L10.7409 13.9732L10.8036 13.899L11.1972 13.4707L11.5851 13.0424L11.6535 12.9682L11.7334 13.0253L12.2125 13.3508C12.8271 13.7973 13.5638 14.0444 14.323 14.0588C14.881 14.0347 15.4277 13.8936 15.9278 13.6448C16.4279 13.3959 16.8703 13.0448 17.2264 12.6141C17.2427 12.5962 17.2593 12.5781 17.2759 12.5599C17.5039 12.3102 17.757 12.033 17.8368 11.8946C17.9223 11.7462 18.0193 11.6548 18.1448 11.6548C18.2121 11.6582 18.2772 11.6799 18.333 11.7176C18.5438 11.8786 18.7285 12.0712 18.8806 12.2886V12.2829Z" fill="#F0F6FC"/>
<path d="M9.26349 14.0588L8.69307 14.7269C7.64922 15.9204 6.87916 16.3829 5.93799 16.3829C5.7467 16.3828 5.55581 16.3656 5.36757 16.3316C3.96281 16.1039 2.6579 15.4617 1.61997 14.4871C0.946883 13.8533 0.707311 13.345 0.832801 12.8882C0.912659 12.5913 1.65419 11.6491 1.90517 11.6491C2.01926 11.6491 2.13904 11.8147 2.19609 11.9175C2.66028 12.5212 3.20984 13.0541 3.82746 13.4992C4.39901 13.8637 5.06074 14.0614 5.73834 14.0703C6.52148 14.0547 7.27908 13.7885 7.9002 13.3108L8.30519 13.0138L8.39076 12.951L8.45921 13.0367L8.63033 13.2651C8.75087 13.4138 8.88244 13.5531 9.02391 13.682L9.25208 13.8932L9.33764 13.9675L9.26349 14.0588Z" fill="#F0F6FC"/>
<path d="M10.5013 13.0767C10.3678 13.1722 10.209 13.2259 10.045 13.2308C9.66848 13.2308 9.32053 12.9225 8.95546 12.2601C8.58747 11.6393 8.36875 10.9414 8.3166 10.2215V9.65046H11.7391V10.1758C11.7505 11.0152 11.0032 12.7512 10.5013 13.0767Z" fill="#F0F6FC"/>
</svg>
