<svg width="50" height="50" viewBox="0 0 50 50" fill="none" xmlns="http://www.w3.org/2000/svg">
<g clip-path="url(#clip0_550_2078)">
<path d="M23.7036 1C20.1299 1 16.7026 2.41964 14.1756 4.94661C11.6486 7.47359 10.229 10.9009 10.229 14.4746V23.0085H25.5002V2.79661C25.5002 2.32012 25.3109 1.86314 24.974 1.52621C24.637 1.18929 24.1801 1 23.7036 1Z" fill="#BAC9F3"/>
<path d="M27.2969 1C30.8705 1 34.2978 2.41964 36.8248 4.94661C39.3518 7.47359 40.7714 10.9009 40.7714 14.4746V23.0085H25.5002V2.79661C25.5002 2.32012 25.6895 1.86314 26.0265 1.52621C26.3634 1.18929 26.8204 1 27.2969 1Z" fill="#8596C6"/>
<path d="M12.6007 20.3137C12.6007 20.3137 12.6007 18.5171 10.3549 18.5171C8.10916 18.5171 6.7617 26.1527 12.6007 29.2968V20.3137Z" fill="#BDB3E4"/>
<path d="M38.3999 20.3137C38.3999 20.3137 38.3999 18.5171 40.6457 18.5171C42.8914 18.5171 44.2389 26.1527 38.3999 29.2968V20.3137Z" fill="#BDB3E4"/>
<path d="M12.6007 22.1101C12.6007 22.1101 11.7024 20.3135 10.8041 20.3135C9.90576 20.3135 9.90576 22.5592 9.90576 22.5592L12.6007 26.6016V22.1101Z" fill="#7D6BC7"/>
<path d="M38.3999 22.1101C38.3999 22.1101 39.2982 20.3135 40.1965 20.3135C41.0948 20.3135 41.0948 22.5592 41.0948 22.5592L38.3999 26.6016V22.1101Z" fill="#7D6BC7"/>
<path d="M17.8647 32.8896V46.3642C17.8555 46.7553 17.719 47.1328 17.4758 47.4392C17.2326 47.7456 16.896 47.9643 16.5172 48.062L-0.999756 52.6524V53.9998H52.0002V52.6524L34.4833 48.062C34.1045 47.9643 33.7679 47.7456 33.5247 47.4392C33.2815 47.1328 33.145 46.7553 33.1358 46.3642V32.8896H17.8647Z" fill="#BDB3E4"/>
<path d="M39.4239 24.3559C39.4239 30.6441 31.3391 43.2203 25.5001 43.2203C19.6612 43.2203 11.5764 30.6441 11.5764 24.3559C11.5764 14.6812 15.8254 10.8813 25.5001 10.8813C35.1749 10.8813 39.4239 14.6812 39.4239 24.3559Z" fill="#BDB3E4"/>
<path d="M18.763 27.0509C17.9472 27.127 17.1318 26.9024 16.47 26.4193C15.8083 25.9363 15.3459 25.228 15.1698 24.4279C15.1507 24.3087 15.1798 24.1869 15.2505 24.0892C15.3213 23.9915 15.4279 23.9259 15.5471 23.9068C15.6662 23.8878 15.788 23.9168 15.8857 23.9876C15.9834 24.0583 16.049 24.165 16.0681 24.2841C16.0681 24.356 16.4094 26.1526 18.763 26.1526C21.1166 26.1526 21.4579 24.356 21.4579 24.2841C21.477 24.165 21.5426 24.0583 21.6403 23.9876C21.738 23.9168 21.8598 23.8878 21.9789 23.9068C22.0981 23.9259 22.2047 23.9915 22.2755 24.0892C22.3462 24.1869 22.3753 24.3087 22.3562 24.4279C22.1801 25.228 21.7177 25.9363 21.056 26.4193C20.3942 26.9024 19.5788 27.127 18.763 27.0509Z" fill="#7D6BC7"/>
<path d="M32.2376 27.0509C31.4218 27.127 30.6064 26.9024 29.9446 26.4193C29.2829 25.9363 28.8205 25.228 28.6444 24.4279C28.6253 24.3087 28.6544 24.1869 28.7251 24.0892C28.7959 23.9915 28.9026 23.9259 29.0217 23.9068C29.1408 23.8878 29.2626 23.9168 29.3603 23.9876C29.458 24.0583 29.5236 24.165 29.5427 24.2841C29.5427 24.356 29.884 26.1526 32.2376 26.1526C34.5912 26.1526 34.9325 24.356 34.9325 24.2841C34.9516 24.165 35.0172 24.0583 35.1149 23.9876C35.2126 23.9168 35.3344 23.8878 35.4535 23.9068C35.5727 23.9259 35.6793 23.9915 35.7501 24.0892C35.8208 24.1869 35.8499 24.3087 35.8308 24.4279C35.6547 25.228 35.1923 25.9363 34.5306 26.4193C33.8688 26.9024 33.0534 27.127 32.2376 27.0509Z" fill="#7D6BC7"/>
<path d="M25.5003 37.8307C22.5179 37.8307 21.952 36.2407 21.9071 36.1778C21.8678 36.0646 21.875 35.9405 21.9273 35.8327C21.9795 35.7249 22.0724 35.6422 22.1856 35.6029C22.2987 35.5636 22.4229 35.5708 22.5307 35.6231C22.6385 35.6753 22.7212 35.7682 22.7605 35.8814C22.7605 35.9353 23.2096 36.9324 25.4554 36.9324C27.7012 36.9324 28.1503 35.9263 28.1503 35.8814C28.1926 35.7711 28.2767 35.6819 28.3843 35.6331C28.4919 35.5843 28.6144 35.5799 28.7252 35.6209C28.7801 35.6391 28.8308 35.668 28.8745 35.7059C28.9182 35.7438 28.954 35.7899 28.9799 35.8416C29.0057 35.8934 29.0211 35.9497 29.0252 36.0073C29.0293 36.065 29.022 36.123 29.0037 36.1778C29.0486 36.2407 28.4827 37.8307 25.5003 37.8307Z" fill="#7D6BC7"/>
<path d="M25.5003 13.127C18.3138 13.127 12.4749 19.5588 12.4749 27.4998C12.4749 35.4409 20.3979 43.2202 25.5003 43.2202C30.6027 43.2202 38.5257 35.4409 38.5257 27.4998C38.5257 19.5588 32.6867 13.127 25.5003 13.127ZM14.2715 24.8049C14.2715 23.0712 16.2837 21.6609 18.763 21.6609C21.2423 21.6609 23.2545 23.0712 23.2545 24.8049C23.2545 26.5386 21.2423 27.949 18.763 27.949C16.2837 27.949 14.2715 26.5386 14.2715 24.8049ZM25.5003 39.1778C22.5269 39.1778 20.1104 38.0729 20.1104 36.7075C20.1104 35.342 22.5269 34.2371 25.5003 34.2371C28.4737 34.2371 30.8901 35.342 30.8901 36.7075C30.8901 38.0729 28.4737 39.1778 25.5003 39.1778ZM32.2376 27.949C29.7582 27.949 27.746 26.5386 27.746 24.8049C27.746 23.0712 29.7582 21.6609 32.2376 21.6609C34.7169 21.6609 36.7291 23.0712 36.7291 24.8049C36.7291 26.5386 34.7169 27.949 32.2376 27.949Z" fill="#E8E1FF"/>
<path d="M23.7035 30.1951L22.8052 32.4408H28.1951L27.2967 30.1951L29.5425 33.7883H21.4578L23.7035 30.1951Z" fill="#BDB3E4"/>
</g>
<defs>
<clipPath id="clip0_550_2078">
<rect width="50" height="50" fill="white" transform="translate(0.000244141)"/>
</clipPath>
</defs>
</svg>
