<svg width="50" height="50" viewBox="0 0 50 50" fill="none" xmlns="http://www.w3.org/2000/svg">
<path d="M19.043 6.8062L3.396 5.17847C1.20596 7.78491 0 11.098 0 14.5083C0 16.3851 0.127344 16.8915 1.69229 23.0899L2.92969 27.8321L19.043 27.5776V6.8062Z" fill="#8596C6"/>
<path d="M23.584 0H19.043H8.78906C5.58477 0 2.92969 2.61729 2.92969 5.85938C2.92969 9.16455 5.64375 11.7188 8.78906 11.7188H19.043L35.1562 27.832L36.3866 23.0859C37.9687 16.9043 38.0859 16.3771 38.0859 14.502C38.0859 6.50381 31.5821 0 23.584 0Z" fill="#BAC9F3"/>
<path d="M36.3866 23.0859C37.9687 16.9043 38.0859 16.3771 38.0859 14.502C38.0859 6.50381 31.5821 0 23.584 0H19.043V11.7188L35.1562 27.832L36.3866 23.0859Z" fill="#8596C6"/>
<path d="M19.043 11.7188C10.1248 11.7188 2.92969 18.9418 2.92969 27.832C2.92969 36.4752 9.84902 50 19.043 50C28.2369 50 35.1562 36.4752 35.1562 27.832C35.1562 18.9472 27.9278 11.7188 19.043 11.7188Z" fill="#DFD8F9"/>
<path d="M35.1562 27.832C35.1562 18.9472 27.9278 11.7188 19.043 11.7188V50C28.2369 50 35.1562 36.4752 35.1562 27.832Z" fill="#C9BFEE"/>
<path d="M40.8267 39.1981C40.8267 37.8733 41.4285 36.6209 42.4637 35.7932L45.1875 33.6136V49.3125H40.8267V39.1981Z" fill="#806FC5"/>
<path d="M40.8267 39.1981V49.3125H37.3381V43.2074C37.3381 39.3542 34.214 36.2301 30.3608 36.2301V26.6364H31.0044H38.2102C42.0634 26.6364 45.1875 29.7604 45.1875 33.6136L42.4637 35.7932C41.4285 36.6208 40.8267 37.8732 40.8267 39.1981ZM37.3381 31.4332C37.3381 30.7111 36.752 30.125 36.0298 30.125C35.3077 30.125 34.7216 30.7111 34.7216 31.4332V32.7415C34.7216 33.4636 35.3077 34.0497 36.0298 34.0497C36.752 34.0497 37.3381 33.4636 37.3381 32.7415V31.4332Z" fill="#9B8DD1"/>
<path d="M27.7443 36.2301C26.7806 36.2301 26 35.4495 26 34.4858V28.3807C26 27.4169 26.7806 26.6364 27.7443 26.6364H30.3608V36.2301H27.7443Z" fill="#F4F9FF"/>
</svg>
