<svg width="50" height="50" viewBox="0 0 50 50" fill="none" xmlns="http://www.w3.org/2000/svg">
<g clip-path="url(#clip0_1445_500)">
<path d="M48.5351 32.2266H42.8303C42.0206 32.2266 41.3654 32.8817 41.3654 33.6914C41.3654 34.5011 42.0206 35.1562 42.8303 35.1562H48.5351C49.3448 35.1562 50 34.5011 50 33.6914C50 32.8817 49.3448 32.2266 48.5351 32.2266Z" fill="#D5E8FE"/>
<path d="M42.8303 35.1562H48.5351C49.3448 35.1562 50 34.5011 50 33.6914H41.3654C41.3654 34.5011 42.0206 35.1562 42.8303 35.1562Z" fill="#AED3FF"/>
<path d="M48.5352 29.2969C47.7255 29.2969 47.0703 29.9521 47.0703 30.7617V33.6914V36.6211C47.0703 37.4308 47.7255 38.0859 48.5352 38.0859C49.3448 38.0859 50 37.4308 50 36.6211V33.6914V30.7617C50 29.9521 49.3448 29.2969 48.5352 29.2969Z" fill="#E7F1FF"/>
<path d="M48.5352 38.0859C49.3448 38.0859 50 37.4308 50 36.6211V33.6914H47.0703V36.6211C47.0703 37.4308 47.7255 38.0859 48.5352 38.0859Z" fill="#C6E0FF"/>
<path d="M19.043 6.8062L3.396 5.17847C1.20596 7.78491 0 11.098 0 14.5083C0 16.3851 0.127344 16.8915 1.69229 23.0899L2.92969 27.8321L19.043 27.5776V6.8062Z" fill="#8596C6"/>
<path d="M23.584 0H19.043H8.78906C5.58477 0 2.92969 2.61729 2.92969 5.85938C2.92969 9.16455 5.64375 11.7188 8.78906 11.7188H19.043L35.1562 27.832L36.3866 23.0859C37.9687 16.9043 38.0859 16.3771 38.0859 14.502C38.0859 6.50381 31.5821 0 23.584 0Z" fill="#BAC9F3"/>
<path d="M36.3866 23.0859C37.9687 16.9043 38.0859 16.3771 38.0859 14.502C38.0859 6.50381 31.5821 0 23.584 0H19.043V11.7188L35.1562 27.832L36.3866 23.0859Z" fill="#8596C6"/>
<path d="M19.043 11.7188C10.1248 11.7188 2.92969 18.9418 2.92969 27.832C2.92969 36.4752 9.84902 50 19.043 50C28.2369 50 35.1562 36.4752 35.1562 27.832C35.1562 18.9472 27.9278 11.7188 19.043 11.7188Z" fill="#DFD8F9"/>
<path d="M35.1562 27.832C35.1562 18.9472 27.9278 11.7188 19.043 11.7188V50C28.2369 50 35.1562 36.4752 35.1562 27.832Z" fill="#C9BFEE"/>
<path d="M27.832 32.2266H19.043C18.2333 32.2266 17.5781 32.8817 17.5781 33.6914C17.5781 34.5011 18.2333 35.1562 19.043 35.1562H27.832C28.6417 35.1562 29.2969 34.5011 29.2969 33.6914C29.2969 32.8817 28.6417 32.2266 27.832 32.2266Z" fill="#F4F9FF"/>
<path d="M19.043 35.1562H27.832C28.6417 35.1562 29.2969 34.5011 29.2969 33.6914H17.5781C17.5781 34.5011 18.2333 35.1562 19.043 35.1562Z" fill="#CEE4FF"/>
<path d="M27.832 29.2969C27.0224 29.2969 26.3672 29.9521 26.3672 30.7617V33.6914V36.6211C26.3672 37.4308 27.0224 38.0859 27.832 38.0859H42.6758V33.6914V29.2969H27.832Z" fill="#9B8DD1"/>
<path d="M27.832 38.0859H42.6758V33.6914H26.3672V36.6211C26.3672 37.4308 27.0224 38.0859 27.832 38.0859Z" fill="#7866C4"/>
<path d="M42.6758 26.3672C41.8661 26.3672 41.2109 27.0224 41.2109 27.832V33.6914V39.5508C41.2109 40.3604 41.8661 41.0156 42.6758 41.0156C43.4854 41.0156 44.1406 40.3604 44.1406 39.5508V33.6914V27.832C44.1406 27.0224 43.4854 26.3672 42.6758 26.3672Z" fill="#E7F1FF"/>
<path d="M42.6758 41.0156C43.4854 41.0156 44.1406 40.3604 44.1406 39.5508V33.6914H41.2109V39.5508C41.2109 40.3604 41.8661 41.0156 42.6758 41.0156Z" fill="#C6E0FF"/>
</g>
<defs>
<clipPath id="clip0_1445_500">
<rect width="50" height="50" fill="white"/>
</clipPath>
</defs>
</svg>
