<svg width="50" height="50" viewBox="0 0 50 50" fill="none" xmlns="http://www.w3.org/2000/svg">
<g clip-path="url(#clip0_1445_474)">
<path d="M19.043 6.8062L3.396 5.17847C1.20596 7.78491 0 11.098 0 14.5083C0 16.3851 0.127344 16.8915 1.69229 23.0899L2.92969 27.8321L19.043 27.5776V6.8062Z" fill="#8596C6"/>
<path d="M23.584 0H19.043H8.78906C5.58477 0 2.92969 2.61729 2.92969 5.85938C2.92969 9.16455 5.64375 11.7188 8.78906 11.7188H19.043L35.1562 27.832L36.3866 23.0859C37.9687 16.9043 38.0859 16.3771 38.0859 14.502C38.0859 6.50381 31.5821 0 23.584 0Z" fill="#BAC9F3"/>
<path d="M36.3866 23.0859C37.9687 16.9043 38.0859 16.3771 38.0859 14.502C38.0859 6.50381 31.5821 0 23.584 0H19.043V11.7188L35.1562 27.832L36.3866 23.0859Z" fill="#8596C6"/>
<path d="M19.043 11.7188C10.1248 11.7188 2.92969 18.9418 2.92969 27.832C2.92969 36.4752 9.84902 50 19.043 50C28.2369 50 35.1562 36.4752 35.1562 27.832C35.1562 18.9472 27.9278 11.7188 19.043 11.7188Z" fill="#DFD8F9"/>
<path d="M35.1562 27.832C35.1562 18.9472 27.9278 11.7188 19.043 11.7188V50C28.2369 50 35.1562 36.4752 35.1562 27.832Z" fill="#C9BFEE"/>
<path d="M36.6211 32.2266H21.9727C21.163 32.2266 20.5078 32.8817 20.5078 33.6914C20.5078 34.5011 21.163 35.1562 21.9727 35.1562H36.6211C37.4308 35.1562 38.0859 34.5011 38.0859 33.6914C38.0859 32.8817 37.4308 32.2266 36.6211 32.2266Z" fill="#9B8DD1"/>
<path d="M21.9727 35.1562H36.6211C37.4308 35.1562 38.0859 34.5011 38.0859 33.6914H20.5078C20.5078 34.5011 21.163 35.1562 21.9727 35.1562Z" fill="#7867C2"/>
<path d="M48.5352 29.2969H42.4805C42.253 29.2969 42.0284 29.3498 41.8253 29.4514L35.9659 32.3811C35.4695 32.63 35.1562 33.1363 35.1562 33.6914C35.1562 34.2465 35.4695 34.7528 35.9659 35.0018L41.8253 37.9314C42.0284 38.033 42.253 38.0859 42.4805 38.0859H48.5352C49.3448 38.0859 50 37.4308 50 36.6211V33.6914V30.7617C50 29.9521 49.3448 29.2969 48.5352 29.2969Z" fill="#E7F1FF"/>
<path d="M35.9659 35.0018L41.8253 37.9314C42.0284 38.033 42.253 38.0859 42.4805 38.0859H48.5352C49.3448 38.0859 50 37.4308 50 36.6211V33.6914H35.1562C35.1562 34.2465 35.4695 34.7528 35.9659 35.0018Z" fill="#C6E0FF"/>
</g>
<defs>
<clipPath id="clip0_1445_474">
<rect width="50" height="50" fill="white"/>
</clipPath>
</defs>
</svg>
