<svg width="50" height="50" viewBox="0 0 50 50" fill="none" xmlns="http://www.w3.org/2000/svg">
<g clip-path="url(#clip0_1445_602)">
<path d="M38.9608 49.775C38.9537 49.775 38.9537 49.775 38.9537 49.775H11.0463C10.6877 49.775 10.3572 49.6132 10.1322 49.339C9.90015 49.0648 9.81578 48.7062 9.87906 48.3546C11.6932 39.1928 9.29546 31.9927 8.44466 29.827H1.1883C0.534383 29.827 0 29.2926 0 28.6387V22.1909C0 22.1909 0 22.1839 0 22.1769C0.0703136 16.8893 2.83364 12.3681 8.00169 9.10558C11.3697 6.97508 14.6955 6.04694 15.5182 5.84303C16.5026 5.20318 17.1846 3.593 17.4518 1.27968C17.5221 0.682014 18.0284 0.224976 18.6331 0.224976H31.3739C31.9716 0.224976 32.4778 0.682014 32.5482 1.27968C32.8154 3.593 33.4974 5.20318 34.4818 5.84303C35.3115 6.04694 38.6303 6.97508 41.9983 9.10558C47.1664 12.3681 49.9367 16.8893 50 22.1769V22.1909V28.6387C50 29.2926 49.4726 29.827 48.8117 29.827H41.5624C40.7045 31.9856 38.3209 39.1506 40.1069 48.2843C40.128 48.3757 40.142 48.4812 40.142 48.5867C40.142 49.2406 39.6147 49.775 38.9608 49.775Z" fill="#DFD8F9"/>
<path d="M8.44478 29.834V29.827H7.69945C7.48148 28.4207 7.0385 24.6308 7.82602 21.5651C7.88227 21.3682 8.07915 21.2487 8.27602 21.2979C8.4729 21.3472 8.59244 21.5511 8.54322 21.7479C7.76273 24.7714 8.2479 28.5754 8.44478 29.834Z" fill="#C9BFEE"/>
<path d="M42.3078 29.827H41.5625C41.7593 28.5684 42.2375 24.7714 41.457 21.7479C41.4078 21.5511 41.5273 21.3472 41.7242 21.2979C41.9211 21.2487 42.125 21.3682 42.1742 21.5651C42.9617 24.6308 42.5187 28.4207 42.3078 29.827Z" fill="#C9BFEE"/>
<path d="M17.2563 2.5H25.7528C27.4079 2.5 28.892 3.51932 29.4862 5.06408L30.14 6.76396C30.6694 8.14063 31.9197 9.07991 33.3652 9.37315C35.4357 9.79315 38.3627 10.6539 41 12.5C46 16 46.5 19.5 46.5 21V29.827H48.8085C49.4694 29.827 49.9968 29.2926 49.9968 28.6387V22.1769C49.9335 16.8893 47.1632 12.3681 41.9951 9.10558C38.6271 6.97508 35.3083 6.04694 34.4786 5.84303C33.4942 5.20318 32.8121 3.593 32.545 1.27968C32.4746 0.682014 31.9684 0.224976 31.3707 0.224976H18.6299C18.0252 0.224976 17.5189 0.682014 17.4486 1.27968C17.3987 1.71154 17.3344 2.11889 17.2563 2.5Z" fill="#C9BFEE"/>
<path d="M38.1804 39.256H39.5374C39.4109 41.1545 39.4249 43.2639 39.6781 45.528L10.3714 45.0288L6.9963 44.9655C6.48301 44.9584 6.0752 44.5436 6.0752 44.0303V40.1912C6.0752 39.6779 6.49708 39.256 7.01037 39.256L38.1804 39.2068V39.256Z" fill="#E9EFFF"/>
<path d="M39.5374 39.256H38.1804V39.2068L34 39.2134C33.5 40.6722 31.2 43.931 26 45.295L39.6781 45.528C39.4249 43.2639 39.4109 41.1545 39.5374 39.256Z" fill="#C5D0F0"/>
<path d="M10.1884 36.6474C9.78058 33.8278 9.11964 31.6622 8.6626 30.4036L13.1134 30.4879L43.067 31.0575C43.5803 31.0645 43.9881 31.4864 43.9881 31.9927V35.7052C43.9881 36.2255 43.5663 36.6474 43.0459 36.6474H39.8115H13.3033H10.1884Z" fill="#E9EFFF"/>
<path d="M43.9881 31.9927C43.9881 31.4864 43.5803 31.0646 43.067 31.0575L38 30.9612C37.8333 32.2391 36.3 35.1654 31.5 36.6475H39.8115H43.0459C43.5663 36.6475 43.9881 36.2256 43.9881 35.7053V31.9927Z" fill="#C5D0F0"/>
<g clip-path="url(#clip1_1445_602)">
<path d="M21.2746 26.9141C21.2752 26.9242 21.2797 26.9333 21.2864 26.94L28.7737 21.0275L34.679 13.5474C34.679 13.5474 20.292 12.0185 21.2746 26.9141Z" fill="#C2B5F3"/>
<path d="M34.6791 13.5474L21.2864 26.94C21.2932 26.9468 21.3023 26.9512 21.3124 26.9519C36.2079 27.9345 34.6791 13.5474 34.6791 13.5474Z" fill="#A495E3"/>
<path d="M21.2597 26.93C21.2673 26.9367 21.2769 26.94 21.2864 26.94L22.3999 17.4648L21.2864 8C21.2864 8 10.0322 17.0921 21.2597 26.93Z" fill="#C2B5F3"/>
<path d="M21.2864 8V26.9401C21.296 26.9401 21.3056 26.9367 21.3132 26.9301C32.5407 17.0921 21.2864 8 21.2864 8Z" fill="#A495E3"/>
</g>
</g>
<defs>
<clipPath id="clip0_1445_602">
<rect width="50" height="50" fill="white"/>
</clipPath>
<clipPath id="clip1_1445_602">
<rect width="19" height="19" fill="white" transform="translate(16 8)"/>
</clipPath>
</defs>
</svg>
