<svg width="50" height="50" viewBox="0 0 50 50" fill="none" xmlns="http://www.w3.org/2000/svg">
<g clip-path="url(#clip0_1445_534)">
<path d="M39.0295 8.95911L41.6915 10.1023C47.862 12.7511 50.5767 20.0112 47.6585 26.0571V26.0581V31.7433L44.2915 29.5196L36.9837 22.2947L35.8606 31.5231L31.6953 32.0265L30.5019 13.5633L39.0295 8.95911Z" fill="#DFD8F9"/>
<path d="M43.2067 25.6213H35.5086V39.6667H43.2067V25.6213Z" fill="#A2B1DD"/>
<path d="M34.8109 18.5699L38.9788 21.7328L42.2152 24.497L42.9331 26.5771L42.2152 28.6084L40.8452 28.2406L39.0262 26.0673L33.6892 22.7112L34.8109 18.5699Z" fill="#BAC9F3"/>
<path d="M8.33992 10.1023L11.0019 8.95911L17.775 17.2407L18.4136 29.3447L11.0019 31.1402V32.9465C11.0019 33.8072 10.7802 34.6547 10.3579 35.405L9.98127 36.0753L3.90675 37.4044C3.11858 37.5769 2.37293 36.9767 2.37293 36.1699V26.0581V26.0571C-0.545254 20.0112 2.16941 12.7511 8.33992 10.1023Z" fill="#DFD8F9"/>
<path d="M11.002 20.3269V31.1402V32.9466C11.002 33.8073 10.7802 34.6548 10.358 35.4051L10.0356 35.9789C9.34207 34.4657 8.97684 32.8057 8.97684 31.1402V22.352C8.97684 21.2335 9.88348 20.3269 11.002 20.3269Z" fill="#C2B5F3"/>
<path d="M15.1193 25.6213H7.44324V41.5574H15.1193V25.6213Z" fill="#A2B1DD"/>
<path d="M9.80589 22.8582L10.9513 21.88L16.7867 17.684L17.9946 21.4071L10.9037 26.2147L9.80589 27.5261L8.76802 27.6798L8.57401 24.5265L9.80589 22.8582Z" fill="#BAC9F3"/>
<path d="M12.5208 8.30703C12.9511 8.12274 13.3632 7.90099 13.7521 7.6438C14.1409 7.38763 14.5074 7.09601 14.8456 6.77301C16.405 5.28759 17.2869 3.22805 17.2869 1.07434V0.989895C17.2869 0.443216 17.7301 0.00012207 18.2768 0.00012207H31.7548C32.3015 0.00012207 32.7447 0.443216 32.7447 0.989895V1.07434C32.7447 2.15069 32.9654 3.20476 33.3806 4.17378C33.7957 5.1438 34.4063 6.0308 35.1859 6.77301C35.8633 7.41902 36.6501 7.93846 37.5108 8.30703L39.0296 8.95911V20.5164V31.1402C39.0296 32.6904 38.6529 34.2183 37.932 35.5914L37.4713 36.4692C37.3893 36.6252 37.3518 36.7993 37.3629 36.9745L38.0506 47.8273C38.1252 49.0044 37.1905 50 36.0111 50H25.644L25.4647 49.7954H24.3163L24.1252 50H14.0208C12.8413 50 11.9067 49.0044 11.9813 47.8273L12.6689 36.9745C12.6801 36.7993 12.6426 36.6252 12.5606 36.4692L12.0999 35.5914C11.3789 34.2183 11.0023 32.6904 11.0023 31.1402V20.5164V8.95911L12.5208 8.30703Z" fill="#DFD8F9"/>
<path d="M17.287 1.07432V0.989874C17.287 0.443196 17.7302 0 18.2769 0H31.7549C32.3016 0 32.7448 0.443196 32.7448 0.989874V1.07432C32.7448 2.15067 32.9655 3.20474 33.3807 4.17375C33.7958 5.14378 34.4064 6.03078 35.186 6.77298C35.8634 7.419 36.6502 7.93844 37.5109 8.30701L39.0297 8.95909L41.6917 10.1023C47.8622 12.7511 50.5769 20.0111 47.6587 26.0571V26.0581V36.1699C47.6587 36.9767 46.9129 37.5769 46.1249 37.4044L43.176 36.7592V28.1598V28.1588C46.0942 22.1128 43.3795 14.8528 37.209 12.2039L33.3634 10.5483C32.5028 10.1797 31.716 9.66029 31.0386 9.01428C30.2589 8.27207 29.6484 7.38507 29.2332 6.41505C29.1068 6.11979 28.9982 5.61675 28.9086 5.06025C28.647 3.4358 27.2442 2.24129 25.5987 2.24129L17.2003 2.24068C17.2578 1.85662 17.287 1.4674 17.287 1.07432Z" fill="#C9BFEE"/>
<path d="M33.3799 47.8173L32.6924 36.9149C32.6813 36.7389 32.7187 36.5639 32.8008 36.4073L33.2615 35.5254C33.9824 34.1461 34.3591 32.6111 34.3591 31.0538V24.9974C34.3591 22.418 36.4501 20.3269 39.0296 20.3269V31.0538C39.0296 32.6111 38.6529 34.1461 37.932 35.5254L37.4713 36.4073C37.3893 36.5639 37.3518 36.7389 37.3629 36.9149L38.0505 47.8173C38.1251 48.9997 37.1904 50.0001 36.011 50.0001H31.3405C32.5199 50.0001 33.4545 48.9998 33.3799 47.8173Z" fill="#C2B5F3"/>
<path d="M0.301971 42.1641L0.752863 41.2969C0.870319 41.0701 0.932084 40.818 0.932084 40.5618V32.0746C0.932084 31.0357 1.38672 30.0495 2.17652 29.3741L9.80592 22.8584V27.5263L7.86303 29.847C7.67166 30.0768 7.58863 30.3785 7.63622 30.6742L8.61333 36.6756C8.69332 37.1637 9.11556 37.5231 9.6107 37.5231H10.6455C11.0009 37.5231 11.33 37.3368 11.5123 37.0331L13.0402 34.4855C13.6346 33.4962 14.9357 33.2056 15.8936 33.8486C16.4667 34.2323 16.7867 34.8682 16.7867 35.5233C16.7867 35.7896 16.734 36.06 16.6237 36.3172L14.5317 41.1987C13.6862 43.1732 12.1401 44.767 10.1919 45.6722L9.16113 46.1511L7.00286 49.0685C6.52899 49.709 5.58154 49.7401 5.06665 49.1321L0.475117 43.7096C0.109079 43.2773 0.0406307 42.6666 0.301971 42.1641Z" fill="#E1E9FF"/>
<path d="M20.1611 38.6252C20.4339 38.6252 20.6976 38.4779 20.8337 38.2198C21.3252 37.2876 21.5849 36.2347 21.5849 35.1746C21.5849 33.3227 20.7945 31.5501 19.4163 30.3112C19.1042 30.0306 18.6241 30.0563 18.3439 30.3682C18.0634 30.6801 18.0889 31.1602 18.4009 31.4406C19.459 32.392 20.066 33.753 20.066 35.1746C20.066 35.9887 19.8668 36.7968 19.49 37.5114C19.2944 37.8824 19.4367 38.3417 19.8077 38.5374C19.9206 38.5968 20.0418 38.6252 20.1611 38.6252Z" fill="white"/>
<path d="M16.2418 30.2792C16.5935 30.2792 16.909 30.0335 16.9842 29.6758C17.0705 29.2653 16.8077 28.8627 16.3972 28.7763C15.57 28.6024 14.6939 28.5914 13.8607 28.7441C13.4482 28.8198 13.1751 29.2155 13.2507 29.628C13.3264 30.0406 13.7228 30.3134 14.1346 30.238C14.7747 30.1207 15.4498 30.1292 16.0848 30.2627C16.1374 30.2738 16.19 30.2792 16.2418 30.2792Z" fill="white"/>
<path d="M34.0364 33.7012C34.9946 33.0581 36.296 33.3486 36.8897 34.3382L38.4181 36.8856C38.6007 37.1898 38.9294 37.376 39.2842 37.376H40.3195C40.8147 37.376 41.2369 37.0169 41.3164 36.5282L42.2936 30.5269C42.3417 30.2316 42.2589 29.9298 42.0668 29.7003L40.8451 28.2407L42.2151 24.4971L47.7532 29.2272C48.543 29.9018 48.9977 30.8882 48.9977 31.9269V40.415C48.9977 40.6708 49.0594 40.923 49.1773 41.15L49.7383 42.2286C49.933 42.603 49.882 43.0579 49.6093 43.38L44.5544 49.3496C44.1972 49.7716 43.5398 49.75 43.211 49.3055L40.7692 46.0045L39.7382 45.5252C37.7897 44.6196 36.2442 43.0265 35.3979 41.0515L33.3063 36.1702C32.9245 35.2788 33.2311 34.2417 34.0364 33.7012Z" fill="#E1E9FF"/>
<path d="M29.769 38.6252C29.8884 38.6252 30.0095 38.597 30.1225 38.5374C30.4935 38.3417 30.6357 37.8824 30.4402 37.5114C30.0633 36.7968 29.8642 35.9887 29.8642 35.1746C29.8642 33.753 30.4711 32.392 31.5293 31.4406C31.8412 31.1603 31.8667 30.6801 31.5863 30.3682C31.306 30.0564 30.8257 30.0306 30.5139 30.3112C29.1357 31.5501 28.3453 33.3228 28.3453 35.1746C28.3453 36.2347 28.605 37.2877 29.0965 38.2198C29.2327 38.4777 29.4962 38.6252 29.769 38.6252Z" fill="white"/>
<path d="M33.6883 30.2793C33.7402 30.2793 33.7926 30.2739 33.8454 30.2629C34.4804 30.1295 35.1553 30.1209 35.7956 30.2382C36.2075 30.3142 36.6038 30.0407 36.6794 29.6282C36.7551 29.2157 36.482 28.82 36.0695 28.7443C35.2362 28.5916 34.3602 28.6027 33.5329 28.7765C33.1224 28.8629 32.8598 29.2655 32.9459 29.676C33.0213 30.0336 33.3369 30.2793 33.6883 30.2793Z" fill="white"/>
</g>
<defs>
<clipPath id="clip0_1445_534">
<rect width="50" height="50" fill="white"/>
</clipPath>
</defs>
</svg>
