<svg width="50" height="50" viewBox="0 0 50 50" fill="none" xmlns="http://www.w3.org/2000/svg">
<g clip-path="url(#clip0_1445_560)">
<path d="M49.5117 24.2578V33.1055L38.5156 18.4766C38.5156 18.4766 35.6445 26.8652 35.6445 33.1055C35.6445 39.3457 37.2559 49.4141 37.2559 49.4141H12.7441C12.7441 49.4141 14.3555 39.3457 14.3555 33.1055C14.3555 26.8652 11.4844 18.4766 11.4844 18.4766L0.488281 33.1055V24.2578C0.488281 24.2578 7.30469 10.0098 9.99023 8.20312C12.6758 6.39648 17.2754 7.4707 20.5078 4.29688V0.390625H29.4922V4.29688C32.7148 7.4707 37.334 6.39648 40.0098 8.20312C42.6855 10.0098 49.5117 24.2578 49.5117 24.2578Z" fill="#DFD8F9"/>
<path d="M17.1582 49.4141C17.9687 47.6758 19.3945 45.0196 21.0352 43.7012C23.5937 41.6309 23.0078 38.877 23.2617 35.6348C23.5156 32.3926 21.3379 28.8379 17.8906 28.8086C16.4355 28.7989 15.1465 29.2286 14.1406 29.7266C14.2871 30.8789 14.3652 32.0215 14.3652 33.1055C14.3652 39.3457 12.7539 49.4141 12.7539 49.4141H17.1582Z" fill="#C2B5F3"/>
<path d="M45.957 17.2559C43.877 13.3691 41.3965 9.13086 40.0195 8.20312C37.4707 6.48437 33.1738 7.37305 29.9902 4.73633C29.375 5.26367 28.75 6.05469 28.3496 7.28516C27.334 10.4297 28.4863 12.7246 30.127 13.4961C31.7676 14.2676 32.3047 16.543 35.4785 16.6797C38.1348 16.8066 41.8652 15.9082 45.957 17.2559Z" fill="#C2B5F3"/>
<path d="M26.9141 45.9277L24.1016 45.0977C27.3438 34.1406 25.5078 27.373 23.8867 21.4062C22.4024 15.9473 21.0059 10.8008 23.6231 3.78906L26.3672 4.81445C24.082 10.9375 25.293 15.4395 26.709 20.6445C28.4375 26.9824 30.3906 34.1699 26.9141 45.9277Z" fill="#F4F7FF"/>
<path d="M22.8782 6.31653L25.6626 7.31667L25.3325 8.23561L22.5481 7.23547L22.8782 6.31653Z" fill="#B8AEE9"/>
<path d="M22.168 10.6445H25.0977V11.6211H22.168V10.6445Z" fill="#B8AEE9"/>
<path d="M25.2622 14.3834L25.4654 15.3385L22.5906 15.9499L22.3875 14.9948L25.2622 14.3834Z" fill="#B8AEE9"/>
<path d="M26.1337 18.358L26.33 19.3151L23.4589 19.9039L23.2626 18.9469L26.1337 18.358Z" fill="#B8AEE9"/>
<path d="M26.8755 21.6927L27.3442 22.5492L24.6978 23.9976L24.2291 23.1412L26.8755 21.6927Z" fill="#B8AEE9"/>
<path d="M28.1002 26.4757L28.3375 27.423L25.4768 28.1396L25.2395 27.1924L28.1002 26.4757Z" fill="#B8AEE9"/>
<path d="M25.7812 30.7617H28.8086V31.7383H25.7812V30.7617Z" fill="#B8AEE9"/>
<path d="M25.8975 34.4377L28.8378 34.656L28.7656 35.6296L25.8252 35.4114L25.8975 34.4377Z" fill="#B8AEE9"/>
<path d="M25.7681 37.5138L28.6215 38.3686L28.3413 39.3042L25.4879 38.4493L25.7681 37.5138Z" fill="#B8AEE9"/>
<path d="M25.1667 41.15L27.9774 42.0466L27.6805 42.9773L24.8699 42.0807L25.1667 41.15Z" fill="#B8AEE9"/>
<path d="M12.7441 49.375L16.2012 43.0273C19.3555 42.8906 19.9023 40.7422 21.5625 39.6094C21.7969 39.4531 21.9043 39.1699 21.8457 38.8965C21.748 38.4277 21.2207 38.2031 20.8105 38.4472L18.6719 39.7461L21.1328 32.9394C21.1328 32.9394 19.4629 30.2051 14.3457 32.1191C14.3457 32.1191 11.3574 37.6465 11.2793 41.1719L5.46875 49.375H12.7441Z" fill="#E1E9FF"/>
<path d="M15.5101 31.52L16.4281 31.854L14.6847 36.6458L13.7667 36.3118L15.5101 31.52Z" fill="#B1BEE7"/>
<path d="M17.4976 31.3047L18.4107 31.6504L16.5819 36.4806L15.6688 36.1349L17.4976 31.3047Z" fill="#B1BEE7"/>
<path d="M19.5535 31.839L20.4587 32.2062L18.4429 37.1761L17.5376 36.8089L19.5535 31.839Z" fill="#B1BEE7"/>
<path d="M49.5117 16.6406L40 13.584C37.6758 15.7129 35.7715 14.5801 33.7988 14.9609C33.5254 15.0098 33.2422 14.8926 33.0957 14.6582C32.832 14.2578 33.0469 13.7207 33.5156 13.6133L35.9473 13.0176L29.3945 9.94141C29.3945 9.94141 28.6426 6.82617 33.6231 4.56055C33.6231 4.56055 39.6387 6.34766 42.1875 8.79883L49.5117 10.0488V16.6406Z" fill="#E1E9FF"/>
<path d="M32.3196 4.97205L36.9381 7.12835L36.525 8.01312L31.9065 5.85681L32.3196 4.97205Z" fill="#B1BEE7"/>
<path d="M30.7848 6.24512L35.4962 8.36835L35.0948 9.25897L30.3834 7.13574L30.7848 6.24512Z" fill="#B1BEE7"/>
<path d="M29.7019 8.03601L34.6397 10.1216L34.2598 11.021L29.3221 8.93542L29.7019 8.03601Z" fill="#B1BEE7"/>
</g>
<defs>
<clipPath id="clip0_1445_560">
<rect width="50" height="50" fill="white"/>
</clipPath>
</defs>
</svg>
