<svg width="50" height="50" viewBox="0 0 50 50" fill="none" xmlns="http://www.w3.org/2000/svg">
<g clip-path="url(#clip0_1445_488)">
<path d="M19.1406 6.8062L3.396 5.17847C1.20596 7.78491 0 11.098 0 14.5083C0 16.3851 0.127344 16.8915 1.69229 23.0899L2.92969 27.8321L19.1406 27.5776V6.8062Z" fill="#8596C6"/>
<path d="M23.6816 0H19.1406H8.78906C5.58477 0 2.92969 2.61729 2.92969 5.85938C2.92969 9.16455 5.64375 11.7188 8.78906 11.7188H19.1406L35.1562 27.7344L36.4843 23.0859C38.0664 16.9043 38.1836 16.3771 38.1836 14.502C38.1836 6.50381 31.6798 0 23.6816 0Z" fill="#BAC9F3"/>
<path d="M36.4843 23.0859C38.0664 16.9043 38.1836 16.3771 38.1836 14.502C38.1836 6.50381 31.6798 0 23.6816 0H19.1406V11.7188L35.1562 27.7344L36.4843 23.0859Z" fill="#8596C6"/>
<path d="M19.1406 11.7188C10.2225 11.7188 2.92969 18.9418 2.92969 27.832C2.92969 36.4752 9.94668 50 19.1406 50C28.3346 50 35.2539 36.4752 35.2539 27.832C35.2539 18.9472 28.0255 11.7188 19.1406 11.7188Z" fill="#DFD8F9"/>
<path d="M35.2539 27.832C35.2539 18.9472 28.0255 11.7188 19.1406 11.7188V50C28.3346 50 35.2539 36.4752 35.2539 27.832Z" fill="#C9BFEE"/>
<path d="M33.7891 11.7188C24.9042 11.7188 17.6758 18.9472 17.6758 27.832C17.6758 36.4752 24.5951 50 33.7891 50C42.983 50 50 36.4752 50 27.832C50 18.9472 42.6739 11.7188 33.7891 11.7188ZM20.8544 28.6488C20.5226 28.1553 20.5226 27.5087 20.8544 27.0151C21.1004 26.649 23.3463 23.4375 26.4648 23.4375C29.5834 23.4375 31.8293 26.649 32.0753 27.0152C32.4071 27.5088 32.4071 28.1554 32.0753 28.6489C31.8293 29.015 29.5834 32.2266 26.4648 32.2266C23.3463 32.2266 21.1004 29.015 20.8544 28.6488ZM39.3995 40.3676C39.1535 40.7338 36.9076 43.9453 33.7891 43.9453C30.6705 43.9453 28.4246 40.7338 28.1786 40.3676C27.8468 39.874 27.8468 39.2274 28.1786 38.7339C28.4246 38.3678 30.6705 35.1562 33.7891 35.1562C36.9076 35.1562 39.1535 38.3678 39.3995 38.734C39.7314 39.2274 39.7314 39.8741 39.3995 40.3676ZM41.1133 32.2266C37.9947 32.2266 35.7488 29.015 35.5028 28.6488C35.171 28.1553 35.171 27.5087 35.5028 27.0151C35.7488 26.649 37.9947 23.4375 41.1133 23.4375C44.2318 23.4375 46.4777 26.649 46.7237 27.0152C47.0556 27.5088 47.0556 28.1554 46.7237 28.6489C46.4777 29.015 44.2318 32.2266 41.1133 32.2266Z" fill="#F1F7FF"/>
<path d="M33.7891 11.7188V35.1562C36.9076 35.1562 39.1535 38.3678 39.3995 38.734C39.7313 39.2275 39.7313 39.8741 39.3995 40.3677C39.1535 40.7338 36.9076 43.9453 33.7891 43.9453V50C42.983 50 50 36.4752 50 27.832C50 18.9472 42.6739 11.7188 33.7891 11.7188ZM41.1133 32.2266C37.9947 32.2266 35.7488 29.015 35.5028 28.6488C35.171 28.1553 35.171 27.5087 35.5028 27.0151C35.7488 26.649 37.9947 23.4375 41.1133 23.4375C44.2318 23.4375 46.4777 26.649 46.7237 27.0152C47.0556 27.5088 47.0556 28.1554 46.7237 28.6489C46.4777 29.015 44.2318 32.2266 41.1133 32.2266Z" fill="#CFE2F8"/>
</g>
<defs>
<clipPath id="clip0_1445_488">
<rect width="50" height="50" fill="white"/>
</clipPath>
</defs>
</svg>
